G04 #@! TF.GenerationSoftware,KiCad,Pcbnew,5.1.5+dfsg1-2build2*
G04 #@! TF.CreationDate,2021-11-22T11:52:30+00:00*
G04 #@! TF.ProjectId,PIDController,50494443-6f6e-4747-926f-6c6c65722e6b,rev?*
G04 #@! TF.SameCoordinates,Original*
G04 #@! TF.FileFunction,Legend,Top*
G04 #@! TF.FilePolarity,Positive*
%FSLAX46Y46*%
G04 Gerber Fmt 4.6, Leading zero omitted, Abs format (unit mm)*
G04 Created by KiCad (PCBNEW 5.1.5+dfsg1-2build2) date 2021-11-22 11:52:30*
%MOMM*%
%LPD*%
G04 APERTURE LIST*
%ADD10C,0.120000*%
%ADD11C,0.200000*%
%ADD12C,0.127000*%
%ADD13C,0.150000*%
G04 APERTURE END LIST*
D10*
X135180000Y-136148578D02*
X135180000Y-135631422D01*
X136600000Y-136148578D02*
X136600000Y-135631422D01*
D11*
X124695000Y-142575000D02*
G75*
G03X124695000Y-142575000I-100000J0D01*
G01*
D12*
X124475000Y-140380000D02*
X124475000Y-136480000D01*
X134605000Y-140380000D02*
X134605000Y-136480000D01*
D10*
X179705000Y-47625000D02*
X179705000Y-37465000D01*
X178435000Y-47625000D02*
X186055000Y-47625000D01*
X186055000Y-47625000D02*
X186055000Y-37465000D01*
X186055000Y-37465000D02*
X178435000Y-37465000D01*
X178435000Y-37465000D02*
X178435000Y-47625000D01*
X163830000Y-37465000D02*
X163830000Y-47625000D01*
X171450000Y-37465000D02*
X163830000Y-37465000D01*
X171450000Y-47625000D02*
X171450000Y-37465000D01*
X163830000Y-47625000D02*
X171450000Y-47625000D01*
X165100000Y-47625000D02*
X165100000Y-37465000D01*
X108585000Y-48260000D02*
X108585000Y-38100000D01*
X107315000Y-48260000D02*
X114935000Y-48260000D01*
X114935000Y-48260000D02*
X114935000Y-38100000D01*
X114935000Y-38100000D02*
X107315000Y-38100000D01*
X107315000Y-38100000D02*
X107315000Y-48260000D01*
X121920000Y-38100000D02*
X121920000Y-48260000D01*
X129540000Y-38100000D02*
X121920000Y-38100000D01*
X129540000Y-48260000D02*
X129540000Y-38100000D01*
X121920000Y-48260000D02*
X129540000Y-48260000D01*
X123190000Y-48260000D02*
X123190000Y-38100000D01*
D12*
X160020000Y-108810000D02*
X142240000Y-108810000D01*
X142240000Y-152810000D02*
X160020000Y-152810000D01*
D11*
X160630000Y-150640000D02*
G75*
G03X160630000Y-150640000I-100000J0D01*
G01*
D12*
X125215000Y-124560000D02*
X125215000Y-126900000D01*
X133865000Y-124560000D02*
X133865000Y-126900000D01*
D11*
X133740000Y-121680000D02*
G75*
G03X133740000Y-121680000I-100000J0D01*
G01*
D10*
X119320000Y-153095000D02*
X119320000Y-150495000D01*
X119320000Y-153095000D02*
X132140000Y-153095000D01*
X132140000Y-153095000D02*
X132140000Y-147895000D01*
X121920000Y-147895000D02*
X132140000Y-147895000D01*
X121920000Y-150495000D02*
X121920000Y-147895000D01*
X119320000Y-150495000D02*
X121920000Y-150495000D01*
X119320000Y-147895000D02*
X120650000Y-147895000D01*
X119320000Y-149225000D02*
X119320000Y-147895000D01*
X179130000Y-146110000D02*
X176530000Y-146110000D01*
X179130000Y-146110000D02*
X179130000Y-138370000D01*
X179130000Y-138370000D02*
X173930000Y-138370000D01*
X173930000Y-143510000D02*
X173930000Y-138370000D01*
X176530000Y-143510000D02*
X173930000Y-143510000D01*
X176530000Y-146110000D02*
X176530000Y-143510000D01*
X173930000Y-146110000D02*
X173930000Y-144780000D01*
X175260000Y-146110000D02*
X173930000Y-146110000D01*
X145780000Y-130680000D02*
X145780000Y-133480000D01*
X145780000Y-133480000D02*
X143780000Y-133480000D01*
X143780000Y-133480000D02*
X143780000Y-130680000D01*
X143780000Y-130680000D02*
X145780000Y-130680000D01*
X143780000Y-135760000D02*
X145780000Y-135760000D01*
X143780000Y-138560000D02*
X143780000Y-135760000D01*
X145780000Y-138560000D02*
X143780000Y-138560000D01*
X145780000Y-135760000D02*
X145780000Y-138560000D01*
X133280000Y-117475000D02*
G75*
G03X133280000Y-117475000I-1200000J0D01*
G01*
X124390000Y-125730000D02*
G75*
G03X124390000Y-125730000I-1200000J0D01*
G01*
X138360000Y-113665000D02*
G75*
G03X138360000Y-113665000I-1200000J0D01*
G01*
X133915000Y-107950000D02*
G75*
G03X133915000Y-107950000I-1200000J0D01*
G01*
X151060000Y-106680000D02*
G75*
G03X151060000Y-106680000I-1200000J0D01*
G01*
X105750000Y-115230000D02*
X105750000Y-110830000D01*
X110150000Y-115230000D02*
X105750000Y-115230000D01*
X110150000Y-110830000D02*
X110150000Y-115230000D01*
X105750000Y-110830000D02*
X110150000Y-110830000D01*
X183220000Y-128610000D02*
X187620000Y-128610000D01*
X187620000Y-128610000D02*
X187620000Y-133010000D01*
X187620000Y-133010000D02*
X183220000Y-133010000D01*
X183220000Y-133010000D02*
X183220000Y-128610000D01*
X165665000Y-115570000D02*
G75*
G03X165665000Y-115570000I-1200000J0D01*
G01*
X165665000Y-145415000D02*
G75*
G03X165665000Y-145415000I-1200000J0D01*
G01*
X134878578Y-119940000D02*
X134361422Y-119940000D01*
X134878578Y-121360000D02*
X134361422Y-121360000D01*
X134878578Y-131520000D02*
X134361422Y-131520000D01*
X134878578Y-130100000D02*
X134361422Y-130100000D01*
X126741422Y-130100000D02*
X127258578Y-130100000D01*
X126741422Y-131520000D02*
X127258578Y-131520000D01*
X127258578Y-144855000D02*
X126741422Y-144855000D01*
X127258578Y-143435000D02*
X126741422Y-143435000D01*
X131821422Y-144220000D02*
X132338578Y-144220000D01*
X131821422Y-142800000D02*
X132338578Y-142800000D01*
X164088578Y-147880000D02*
X163571422Y-147880000D01*
X164088578Y-149300000D02*
X163571422Y-149300000D01*
X163120000Y-138688578D02*
X163120000Y-138171422D01*
X164540000Y-138688578D02*
X164540000Y-138171422D01*
X164540000Y-134878578D02*
X164540000Y-134361422D01*
X163120000Y-134878578D02*
X163120000Y-134361422D01*
D13*
X134692380Y-136056666D02*
X134216190Y-136390000D01*
X134692380Y-136628095D02*
X133692380Y-136628095D01*
X133692380Y-136247142D01*
X133740000Y-136151904D01*
X133787619Y-136104285D01*
X133882857Y-136056666D01*
X134025714Y-136056666D01*
X134120952Y-136104285D01*
X134168571Y-136151904D01*
X134216190Y-136247142D01*
X134216190Y-136628095D01*
X134025714Y-135199523D02*
X134692380Y-135199523D01*
X133644761Y-135437619D02*
X134359047Y-135675714D01*
X134359047Y-135056666D01*
X122957380Y-139986904D02*
X123766904Y-139986904D01*
X123862142Y-139939285D01*
X123909761Y-139891666D01*
X123957380Y-139796428D01*
X123957380Y-139605952D01*
X123909761Y-139510714D01*
X123862142Y-139463095D01*
X123766904Y-139415476D01*
X122957380Y-139415476D01*
X122957380Y-139034523D02*
X122957380Y-138415476D01*
X123338333Y-138748809D01*
X123338333Y-138605952D01*
X123385952Y-138510714D01*
X123433571Y-138463095D01*
X123528809Y-138415476D01*
X123766904Y-138415476D01*
X123862142Y-138463095D01*
X123909761Y-138510714D01*
X123957380Y-138605952D01*
X123957380Y-138891666D01*
X123909761Y-138986904D01*
X123862142Y-139034523D01*
X181697380Y-35258333D02*
X182411666Y-35258333D01*
X182554523Y-35305952D01*
X182649761Y-35401190D01*
X182697380Y-35544047D01*
X182697380Y-35639285D01*
X181697380Y-34877380D02*
X181697380Y-34258333D01*
X182078333Y-34591666D01*
X182078333Y-34448809D01*
X182125952Y-34353571D01*
X182173571Y-34305952D01*
X182268809Y-34258333D01*
X182506904Y-34258333D01*
X182602142Y-34305952D01*
X182649761Y-34353571D01*
X182697380Y-34448809D01*
X182697380Y-34734523D01*
X182649761Y-34829761D01*
X182602142Y-34877380D01*
X167092380Y-35258333D02*
X167806666Y-35258333D01*
X167949523Y-35305952D01*
X168044761Y-35401190D01*
X168092380Y-35544047D01*
X168092380Y-35639285D01*
X167425714Y-34353571D02*
X168092380Y-34353571D01*
X167044761Y-34591666D02*
X167759047Y-34829761D01*
X167759047Y-34210714D01*
X110577380Y-35893333D02*
X111291666Y-35893333D01*
X111434523Y-35940952D01*
X111529761Y-36036190D01*
X111577380Y-36179047D01*
X111577380Y-36274285D01*
X110577380Y-34940952D02*
X110577380Y-35417142D01*
X111053571Y-35464761D01*
X111005952Y-35417142D01*
X110958333Y-35321904D01*
X110958333Y-35083809D01*
X111005952Y-34988571D01*
X111053571Y-34940952D01*
X111148809Y-34893333D01*
X111386904Y-34893333D01*
X111482142Y-34940952D01*
X111529761Y-34988571D01*
X111577380Y-35083809D01*
X111577380Y-35321904D01*
X111529761Y-35417142D01*
X111482142Y-35464761D01*
X125182380Y-35893333D02*
X125896666Y-35893333D01*
X126039523Y-35940952D01*
X126134761Y-36036190D01*
X126182380Y-36179047D01*
X126182380Y-36274285D01*
X125182380Y-34988571D02*
X125182380Y-35179047D01*
X125230000Y-35274285D01*
X125277619Y-35321904D01*
X125420476Y-35417142D01*
X125610952Y-35464761D01*
X125991904Y-35464761D01*
X126087142Y-35417142D01*
X126134761Y-35369523D01*
X126182380Y-35274285D01*
X126182380Y-35083809D01*
X126134761Y-34988571D01*
X126087142Y-34940952D01*
X125991904Y-34893333D01*
X125753809Y-34893333D01*
X125658571Y-34940952D01*
X125610952Y-34988571D01*
X125563333Y-35083809D01*
X125563333Y-35274285D01*
X125610952Y-35369523D01*
X125658571Y-35417142D01*
X125753809Y-35464761D01*
X139057380Y-150396904D02*
X139866904Y-150396904D01*
X139962142Y-150349285D01*
X140009761Y-150301666D01*
X140057380Y-150206428D01*
X140057380Y-150015952D01*
X140009761Y-149920714D01*
X139962142Y-149873095D01*
X139866904Y-149825476D01*
X139057380Y-149825476D01*
X140057380Y-148825476D02*
X140057380Y-149396904D01*
X140057380Y-149111190D02*
X139057380Y-149111190D01*
X139200238Y-149206428D01*
X139295476Y-149301666D01*
X139343095Y-149396904D01*
X134427380Y-126066904D02*
X135236904Y-126066904D01*
X135332142Y-126019285D01*
X135379761Y-125971666D01*
X135427380Y-125876428D01*
X135427380Y-125685952D01*
X135379761Y-125590714D01*
X135332142Y-125543095D01*
X135236904Y-125495476D01*
X134427380Y-125495476D01*
X134522619Y-125066904D02*
X134475000Y-125019285D01*
X134427380Y-124924047D01*
X134427380Y-124685952D01*
X134475000Y-124590714D01*
X134522619Y-124543095D01*
X134617857Y-124495476D01*
X134713095Y-124495476D01*
X134855952Y-124543095D01*
X135427380Y-125114523D01*
X135427380Y-124495476D01*
X117332380Y-150828333D02*
X118046666Y-150828333D01*
X118189523Y-150875952D01*
X118284761Y-150971190D01*
X118332380Y-151114047D01*
X118332380Y-151209285D01*
X118332380Y-149828333D02*
X118332380Y-150399761D01*
X118332380Y-150114047D02*
X117332380Y-150114047D01*
X117475238Y-150209285D01*
X117570476Y-150304523D01*
X117618095Y-150399761D01*
X176196666Y-147002380D02*
X176196666Y-147716666D01*
X176149047Y-147859523D01*
X176053809Y-147954761D01*
X175910952Y-148002380D01*
X175815714Y-148002380D01*
X176577619Y-147002380D02*
X177244285Y-147002380D01*
X176815714Y-148002380D01*
X146032380Y-132913333D02*
X146746666Y-132913333D01*
X146889523Y-132960952D01*
X146984761Y-133056190D01*
X147032380Y-133199047D01*
X147032380Y-133294285D01*
X147032380Y-132437142D02*
X146032380Y-132437142D01*
X146032380Y-132056190D01*
X146080000Y-131960952D01*
X146127619Y-131913333D01*
X146222857Y-131865714D01*
X146365714Y-131865714D01*
X146460952Y-131913333D01*
X146508571Y-131960952D01*
X146556190Y-132056190D01*
X146556190Y-132437142D01*
X147032380Y-130913333D02*
X147032380Y-131484761D01*
X147032380Y-131199047D02*
X146032380Y-131199047D01*
X146175238Y-131294285D01*
X146270476Y-131389523D01*
X146318095Y-131484761D01*
X146032380Y-137993333D02*
X146746666Y-137993333D01*
X146889523Y-138040952D01*
X146984761Y-138136190D01*
X147032380Y-138279047D01*
X147032380Y-138374285D01*
X147032380Y-137517142D02*
X146032380Y-137517142D01*
X146032380Y-137136190D01*
X146080000Y-137040952D01*
X146127619Y-136993333D01*
X146222857Y-136945714D01*
X146365714Y-136945714D01*
X146460952Y-136993333D01*
X146508571Y-137040952D01*
X146556190Y-137136190D01*
X146556190Y-137517142D01*
X146127619Y-136564761D02*
X146080000Y-136517142D01*
X146032380Y-136421904D01*
X146032380Y-136183809D01*
X146080000Y-136088571D01*
X146127619Y-136040952D01*
X146222857Y-135993333D01*
X146318095Y-135993333D01*
X146460952Y-136040952D01*
X147032380Y-136612380D01*
X147032380Y-135993333D01*
X126674761Y-116927380D02*
X127246190Y-116927380D01*
X126960476Y-117927380D02*
X126960476Y-116927380D01*
X127579523Y-117927380D02*
X127579523Y-116927380D01*
X127960476Y-116927380D01*
X128055714Y-116975000D01*
X128103333Y-117022619D01*
X128150952Y-117117857D01*
X128150952Y-117260714D01*
X128103333Y-117355952D01*
X128055714Y-117403571D01*
X127960476Y-117451190D01*
X127579523Y-117451190D01*
X129293809Y-117641666D02*
X129770000Y-117641666D01*
X129198571Y-117927380D02*
X129531904Y-116927380D01*
X129865238Y-117927380D01*
X117713333Y-125182380D02*
X118284761Y-125182380D01*
X117999047Y-126182380D02*
X117999047Y-125182380D01*
X118618095Y-126182380D02*
X118618095Y-125182380D01*
X118999047Y-125182380D01*
X119094285Y-125230000D01*
X119141904Y-125277619D01*
X119189523Y-125372857D01*
X119189523Y-125515714D01*
X119141904Y-125610952D01*
X119094285Y-125658571D01*
X118999047Y-125706190D01*
X118618095Y-125706190D01*
X120713333Y-125658571D02*
X120856190Y-125706190D01*
X120903809Y-125753809D01*
X120951428Y-125849047D01*
X120951428Y-125991904D01*
X120903809Y-126087142D01*
X120856190Y-126134761D01*
X120760952Y-126182380D01*
X120380000Y-126182380D01*
X120380000Y-125182380D01*
X120713333Y-125182380D01*
X120808571Y-125230000D01*
X120856190Y-125277619D01*
X120903809Y-125372857D01*
X120903809Y-125468095D01*
X120856190Y-125563333D01*
X120808571Y-125610952D01*
X120713333Y-125658571D01*
X120380000Y-125658571D01*
X132580238Y-113117380D02*
X133151666Y-113117380D01*
X132865952Y-114117380D02*
X132865952Y-113117380D01*
X133485000Y-114117380D02*
X133485000Y-113117380D01*
X133865952Y-113117380D01*
X133961190Y-113165000D01*
X134008809Y-113212619D01*
X134056428Y-113307857D01*
X134056428Y-113450714D01*
X134008809Y-113545952D01*
X133961190Y-113593571D01*
X133865952Y-113641190D01*
X133485000Y-113641190D01*
X135246904Y-114117380D02*
X135246904Y-113117380D01*
X122928571Y-107402380D02*
X123500000Y-107402380D01*
X123214285Y-108402380D02*
X123214285Y-107402380D01*
X123833333Y-108402380D02*
X123833333Y-107402380D01*
X124214285Y-107402380D01*
X124309523Y-107450000D01*
X124357142Y-107497619D01*
X124404761Y-107592857D01*
X124404761Y-107735714D01*
X124357142Y-107830952D01*
X124309523Y-107878571D01*
X124214285Y-107926190D01*
X123833333Y-107926190D01*
X125738095Y-108402380D02*
X125642857Y-108354761D01*
X125595238Y-108259523D01*
X125595238Y-107402380D01*
X126500000Y-108354761D02*
X126404761Y-108402380D01*
X126214285Y-108402380D01*
X126119047Y-108354761D01*
X126071428Y-108259523D01*
X126071428Y-107878571D01*
X126119047Y-107783333D01*
X126214285Y-107735714D01*
X126404761Y-107735714D01*
X126500000Y-107783333D01*
X126547619Y-107878571D01*
X126547619Y-107973809D01*
X126071428Y-108069047D01*
X126833333Y-107735714D02*
X127214285Y-107735714D01*
X126976190Y-108402380D02*
X126976190Y-107545238D01*
X127023809Y-107450000D01*
X127119047Y-107402380D01*
X127214285Y-107402380D01*
X127404761Y-107735714D02*
X127785714Y-107735714D01*
X127547619Y-107402380D02*
X127547619Y-108259523D01*
X127595238Y-108354761D01*
X127690476Y-108402380D01*
X127785714Y-108402380D01*
X128119047Y-108402380D02*
X128119047Y-107402380D01*
X128500000Y-107402380D01*
X128595238Y-107450000D01*
X128642857Y-107497619D01*
X128690476Y-107592857D01*
X128690476Y-107735714D01*
X128642857Y-107830952D01*
X128595238Y-107878571D01*
X128500000Y-107926190D01*
X128119047Y-107926190D01*
X129023809Y-107402380D02*
X129261904Y-108402380D01*
X129452380Y-107688095D01*
X129642857Y-108402380D01*
X129880952Y-107402380D01*
X130261904Y-108402380D02*
X130261904Y-107402380D01*
X130595238Y-108116666D01*
X130928571Y-107402380D01*
X130928571Y-108402380D01*
X138962380Y-106132380D02*
X139533809Y-106132380D01*
X139248095Y-107132380D02*
X139248095Y-106132380D01*
X139867142Y-107132380D02*
X139867142Y-106132380D01*
X140248095Y-106132380D01*
X140343333Y-106180000D01*
X140390952Y-106227619D01*
X140438571Y-106322857D01*
X140438571Y-106465714D01*
X140390952Y-106560952D01*
X140343333Y-106608571D01*
X140248095Y-106656190D01*
X139867142Y-106656190D01*
X141629047Y-107132380D02*
X141629047Y-106465714D01*
X141629047Y-106656190D02*
X141676666Y-106560952D01*
X141724285Y-106513333D01*
X141819523Y-106465714D01*
X141914761Y-106465714D01*
X142248095Y-107132380D02*
X142248095Y-106465714D01*
X142248095Y-106132380D02*
X142200476Y-106180000D01*
X142248095Y-106227619D01*
X142295714Y-106180000D01*
X142248095Y-106132380D01*
X142248095Y-106227619D01*
X143152857Y-106465714D02*
X143152857Y-107275238D01*
X143105238Y-107370476D01*
X143057619Y-107418095D01*
X142962380Y-107465714D01*
X142819523Y-107465714D01*
X142724285Y-107418095D01*
X143152857Y-107084761D02*
X143057619Y-107132380D01*
X142867142Y-107132380D01*
X142771904Y-107084761D01*
X142724285Y-107037142D01*
X142676666Y-106941904D01*
X142676666Y-106656190D01*
X142724285Y-106560952D01*
X142771904Y-106513333D01*
X142867142Y-106465714D01*
X143057619Y-106465714D01*
X143152857Y-106513333D01*
X143629047Y-107132380D02*
X143629047Y-106132380D01*
X144057619Y-107132380D02*
X144057619Y-106608571D01*
X144010000Y-106513333D01*
X143914761Y-106465714D01*
X143771904Y-106465714D01*
X143676666Y-106513333D01*
X143629047Y-106560952D01*
X144390952Y-106465714D02*
X144771904Y-106465714D01*
X144533809Y-106132380D02*
X144533809Y-106989523D01*
X144581428Y-107084761D01*
X144676666Y-107132380D01*
X144771904Y-107132380D01*
X145105238Y-107132380D02*
X145105238Y-106132380D01*
X145486190Y-106132380D01*
X145581428Y-106180000D01*
X145629047Y-106227619D01*
X145676666Y-106322857D01*
X145676666Y-106465714D01*
X145629047Y-106560952D01*
X145581428Y-106608571D01*
X145486190Y-106656190D01*
X145105238Y-106656190D01*
X146010000Y-106132380D02*
X146248095Y-107132380D01*
X146438571Y-106418095D01*
X146629047Y-107132380D01*
X146867142Y-106132380D01*
X147248095Y-107132380D02*
X147248095Y-106132380D01*
X147581428Y-106846666D01*
X147914761Y-106132380D01*
X147914761Y-107132380D01*
X105259523Y-109584380D02*
X105830952Y-109584380D01*
X105545238Y-110584380D02*
X105545238Y-109584380D01*
X106164285Y-110584380D02*
X106164285Y-109584380D01*
X106545238Y-109584380D01*
X106640476Y-109632000D01*
X106688095Y-109679619D01*
X106735714Y-109774857D01*
X106735714Y-109917714D01*
X106688095Y-110012952D01*
X106640476Y-110060571D01*
X106545238Y-110108190D01*
X106164285Y-110108190D01*
X108450000Y-109632000D02*
X108354761Y-109584380D01*
X108211904Y-109584380D01*
X108069047Y-109632000D01*
X107973809Y-109727238D01*
X107926190Y-109822476D01*
X107878571Y-110012952D01*
X107878571Y-110155809D01*
X107926190Y-110346285D01*
X107973809Y-110441523D01*
X108069047Y-110536761D01*
X108211904Y-110584380D01*
X108307142Y-110584380D01*
X108450000Y-110536761D01*
X108497619Y-110489142D01*
X108497619Y-110155809D01*
X108307142Y-110155809D01*
X108926190Y-110584380D02*
X108926190Y-109584380D01*
X109497619Y-110584380D01*
X109497619Y-109584380D01*
X109973809Y-110584380D02*
X109973809Y-109584380D01*
X110211904Y-109584380D01*
X110354761Y-109632000D01*
X110450000Y-109727238D01*
X110497619Y-109822476D01*
X110545238Y-110012952D01*
X110545238Y-110155809D01*
X110497619Y-110346285D01*
X110450000Y-110441523D01*
X110354761Y-110536761D01*
X110211904Y-110584380D01*
X109973809Y-110584380D01*
X182729523Y-127364380D02*
X183300952Y-127364380D01*
X183015238Y-128364380D02*
X183015238Y-127364380D01*
X183634285Y-128364380D02*
X183634285Y-127364380D01*
X184015238Y-127364380D01*
X184110476Y-127412000D01*
X184158095Y-127459619D01*
X184205714Y-127554857D01*
X184205714Y-127697714D01*
X184158095Y-127792952D01*
X184110476Y-127840571D01*
X184015238Y-127888190D01*
X183634285Y-127888190D01*
X185920000Y-127412000D02*
X185824761Y-127364380D01*
X185681904Y-127364380D01*
X185539047Y-127412000D01*
X185443809Y-127507238D01*
X185396190Y-127602476D01*
X185348571Y-127792952D01*
X185348571Y-127935809D01*
X185396190Y-128126285D01*
X185443809Y-128221523D01*
X185539047Y-128316761D01*
X185681904Y-128364380D01*
X185777142Y-128364380D01*
X185920000Y-128316761D01*
X185967619Y-128269142D01*
X185967619Y-127935809D01*
X185777142Y-127935809D01*
X186396190Y-128364380D02*
X186396190Y-127364380D01*
X186967619Y-128364380D01*
X186967619Y-127364380D01*
X187443809Y-128364380D02*
X187443809Y-127364380D01*
X187681904Y-127364380D01*
X187824761Y-127412000D01*
X187920000Y-127507238D01*
X187967619Y-127602476D01*
X188015238Y-127792952D01*
X188015238Y-127935809D01*
X187967619Y-128126285D01*
X187920000Y-128221523D01*
X187824761Y-128316761D01*
X187681904Y-128364380D01*
X187443809Y-128364380D01*
X161369761Y-113024380D02*
X161941190Y-113024380D01*
X161655476Y-114024380D02*
X161655476Y-113024380D01*
X162274523Y-114024380D02*
X162274523Y-113024380D01*
X162655476Y-113024380D01*
X162750714Y-113072000D01*
X162798333Y-113119619D01*
X162845952Y-113214857D01*
X162845952Y-113357714D01*
X162798333Y-113452952D01*
X162750714Y-113500571D01*
X162655476Y-113548190D01*
X162274523Y-113548190D01*
X163893571Y-113024380D02*
X164226904Y-114024380D01*
X164560238Y-113024380D01*
X164893571Y-113024380D02*
X164893571Y-113833904D01*
X164941190Y-113929142D01*
X164988809Y-113976761D01*
X165084047Y-114024380D01*
X165274523Y-114024380D01*
X165369761Y-113976761D01*
X165417380Y-113929142D01*
X165465000Y-113833904D01*
X165465000Y-113024380D01*
X165893571Y-113976761D02*
X166036428Y-114024380D01*
X166274523Y-114024380D01*
X166369761Y-113976761D01*
X166417380Y-113929142D01*
X166465000Y-113833904D01*
X166465000Y-113738666D01*
X166417380Y-113643428D01*
X166369761Y-113595809D01*
X166274523Y-113548190D01*
X166084047Y-113500571D01*
X165988809Y-113452952D01*
X165941190Y-113405333D01*
X165893571Y-113310095D01*
X165893571Y-113214857D01*
X165941190Y-113119619D01*
X165988809Y-113072000D01*
X166084047Y-113024380D01*
X166322142Y-113024380D01*
X166465000Y-113072000D01*
X167226904Y-113500571D02*
X167369761Y-113548190D01*
X167417380Y-113595809D01*
X167465000Y-113691047D01*
X167465000Y-113833904D01*
X167417380Y-113929142D01*
X167369761Y-113976761D01*
X167274523Y-114024380D01*
X166893571Y-114024380D01*
X166893571Y-113024380D01*
X167226904Y-113024380D01*
X167322142Y-113072000D01*
X167369761Y-113119619D01*
X167417380Y-113214857D01*
X167417380Y-113310095D01*
X167369761Y-113405333D01*
X167322142Y-113452952D01*
X167226904Y-113500571D01*
X166893571Y-113500571D01*
X161917380Y-142869380D02*
X162488809Y-142869380D01*
X162203095Y-143869380D02*
X162203095Y-142869380D01*
X162822142Y-143869380D02*
X162822142Y-142869380D01*
X163203095Y-142869380D01*
X163298333Y-142917000D01*
X163345952Y-142964619D01*
X163393571Y-143059857D01*
X163393571Y-143202714D01*
X163345952Y-143297952D01*
X163298333Y-143345571D01*
X163203095Y-143393190D01*
X162822142Y-143393190D01*
X164488809Y-142869380D02*
X165107857Y-142869380D01*
X164774523Y-143250333D01*
X164917380Y-143250333D01*
X165012619Y-143297952D01*
X165060238Y-143345571D01*
X165107857Y-143440809D01*
X165107857Y-143678904D01*
X165060238Y-143774142D01*
X165012619Y-143821761D01*
X164917380Y-143869380D01*
X164631666Y-143869380D01*
X164536428Y-143821761D01*
X164488809Y-143774142D01*
X165393571Y-142869380D02*
X165726904Y-143869380D01*
X166060238Y-142869380D01*
X166298333Y-142869380D02*
X166917380Y-142869380D01*
X166584047Y-143250333D01*
X166726904Y-143250333D01*
X166822142Y-143297952D01*
X166869761Y-143345571D01*
X166917380Y-143440809D01*
X166917380Y-143678904D01*
X166869761Y-143774142D01*
X166822142Y-143821761D01*
X166726904Y-143869380D01*
X166441190Y-143869380D01*
X166345952Y-143821761D01*
X166298333Y-143774142D01*
X134453333Y-122657142D02*
X134405714Y-122704761D01*
X134262857Y-122752380D01*
X134167619Y-122752380D01*
X134024761Y-122704761D01*
X133929523Y-122609523D01*
X133881904Y-122514285D01*
X133834285Y-122323809D01*
X133834285Y-122180952D01*
X133881904Y-121990476D01*
X133929523Y-121895238D01*
X134024761Y-121800000D01*
X134167619Y-121752380D01*
X134262857Y-121752380D01*
X134405714Y-121800000D01*
X134453333Y-121847619D01*
X135405714Y-122752380D02*
X134834285Y-122752380D01*
X135120000Y-122752380D02*
X135120000Y-121752380D01*
X135024761Y-121895238D01*
X134929523Y-121990476D01*
X134834285Y-122038095D01*
X134453333Y-132817142D02*
X134405714Y-132864761D01*
X134262857Y-132912380D01*
X134167619Y-132912380D01*
X134024761Y-132864761D01*
X133929523Y-132769523D01*
X133881904Y-132674285D01*
X133834285Y-132483809D01*
X133834285Y-132340952D01*
X133881904Y-132150476D01*
X133929523Y-132055238D01*
X134024761Y-131960000D01*
X134167619Y-131912380D01*
X134262857Y-131912380D01*
X134405714Y-131960000D01*
X134453333Y-132007619D01*
X134834285Y-132007619D02*
X134881904Y-131960000D01*
X134977142Y-131912380D01*
X135215238Y-131912380D01*
X135310476Y-131960000D01*
X135358095Y-132007619D01*
X135405714Y-132102857D01*
X135405714Y-132198095D01*
X135358095Y-132340952D01*
X134786666Y-132912380D01*
X135405714Y-132912380D01*
X126833333Y-129612380D02*
X126500000Y-129136190D01*
X126261904Y-129612380D02*
X126261904Y-128612380D01*
X126642857Y-128612380D01*
X126738095Y-128660000D01*
X126785714Y-128707619D01*
X126833333Y-128802857D01*
X126833333Y-128945714D01*
X126785714Y-129040952D01*
X126738095Y-129088571D01*
X126642857Y-129136190D01*
X126261904Y-129136190D01*
X127785714Y-129612380D02*
X127214285Y-129612380D01*
X127500000Y-129612380D02*
X127500000Y-128612380D01*
X127404761Y-128755238D01*
X127309523Y-128850476D01*
X127214285Y-128898095D01*
X126833333Y-146247380D02*
X126500000Y-145771190D01*
X126261904Y-146247380D02*
X126261904Y-145247380D01*
X126642857Y-145247380D01*
X126738095Y-145295000D01*
X126785714Y-145342619D01*
X126833333Y-145437857D01*
X126833333Y-145580714D01*
X126785714Y-145675952D01*
X126738095Y-145723571D01*
X126642857Y-145771190D01*
X126261904Y-145771190D01*
X127214285Y-145342619D02*
X127261904Y-145295000D01*
X127357142Y-145247380D01*
X127595238Y-145247380D01*
X127690476Y-145295000D01*
X127738095Y-145342619D01*
X127785714Y-145437857D01*
X127785714Y-145533095D01*
X127738095Y-145675952D01*
X127166666Y-146247380D01*
X127785714Y-146247380D01*
X131913333Y-142312380D02*
X131580000Y-141836190D01*
X131341904Y-142312380D02*
X131341904Y-141312380D01*
X131722857Y-141312380D01*
X131818095Y-141360000D01*
X131865714Y-141407619D01*
X131913333Y-141502857D01*
X131913333Y-141645714D01*
X131865714Y-141740952D01*
X131818095Y-141788571D01*
X131722857Y-141836190D01*
X131341904Y-141836190D01*
X132246666Y-141312380D02*
X132865714Y-141312380D01*
X132532380Y-141693333D01*
X132675238Y-141693333D01*
X132770476Y-141740952D01*
X132818095Y-141788571D01*
X132865714Y-141883809D01*
X132865714Y-142121904D01*
X132818095Y-142217142D01*
X132770476Y-142264761D01*
X132675238Y-142312380D01*
X132389523Y-142312380D01*
X132294285Y-142264761D01*
X132246666Y-142217142D01*
X163663333Y-150692380D02*
X163330000Y-150216190D01*
X163091904Y-150692380D02*
X163091904Y-149692380D01*
X163472857Y-149692380D01*
X163568095Y-149740000D01*
X163615714Y-149787619D01*
X163663333Y-149882857D01*
X163663333Y-150025714D01*
X163615714Y-150120952D01*
X163568095Y-150168571D01*
X163472857Y-150216190D01*
X163091904Y-150216190D01*
X164568095Y-149692380D02*
X164091904Y-149692380D01*
X164044285Y-150168571D01*
X164091904Y-150120952D01*
X164187142Y-150073333D01*
X164425238Y-150073333D01*
X164520476Y-150120952D01*
X164568095Y-150168571D01*
X164615714Y-150263809D01*
X164615714Y-150501904D01*
X164568095Y-150597142D01*
X164520476Y-150644761D01*
X164425238Y-150692380D01*
X164187142Y-150692380D01*
X164091904Y-150644761D01*
X164044285Y-150597142D01*
X162632380Y-138596666D02*
X162156190Y-138930000D01*
X162632380Y-139168095D02*
X161632380Y-139168095D01*
X161632380Y-138787142D01*
X161680000Y-138691904D01*
X161727619Y-138644285D01*
X161822857Y-138596666D01*
X161965714Y-138596666D01*
X162060952Y-138644285D01*
X162108571Y-138691904D01*
X162156190Y-138787142D01*
X162156190Y-139168095D01*
X161632380Y-137739523D02*
X161632380Y-137930000D01*
X161680000Y-138025238D01*
X161727619Y-138072857D01*
X161870476Y-138168095D01*
X162060952Y-138215714D01*
X162441904Y-138215714D01*
X162537142Y-138168095D01*
X162584761Y-138120476D01*
X162632380Y-138025238D01*
X162632380Y-137834761D01*
X162584761Y-137739523D01*
X162537142Y-137691904D01*
X162441904Y-137644285D01*
X162203809Y-137644285D01*
X162108571Y-137691904D01*
X162060952Y-137739523D01*
X162013333Y-137834761D01*
X162013333Y-138025238D01*
X162060952Y-138120476D01*
X162108571Y-138168095D01*
X162203809Y-138215714D01*
X162632380Y-134786666D02*
X162156190Y-135120000D01*
X162632380Y-135358095D02*
X161632380Y-135358095D01*
X161632380Y-134977142D01*
X161680000Y-134881904D01*
X161727619Y-134834285D01*
X161822857Y-134786666D01*
X161965714Y-134786666D01*
X162060952Y-134834285D01*
X162108571Y-134881904D01*
X162156190Y-134977142D01*
X162156190Y-135358095D01*
X161632380Y-134453333D02*
X161632380Y-133786666D01*
X162632380Y-134215238D01*
M02*
