M48
; DRILL file {KiCad 5.1.5+dfsg1-2build2} date Thu 11 Nov 2021 11:20:38 GMT
; FORMAT={-:-/ absolute / inch / decimal}
; #@! TF.CreationDate,2021-11-11T11:20:38+00:00
; #@! TF.GenerationSoftware,Kicad,Pcbnew,5.1.5+dfsg1-2build2
; #@! TF.FileFunction,Plated,1,2,PTH
FMAT,2
INCH
T1C0.0157
T2C0.0315
T3C0.0394
T4C0.0598
%
G90
G05
T1
X4.8Y-4.45
X4.9Y-4.85
X5.075Y-5.225
X5.3Y-5.65
X5.4Y-4.75
X5.4Y-5.15
X6.8Y-5.15
T2
X4.8Y-2.15
X4.8Y-4.05
X4.9Y-2.15
X4.9Y-4.05
X5.0Y-2.15
X5.0Y-4.05
X5.1Y-2.15
X5.1Y-4.05
X5.2Y-2.15
X5.2Y-4.05
X5.3Y-2.15
X5.3Y-4.05
X5.4Y-4.05
X5.5Y-2.15
X5.5Y-4.05
X5.6Y-2.15
X5.6598Y-4.05
X5.7Y-2.15
X5.7598Y-4.05
X5.8Y-2.15
X5.8598Y-4.05
X5.9Y-2.15
X5.9598Y-4.05
X6.0Y-2.15
X6.0598Y-4.05
X6.1Y-2.15
X6.1598Y-4.05
X6.2Y-2.15
X6.2598Y-4.05
X6.3598Y-4.05
X6.4598Y-4.05
X6.5598Y-4.05
X5.5917Y-4.4661
X5.5917Y-4.5661
X5.5917Y-4.6661
X5.5917Y-4.7661
X5.5917Y-4.8661
X5.5917Y-4.9661
X5.5917Y-5.0661
X5.5917Y-5.1661
X5.5917Y-5.2661
X5.5917Y-5.3661
X5.5917Y-5.4661
X5.5917Y-5.5661
X5.5917Y-5.6661
X5.5917Y-5.7661
X5.5917Y-5.8661
X6.3083Y-4.4661
X6.3083Y-4.5661
X6.3083Y-4.6661
X6.3083Y-4.7661
X6.3083Y-4.8661
X6.3083Y-4.9661
X6.3083Y-5.0661
X6.3083Y-5.1661
X6.3083Y-5.2661
X6.3083Y-5.3661
X6.3083Y-5.4661
X6.3083Y-5.5661
X6.3083Y-5.6661
X6.3083Y-5.7661
X6.3083Y-5.8661
T3
X6.7Y-5.7
X6.7Y-5.8
X6.7Y-5.9
X6.8Y-5.7
X6.8Y-5.8
X6.8Y-5.9
X4.95Y-5.8
X4.95Y-5.9
X5.05Y-5.8
X5.05Y-5.9
X5.15Y-5.8
X5.15Y-5.9
X5.25Y-5.8
X5.25Y-5.9
X5.35Y-5.8
X5.35Y-5.9
T4
X6.85Y-1.575
X6.85Y-1.775
X5.0Y-1.575
X5.0Y-1.775
X7.2Y-1.575
X7.2Y-1.775
X4.65Y-1.575
X4.65Y-1.775
T0
M30
