G04 #@! TF.GenerationSoftware,KiCad,Pcbnew,5.1.5+dfsg1-2build2*
G04 #@! TF.CreationDate,2021-11-11T11:20:40+00:00*
G04 #@! TF.ProjectId,PIDController,50494443-6f6e-4747-926f-6c6c65722e6b,rev?*
G04 #@! TF.SameCoordinates,Original*
G04 #@! TF.FileFunction,Paste,Top*
G04 #@! TF.FilePolarity,Positive*
%FSLAX46Y46*%
G04 Gerber Fmt 4.6, Leading zero omitted, Abs format (unit mm)*
G04 Created by KiCad (PCBNEW 5.1.5+dfsg1-2build2) date 2021-11-11 11:20:40*
%MOMM*%
%LPD*%
G04 APERTURE LIST*
%ADD10C,0.100000*%
G04 APERTURE END LIST*
D10*
G36*
X136370142Y-136341174D02*
G01*
X136393803Y-136344684D01*
X136417007Y-136350496D01*
X136439529Y-136358554D01*
X136461153Y-136368782D01*
X136481670Y-136381079D01*
X136500883Y-136395329D01*
X136518607Y-136411393D01*
X136534671Y-136429117D01*
X136548921Y-136448330D01*
X136561218Y-136468847D01*
X136571446Y-136490471D01*
X136579504Y-136512993D01*
X136585316Y-136536197D01*
X136588826Y-136559858D01*
X136590000Y-136583750D01*
X136590000Y-137071250D01*
X136588826Y-137095142D01*
X136585316Y-137118803D01*
X136579504Y-137142007D01*
X136571446Y-137164529D01*
X136561218Y-137186153D01*
X136548921Y-137206670D01*
X136534671Y-137225883D01*
X136518607Y-137243607D01*
X136500883Y-137259671D01*
X136481670Y-137273921D01*
X136461153Y-137286218D01*
X136439529Y-137296446D01*
X136417007Y-137304504D01*
X136393803Y-137310316D01*
X136370142Y-137313826D01*
X136346250Y-137315000D01*
X135433750Y-137315000D01*
X135409858Y-137313826D01*
X135386197Y-137310316D01*
X135362993Y-137304504D01*
X135340471Y-137296446D01*
X135318847Y-137286218D01*
X135298330Y-137273921D01*
X135279117Y-137259671D01*
X135261393Y-137243607D01*
X135245329Y-137225883D01*
X135231079Y-137206670D01*
X135218782Y-137186153D01*
X135208554Y-137164529D01*
X135200496Y-137142007D01*
X135194684Y-137118803D01*
X135191174Y-137095142D01*
X135190000Y-137071250D01*
X135190000Y-136583750D01*
X135191174Y-136559858D01*
X135194684Y-136536197D01*
X135200496Y-136512993D01*
X135208554Y-136490471D01*
X135218782Y-136468847D01*
X135231079Y-136448330D01*
X135245329Y-136429117D01*
X135261393Y-136411393D01*
X135279117Y-136395329D01*
X135298330Y-136381079D01*
X135318847Y-136368782D01*
X135340471Y-136358554D01*
X135362993Y-136350496D01*
X135386197Y-136344684D01*
X135409858Y-136341174D01*
X135433750Y-136340000D01*
X136346250Y-136340000D01*
X136370142Y-136341174D01*
G37*
G36*
X136370142Y-134466174D02*
G01*
X136393803Y-134469684D01*
X136417007Y-134475496D01*
X136439529Y-134483554D01*
X136461153Y-134493782D01*
X136481670Y-134506079D01*
X136500883Y-134520329D01*
X136518607Y-134536393D01*
X136534671Y-134554117D01*
X136548921Y-134573330D01*
X136561218Y-134593847D01*
X136571446Y-134615471D01*
X136579504Y-134637993D01*
X136585316Y-134661197D01*
X136588826Y-134684858D01*
X136590000Y-134708750D01*
X136590000Y-135196250D01*
X136588826Y-135220142D01*
X136585316Y-135243803D01*
X136579504Y-135267007D01*
X136571446Y-135289529D01*
X136561218Y-135311153D01*
X136548921Y-135331670D01*
X136534671Y-135350883D01*
X136518607Y-135368607D01*
X136500883Y-135384671D01*
X136481670Y-135398921D01*
X136461153Y-135411218D01*
X136439529Y-135421446D01*
X136417007Y-135429504D01*
X136393803Y-135435316D01*
X136370142Y-135438826D01*
X136346250Y-135440000D01*
X135433750Y-135440000D01*
X135409858Y-135438826D01*
X135386197Y-135435316D01*
X135362993Y-135429504D01*
X135340471Y-135421446D01*
X135318847Y-135411218D01*
X135298330Y-135398921D01*
X135279117Y-135384671D01*
X135261393Y-135368607D01*
X135245329Y-135350883D01*
X135231079Y-135331670D01*
X135218782Y-135311153D01*
X135208554Y-135289529D01*
X135200496Y-135267007D01*
X135194684Y-135243803D01*
X135191174Y-135220142D01*
X135190000Y-135196250D01*
X135190000Y-134708750D01*
X135191174Y-134684858D01*
X135194684Y-134661197D01*
X135200496Y-134637993D01*
X135208554Y-134615471D01*
X135218782Y-134593847D01*
X135231079Y-134573330D01*
X135245329Y-134554117D01*
X135261393Y-134536393D01*
X135279117Y-134520329D01*
X135298330Y-134506079D01*
X135318847Y-134493782D01*
X135340471Y-134483554D01*
X135362993Y-134475496D01*
X135386197Y-134469684D01*
X135409858Y-134466174D01*
X135433750Y-134465000D01*
X136346250Y-134465000D01*
X136370142Y-134466174D01*
G37*
G36*
X125357117Y-139920202D02*
G01*
X125361194Y-139920807D01*
X125365192Y-139921809D01*
X125369073Y-139923197D01*
X125372799Y-139924959D01*
X125376334Y-139927078D01*
X125379645Y-139929534D01*
X125382698Y-139932302D01*
X125385466Y-139935355D01*
X125387922Y-139938666D01*
X125390041Y-139942201D01*
X125391803Y-139945927D01*
X125393191Y-139949808D01*
X125394193Y-139953806D01*
X125394798Y-139957883D01*
X125395000Y-139962000D01*
X125395000Y-141848000D01*
X125394798Y-141852117D01*
X125394193Y-141856194D01*
X125393191Y-141860192D01*
X125391803Y-141864073D01*
X125390041Y-141867799D01*
X125387922Y-141871334D01*
X125385466Y-141874645D01*
X125382698Y-141877698D01*
X125379645Y-141880466D01*
X125376334Y-141882922D01*
X125372799Y-141885041D01*
X125369073Y-141886803D01*
X125365192Y-141888191D01*
X125361194Y-141889193D01*
X125357117Y-141889798D01*
X125353000Y-141890000D01*
X124837000Y-141890000D01*
X124832883Y-141889798D01*
X124828806Y-141889193D01*
X124824808Y-141888191D01*
X124820927Y-141886803D01*
X124817201Y-141885041D01*
X124813666Y-141882922D01*
X124810355Y-141880466D01*
X124807302Y-141877698D01*
X124804534Y-141874645D01*
X124802078Y-141871334D01*
X124799959Y-141867799D01*
X124798197Y-141864073D01*
X124796809Y-141860192D01*
X124795807Y-141856194D01*
X124795202Y-141852117D01*
X124795000Y-141848000D01*
X124795000Y-139962000D01*
X124795202Y-139957883D01*
X124795807Y-139953806D01*
X124796809Y-139949808D01*
X124798197Y-139945927D01*
X124799959Y-139942201D01*
X124802078Y-139938666D01*
X124804534Y-139935355D01*
X124807302Y-139932302D01*
X124810355Y-139929534D01*
X124813666Y-139927078D01*
X124817201Y-139924959D01*
X124820927Y-139923197D01*
X124824808Y-139921809D01*
X124828806Y-139920807D01*
X124832883Y-139920202D01*
X124837000Y-139920000D01*
X125353000Y-139920000D01*
X125357117Y-139920202D01*
G37*
G36*
X126627117Y-139920202D02*
G01*
X126631194Y-139920807D01*
X126635192Y-139921809D01*
X126639073Y-139923197D01*
X126642799Y-139924959D01*
X126646334Y-139927078D01*
X126649645Y-139929534D01*
X126652698Y-139932302D01*
X126655466Y-139935355D01*
X126657922Y-139938666D01*
X126660041Y-139942201D01*
X126661803Y-139945927D01*
X126663191Y-139949808D01*
X126664193Y-139953806D01*
X126664798Y-139957883D01*
X126665000Y-139962000D01*
X126665000Y-141848000D01*
X126664798Y-141852117D01*
X126664193Y-141856194D01*
X126663191Y-141860192D01*
X126661803Y-141864073D01*
X126660041Y-141867799D01*
X126657922Y-141871334D01*
X126655466Y-141874645D01*
X126652698Y-141877698D01*
X126649645Y-141880466D01*
X126646334Y-141882922D01*
X126642799Y-141885041D01*
X126639073Y-141886803D01*
X126635192Y-141888191D01*
X126631194Y-141889193D01*
X126627117Y-141889798D01*
X126623000Y-141890000D01*
X126107000Y-141890000D01*
X126102883Y-141889798D01*
X126098806Y-141889193D01*
X126094808Y-141888191D01*
X126090927Y-141886803D01*
X126087201Y-141885041D01*
X126083666Y-141882922D01*
X126080355Y-141880466D01*
X126077302Y-141877698D01*
X126074534Y-141874645D01*
X126072078Y-141871334D01*
X126069959Y-141867799D01*
X126068197Y-141864073D01*
X126066809Y-141860192D01*
X126065807Y-141856194D01*
X126065202Y-141852117D01*
X126065000Y-141848000D01*
X126065000Y-139962000D01*
X126065202Y-139957883D01*
X126065807Y-139953806D01*
X126066809Y-139949808D01*
X126068197Y-139945927D01*
X126069959Y-139942201D01*
X126072078Y-139938666D01*
X126074534Y-139935355D01*
X126077302Y-139932302D01*
X126080355Y-139929534D01*
X126083666Y-139927078D01*
X126087201Y-139924959D01*
X126090927Y-139923197D01*
X126094808Y-139921809D01*
X126098806Y-139920807D01*
X126102883Y-139920202D01*
X126107000Y-139920000D01*
X126623000Y-139920000D01*
X126627117Y-139920202D01*
G37*
G36*
X127897117Y-139920202D02*
G01*
X127901194Y-139920807D01*
X127905192Y-139921809D01*
X127909073Y-139923197D01*
X127912799Y-139924959D01*
X127916334Y-139927078D01*
X127919645Y-139929534D01*
X127922698Y-139932302D01*
X127925466Y-139935355D01*
X127927922Y-139938666D01*
X127930041Y-139942201D01*
X127931803Y-139945927D01*
X127933191Y-139949808D01*
X127934193Y-139953806D01*
X127934798Y-139957883D01*
X127935000Y-139962000D01*
X127935000Y-141848000D01*
X127934798Y-141852117D01*
X127934193Y-141856194D01*
X127933191Y-141860192D01*
X127931803Y-141864073D01*
X127930041Y-141867799D01*
X127927922Y-141871334D01*
X127925466Y-141874645D01*
X127922698Y-141877698D01*
X127919645Y-141880466D01*
X127916334Y-141882922D01*
X127912799Y-141885041D01*
X127909073Y-141886803D01*
X127905192Y-141888191D01*
X127901194Y-141889193D01*
X127897117Y-141889798D01*
X127893000Y-141890000D01*
X127377000Y-141890000D01*
X127372883Y-141889798D01*
X127368806Y-141889193D01*
X127364808Y-141888191D01*
X127360927Y-141886803D01*
X127357201Y-141885041D01*
X127353666Y-141882922D01*
X127350355Y-141880466D01*
X127347302Y-141877698D01*
X127344534Y-141874645D01*
X127342078Y-141871334D01*
X127339959Y-141867799D01*
X127338197Y-141864073D01*
X127336809Y-141860192D01*
X127335807Y-141856194D01*
X127335202Y-141852117D01*
X127335000Y-141848000D01*
X127335000Y-139962000D01*
X127335202Y-139957883D01*
X127335807Y-139953806D01*
X127336809Y-139949808D01*
X127338197Y-139945927D01*
X127339959Y-139942201D01*
X127342078Y-139938666D01*
X127344534Y-139935355D01*
X127347302Y-139932302D01*
X127350355Y-139929534D01*
X127353666Y-139927078D01*
X127357201Y-139924959D01*
X127360927Y-139923197D01*
X127364808Y-139921809D01*
X127368806Y-139920807D01*
X127372883Y-139920202D01*
X127377000Y-139920000D01*
X127893000Y-139920000D01*
X127897117Y-139920202D01*
G37*
G36*
X129167117Y-139920202D02*
G01*
X129171194Y-139920807D01*
X129175192Y-139921809D01*
X129179073Y-139923197D01*
X129182799Y-139924959D01*
X129186334Y-139927078D01*
X129189645Y-139929534D01*
X129192698Y-139932302D01*
X129195466Y-139935355D01*
X129197922Y-139938666D01*
X129200041Y-139942201D01*
X129201803Y-139945927D01*
X129203191Y-139949808D01*
X129204193Y-139953806D01*
X129204798Y-139957883D01*
X129205000Y-139962000D01*
X129205000Y-141848000D01*
X129204798Y-141852117D01*
X129204193Y-141856194D01*
X129203191Y-141860192D01*
X129201803Y-141864073D01*
X129200041Y-141867799D01*
X129197922Y-141871334D01*
X129195466Y-141874645D01*
X129192698Y-141877698D01*
X129189645Y-141880466D01*
X129186334Y-141882922D01*
X129182799Y-141885041D01*
X129179073Y-141886803D01*
X129175192Y-141888191D01*
X129171194Y-141889193D01*
X129167117Y-141889798D01*
X129163000Y-141890000D01*
X128647000Y-141890000D01*
X128642883Y-141889798D01*
X128638806Y-141889193D01*
X128634808Y-141888191D01*
X128630927Y-141886803D01*
X128627201Y-141885041D01*
X128623666Y-141882922D01*
X128620355Y-141880466D01*
X128617302Y-141877698D01*
X128614534Y-141874645D01*
X128612078Y-141871334D01*
X128609959Y-141867799D01*
X128608197Y-141864073D01*
X128606809Y-141860192D01*
X128605807Y-141856194D01*
X128605202Y-141852117D01*
X128605000Y-141848000D01*
X128605000Y-139962000D01*
X128605202Y-139957883D01*
X128605807Y-139953806D01*
X128606809Y-139949808D01*
X128608197Y-139945927D01*
X128609959Y-139942201D01*
X128612078Y-139938666D01*
X128614534Y-139935355D01*
X128617302Y-139932302D01*
X128620355Y-139929534D01*
X128623666Y-139927078D01*
X128627201Y-139924959D01*
X128630927Y-139923197D01*
X128634808Y-139921809D01*
X128638806Y-139920807D01*
X128642883Y-139920202D01*
X128647000Y-139920000D01*
X129163000Y-139920000D01*
X129167117Y-139920202D01*
G37*
G36*
X130437117Y-139920202D02*
G01*
X130441194Y-139920807D01*
X130445192Y-139921809D01*
X130449073Y-139923197D01*
X130452799Y-139924959D01*
X130456334Y-139927078D01*
X130459645Y-139929534D01*
X130462698Y-139932302D01*
X130465466Y-139935355D01*
X130467922Y-139938666D01*
X130470041Y-139942201D01*
X130471803Y-139945927D01*
X130473191Y-139949808D01*
X130474193Y-139953806D01*
X130474798Y-139957883D01*
X130475000Y-139962000D01*
X130475000Y-141848000D01*
X130474798Y-141852117D01*
X130474193Y-141856194D01*
X130473191Y-141860192D01*
X130471803Y-141864073D01*
X130470041Y-141867799D01*
X130467922Y-141871334D01*
X130465466Y-141874645D01*
X130462698Y-141877698D01*
X130459645Y-141880466D01*
X130456334Y-141882922D01*
X130452799Y-141885041D01*
X130449073Y-141886803D01*
X130445192Y-141888191D01*
X130441194Y-141889193D01*
X130437117Y-141889798D01*
X130433000Y-141890000D01*
X129917000Y-141890000D01*
X129912883Y-141889798D01*
X129908806Y-141889193D01*
X129904808Y-141888191D01*
X129900927Y-141886803D01*
X129897201Y-141885041D01*
X129893666Y-141882922D01*
X129890355Y-141880466D01*
X129887302Y-141877698D01*
X129884534Y-141874645D01*
X129882078Y-141871334D01*
X129879959Y-141867799D01*
X129878197Y-141864073D01*
X129876809Y-141860192D01*
X129875807Y-141856194D01*
X129875202Y-141852117D01*
X129875000Y-141848000D01*
X129875000Y-139962000D01*
X129875202Y-139957883D01*
X129875807Y-139953806D01*
X129876809Y-139949808D01*
X129878197Y-139945927D01*
X129879959Y-139942201D01*
X129882078Y-139938666D01*
X129884534Y-139935355D01*
X129887302Y-139932302D01*
X129890355Y-139929534D01*
X129893666Y-139927078D01*
X129897201Y-139924959D01*
X129900927Y-139923197D01*
X129904808Y-139921809D01*
X129908806Y-139920807D01*
X129912883Y-139920202D01*
X129917000Y-139920000D01*
X130433000Y-139920000D01*
X130437117Y-139920202D01*
G37*
G36*
X131707117Y-139920202D02*
G01*
X131711194Y-139920807D01*
X131715192Y-139921809D01*
X131719073Y-139923197D01*
X131722799Y-139924959D01*
X131726334Y-139927078D01*
X131729645Y-139929534D01*
X131732698Y-139932302D01*
X131735466Y-139935355D01*
X131737922Y-139938666D01*
X131740041Y-139942201D01*
X131741803Y-139945927D01*
X131743191Y-139949808D01*
X131744193Y-139953806D01*
X131744798Y-139957883D01*
X131745000Y-139962000D01*
X131745000Y-141848000D01*
X131744798Y-141852117D01*
X131744193Y-141856194D01*
X131743191Y-141860192D01*
X131741803Y-141864073D01*
X131740041Y-141867799D01*
X131737922Y-141871334D01*
X131735466Y-141874645D01*
X131732698Y-141877698D01*
X131729645Y-141880466D01*
X131726334Y-141882922D01*
X131722799Y-141885041D01*
X131719073Y-141886803D01*
X131715192Y-141888191D01*
X131711194Y-141889193D01*
X131707117Y-141889798D01*
X131703000Y-141890000D01*
X131187000Y-141890000D01*
X131182883Y-141889798D01*
X131178806Y-141889193D01*
X131174808Y-141888191D01*
X131170927Y-141886803D01*
X131167201Y-141885041D01*
X131163666Y-141882922D01*
X131160355Y-141880466D01*
X131157302Y-141877698D01*
X131154534Y-141874645D01*
X131152078Y-141871334D01*
X131149959Y-141867799D01*
X131148197Y-141864073D01*
X131146809Y-141860192D01*
X131145807Y-141856194D01*
X131145202Y-141852117D01*
X131145000Y-141848000D01*
X131145000Y-139962000D01*
X131145202Y-139957883D01*
X131145807Y-139953806D01*
X131146809Y-139949808D01*
X131148197Y-139945927D01*
X131149959Y-139942201D01*
X131152078Y-139938666D01*
X131154534Y-139935355D01*
X131157302Y-139932302D01*
X131160355Y-139929534D01*
X131163666Y-139927078D01*
X131167201Y-139924959D01*
X131170927Y-139923197D01*
X131174808Y-139921809D01*
X131178806Y-139920807D01*
X131182883Y-139920202D01*
X131187000Y-139920000D01*
X131703000Y-139920000D01*
X131707117Y-139920202D01*
G37*
G36*
X132977117Y-139920202D02*
G01*
X132981194Y-139920807D01*
X132985192Y-139921809D01*
X132989073Y-139923197D01*
X132992799Y-139924959D01*
X132996334Y-139927078D01*
X132999645Y-139929534D01*
X133002698Y-139932302D01*
X133005466Y-139935355D01*
X133007922Y-139938666D01*
X133010041Y-139942201D01*
X133011803Y-139945927D01*
X133013191Y-139949808D01*
X133014193Y-139953806D01*
X133014798Y-139957883D01*
X133015000Y-139962000D01*
X133015000Y-141848000D01*
X133014798Y-141852117D01*
X133014193Y-141856194D01*
X133013191Y-141860192D01*
X133011803Y-141864073D01*
X133010041Y-141867799D01*
X133007922Y-141871334D01*
X133005466Y-141874645D01*
X133002698Y-141877698D01*
X132999645Y-141880466D01*
X132996334Y-141882922D01*
X132992799Y-141885041D01*
X132989073Y-141886803D01*
X132985192Y-141888191D01*
X132981194Y-141889193D01*
X132977117Y-141889798D01*
X132973000Y-141890000D01*
X132457000Y-141890000D01*
X132452883Y-141889798D01*
X132448806Y-141889193D01*
X132444808Y-141888191D01*
X132440927Y-141886803D01*
X132437201Y-141885041D01*
X132433666Y-141882922D01*
X132430355Y-141880466D01*
X132427302Y-141877698D01*
X132424534Y-141874645D01*
X132422078Y-141871334D01*
X132419959Y-141867799D01*
X132418197Y-141864073D01*
X132416809Y-141860192D01*
X132415807Y-141856194D01*
X132415202Y-141852117D01*
X132415000Y-141848000D01*
X132415000Y-139962000D01*
X132415202Y-139957883D01*
X132415807Y-139953806D01*
X132416809Y-139949808D01*
X132418197Y-139945927D01*
X132419959Y-139942201D01*
X132422078Y-139938666D01*
X132424534Y-139935355D01*
X132427302Y-139932302D01*
X132430355Y-139929534D01*
X132433666Y-139927078D01*
X132437201Y-139924959D01*
X132440927Y-139923197D01*
X132444808Y-139921809D01*
X132448806Y-139920807D01*
X132452883Y-139920202D01*
X132457000Y-139920000D01*
X132973000Y-139920000D01*
X132977117Y-139920202D01*
G37*
G36*
X134247117Y-139920202D02*
G01*
X134251194Y-139920807D01*
X134255192Y-139921809D01*
X134259073Y-139923197D01*
X134262799Y-139924959D01*
X134266334Y-139927078D01*
X134269645Y-139929534D01*
X134272698Y-139932302D01*
X134275466Y-139935355D01*
X134277922Y-139938666D01*
X134280041Y-139942201D01*
X134281803Y-139945927D01*
X134283191Y-139949808D01*
X134284193Y-139953806D01*
X134284798Y-139957883D01*
X134285000Y-139962000D01*
X134285000Y-141848000D01*
X134284798Y-141852117D01*
X134284193Y-141856194D01*
X134283191Y-141860192D01*
X134281803Y-141864073D01*
X134280041Y-141867799D01*
X134277922Y-141871334D01*
X134275466Y-141874645D01*
X134272698Y-141877698D01*
X134269645Y-141880466D01*
X134266334Y-141882922D01*
X134262799Y-141885041D01*
X134259073Y-141886803D01*
X134255192Y-141888191D01*
X134251194Y-141889193D01*
X134247117Y-141889798D01*
X134243000Y-141890000D01*
X133727000Y-141890000D01*
X133722883Y-141889798D01*
X133718806Y-141889193D01*
X133714808Y-141888191D01*
X133710927Y-141886803D01*
X133707201Y-141885041D01*
X133703666Y-141882922D01*
X133700355Y-141880466D01*
X133697302Y-141877698D01*
X133694534Y-141874645D01*
X133692078Y-141871334D01*
X133689959Y-141867799D01*
X133688197Y-141864073D01*
X133686809Y-141860192D01*
X133685807Y-141856194D01*
X133685202Y-141852117D01*
X133685000Y-141848000D01*
X133685000Y-139962000D01*
X133685202Y-139957883D01*
X133685807Y-139953806D01*
X133686809Y-139949808D01*
X133688197Y-139945927D01*
X133689959Y-139942201D01*
X133692078Y-139938666D01*
X133694534Y-139935355D01*
X133697302Y-139932302D01*
X133700355Y-139929534D01*
X133703666Y-139927078D01*
X133707201Y-139924959D01*
X133710927Y-139923197D01*
X133714808Y-139921809D01*
X133718806Y-139920807D01*
X133722883Y-139920202D01*
X133727000Y-139920000D01*
X134243000Y-139920000D01*
X134247117Y-139920202D01*
G37*
G36*
X134247117Y-134970202D02*
G01*
X134251194Y-134970807D01*
X134255192Y-134971809D01*
X134259073Y-134973197D01*
X134262799Y-134974959D01*
X134266334Y-134977078D01*
X134269645Y-134979534D01*
X134272698Y-134982302D01*
X134275466Y-134985355D01*
X134277922Y-134988666D01*
X134280041Y-134992201D01*
X134281803Y-134995927D01*
X134283191Y-134999808D01*
X134284193Y-135003806D01*
X134284798Y-135007883D01*
X134285000Y-135012000D01*
X134285000Y-136898000D01*
X134284798Y-136902117D01*
X134284193Y-136906194D01*
X134283191Y-136910192D01*
X134281803Y-136914073D01*
X134280041Y-136917799D01*
X134277922Y-136921334D01*
X134275466Y-136924645D01*
X134272698Y-136927698D01*
X134269645Y-136930466D01*
X134266334Y-136932922D01*
X134262799Y-136935041D01*
X134259073Y-136936803D01*
X134255192Y-136938191D01*
X134251194Y-136939193D01*
X134247117Y-136939798D01*
X134243000Y-136940000D01*
X133727000Y-136940000D01*
X133722883Y-136939798D01*
X133718806Y-136939193D01*
X133714808Y-136938191D01*
X133710927Y-136936803D01*
X133707201Y-136935041D01*
X133703666Y-136932922D01*
X133700355Y-136930466D01*
X133697302Y-136927698D01*
X133694534Y-136924645D01*
X133692078Y-136921334D01*
X133689959Y-136917799D01*
X133688197Y-136914073D01*
X133686809Y-136910192D01*
X133685807Y-136906194D01*
X133685202Y-136902117D01*
X133685000Y-136898000D01*
X133685000Y-135012000D01*
X133685202Y-135007883D01*
X133685807Y-135003806D01*
X133686809Y-134999808D01*
X133688197Y-134995927D01*
X133689959Y-134992201D01*
X133692078Y-134988666D01*
X133694534Y-134985355D01*
X133697302Y-134982302D01*
X133700355Y-134979534D01*
X133703666Y-134977078D01*
X133707201Y-134974959D01*
X133710927Y-134973197D01*
X133714808Y-134971809D01*
X133718806Y-134970807D01*
X133722883Y-134970202D01*
X133727000Y-134970000D01*
X134243000Y-134970000D01*
X134247117Y-134970202D01*
G37*
G36*
X132977117Y-134970202D02*
G01*
X132981194Y-134970807D01*
X132985192Y-134971809D01*
X132989073Y-134973197D01*
X132992799Y-134974959D01*
X132996334Y-134977078D01*
X132999645Y-134979534D01*
X133002698Y-134982302D01*
X133005466Y-134985355D01*
X133007922Y-134988666D01*
X133010041Y-134992201D01*
X133011803Y-134995927D01*
X133013191Y-134999808D01*
X133014193Y-135003806D01*
X133014798Y-135007883D01*
X133015000Y-135012000D01*
X133015000Y-136898000D01*
X133014798Y-136902117D01*
X133014193Y-136906194D01*
X133013191Y-136910192D01*
X133011803Y-136914073D01*
X133010041Y-136917799D01*
X133007922Y-136921334D01*
X133005466Y-136924645D01*
X133002698Y-136927698D01*
X132999645Y-136930466D01*
X132996334Y-136932922D01*
X132992799Y-136935041D01*
X132989073Y-136936803D01*
X132985192Y-136938191D01*
X132981194Y-136939193D01*
X132977117Y-136939798D01*
X132973000Y-136940000D01*
X132457000Y-136940000D01*
X132452883Y-136939798D01*
X132448806Y-136939193D01*
X132444808Y-136938191D01*
X132440927Y-136936803D01*
X132437201Y-136935041D01*
X132433666Y-136932922D01*
X132430355Y-136930466D01*
X132427302Y-136927698D01*
X132424534Y-136924645D01*
X132422078Y-136921334D01*
X132419959Y-136917799D01*
X132418197Y-136914073D01*
X132416809Y-136910192D01*
X132415807Y-136906194D01*
X132415202Y-136902117D01*
X132415000Y-136898000D01*
X132415000Y-135012000D01*
X132415202Y-135007883D01*
X132415807Y-135003806D01*
X132416809Y-134999808D01*
X132418197Y-134995927D01*
X132419959Y-134992201D01*
X132422078Y-134988666D01*
X132424534Y-134985355D01*
X132427302Y-134982302D01*
X132430355Y-134979534D01*
X132433666Y-134977078D01*
X132437201Y-134974959D01*
X132440927Y-134973197D01*
X132444808Y-134971809D01*
X132448806Y-134970807D01*
X132452883Y-134970202D01*
X132457000Y-134970000D01*
X132973000Y-134970000D01*
X132977117Y-134970202D01*
G37*
G36*
X131707117Y-134970202D02*
G01*
X131711194Y-134970807D01*
X131715192Y-134971809D01*
X131719073Y-134973197D01*
X131722799Y-134974959D01*
X131726334Y-134977078D01*
X131729645Y-134979534D01*
X131732698Y-134982302D01*
X131735466Y-134985355D01*
X131737922Y-134988666D01*
X131740041Y-134992201D01*
X131741803Y-134995927D01*
X131743191Y-134999808D01*
X131744193Y-135003806D01*
X131744798Y-135007883D01*
X131745000Y-135012000D01*
X131745000Y-136898000D01*
X131744798Y-136902117D01*
X131744193Y-136906194D01*
X131743191Y-136910192D01*
X131741803Y-136914073D01*
X131740041Y-136917799D01*
X131737922Y-136921334D01*
X131735466Y-136924645D01*
X131732698Y-136927698D01*
X131729645Y-136930466D01*
X131726334Y-136932922D01*
X131722799Y-136935041D01*
X131719073Y-136936803D01*
X131715192Y-136938191D01*
X131711194Y-136939193D01*
X131707117Y-136939798D01*
X131703000Y-136940000D01*
X131187000Y-136940000D01*
X131182883Y-136939798D01*
X131178806Y-136939193D01*
X131174808Y-136938191D01*
X131170927Y-136936803D01*
X131167201Y-136935041D01*
X131163666Y-136932922D01*
X131160355Y-136930466D01*
X131157302Y-136927698D01*
X131154534Y-136924645D01*
X131152078Y-136921334D01*
X131149959Y-136917799D01*
X131148197Y-136914073D01*
X131146809Y-136910192D01*
X131145807Y-136906194D01*
X131145202Y-136902117D01*
X131145000Y-136898000D01*
X131145000Y-135012000D01*
X131145202Y-135007883D01*
X131145807Y-135003806D01*
X131146809Y-134999808D01*
X131148197Y-134995927D01*
X131149959Y-134992201D01*
X131152078Y-134988666D01*
X131154534Y-134985355D01*
X131157302Y-134982302D01*
X131160355Y-134979534D01*
X131163666Y-134977078D01*
X131167201Y-134974959D01*
X131170927Y-134973197D01*
X131174808Y-134971809D01*
X131178806Y-134970807D01*
X131182883Y-134970202D01*
X131187000Y-134970000D01*
X131703000Y-134970000D01*
X131707117Y-134970202D01*
G37*
G36*
X130437117Y-134970202D02*
G01*
X130441194Y-134970807D01*
X130445192Y-134971809D01*
X130449073Y-134973197D01*
X130452799Y-134974959D01*
X130456334Y-134977078D01*
X130459645Y-134979534D01*
X130462698Y-134982302D01*
X130465466Y-134985355D01*
X130467922Y-134988666D01*
X130470041Y-134992201D01*
X130471803Y-134995927D01*
X130473191Y-134999808D01*
X130474193Y-135003806D01*
X130474798Y-135007883D01*
X130475000Y-135012000D01*
X130475000Y-136898000D01*
X130474798Y-136902117D01*
X130474193Y-136906194D01*
X130473191Y-136910192D01*
X130471803Y-136914073D01*
X130470041Y-136917799D01*
X130467922Y-136921334D01*
X130465466Y-136924645D01*
X130462698Y-136927698D01*
X130459645Y-136930466D01*
X130456334Y-136932922D01*
X130452799Y-136935041D01*
X130449073Y-136936803D01*
X130445192Y-136938191D01*
X130441194Y-136939193D01*
X130437117Y-136939798D01*
X130433000Y-136940000D01*
X129917000Y-136940000D01*
X129912883Y-136939798D01*
X129908806Y-136939193D01*
X129904808Y-136938191D01*
X129900927Y-136936803D01*
X129897201Y-136935041D01*
X129893666Y-136932922D01*
X129890355Y-136930466D01*
X129887302Y-136927698D01*
X129884534Y-136924645D01*
X129882078Y-136921334D01*
X129879959Y-136917799D01*
X129878197Y-136914073D01*
X129876809Y-136910192D01*
X129875807Y-136906194D01*
X129875202Y-136902117D01*
X129875000Y-136898000D01*
X129875000Y-135012000D01*
X129875202Y-135007883D01*
X129875807Y-135003806D01*
X129876809Y-134999808D01*
X129878197Y-134995927D01*
X129879959Y-134992201D01*
X129882078Y-134988666D01*
X129884534Y-134985355D01*
X129887302Y-134982302D01*
X129890355Y-134979534D01*
X129893666Y-134977078D01*
X129897201Y-134974959D01*
X129900927Y-134973197D01*
X129904808Y-134971809D01*
X129908806Y-134970807D01*
X129912883Y-134970202D01*
X129917000Y-134970000D01*
X130433000Y-134970000D01*
X130437117Y-134970202D01*
G37*
G36*
X129167117Y-134970202D02*
G01*
X129171194Y-134970807D01*
X129175192Y-134971809D01*
X129179073Y-134973197D01*
X129182799Y-134974959D01*
X129186334Y-134977078D01*
X129189645Y-134979534D01*
X129192698Y-134982302D01*
X129195466Y-134985355D01*
X129197922Y-134988666D01*
X129200041Y-134992201D01*
X129201803Y-134995927D01*
X129203191Y-134999808D01*
X129204193Y-135003806D01*
X129204798Y-135007883D01*
X129205000Y-135012000D01*
X129205000Y-136898000D01*
X129204798Y-136902117D01*
X129204193Y-136906194D01*
X129203191Y-136910192D01*
X129201803Y-136914073D01*
X129200041Y-136917799D01*
X129197922Y-136921334D01*
X129195466Y-136924645D01*
X129192698Y-136927698D01*
X129189645Y-136930466D01*
X129186334Y-136932922D01*
X129182799Y-136935041D01*
X129179073Y-136936803D01*
X129175192Y-136938191D01*
X129171194Y-136939193D01*
X129167117Y-136939798D01*
X129163000Y-136940000D01*
X128647000Y-136940000D01*
X128642883Y-136939798D01*
X128638806Y-136939193D01*
X128634808Y-136938191D01*
X128630927Y-136936803D01*
X128627201Y-136935041D01*
X128623666Y-136932922D01*
X128620355Y-136930466D01*
X128617302Y-136927698D01*
X128614534Y-136924645D01*
X128612078Y-136921334D01*
X128609959Y-136917799D01*
X128608197Y-136914073D01*
X128606809Y-136910192D01*
X128605807Y-136906194D01*
X128605202Y-136902117D01*
X128605000Y-136898000D01*
X128605000Y-135012000D01*
X128605202Y-135007883D01*
X128605807Y-135003806D01*
X128606809Y-134999808D01*
X128608197Y-134995927D01*
X128609959Y-134992201D01*
X128612078Y-134988666D01*
X128614534Y-134985355D01*
X128617302Y-134982302D01*
X128620355Y-134979534D01*
X128623666Y-134977078D01*
X128627201Y-134974959D01*
X128630927Y-134973197D01*
X128634808Y-134971809D01*
X128638806Y-134970807D01*
X128642883Y-134970202D01*
X128647000Y-134970000D01*
X129163000Y-134970000D01*
X129167117Y-134970202D01*
G37*
G36*
X127897117Y-134970202D02*
G01*
X127901194Y-134970807D01*
X127905192Y-134971809D01*
X127909073Y-134973197D01*
X127912799Y-134974959D01*
X127916334Y-134977078D01*
X127919645Y-134979534D01*
X127922698Y-134982302D01*
X127925466Y-134985355D01*
X127927922Y-134988666D01*
X127930041Y-134992201D01*
X127931803Y-134995927D01*
X127933191Y-134999808D01*
X127934193Y-135003806D01*
X127934798Y-135007883D01*
X127935000Y-135012000D01*
X127935000Y-136898000D01*
X127934798Y-136902117D01*
X127934193Y-136906194D01*
X127933191Y-136910192D01*
X127931803Y-136914073D01*
X127930041Y-136917799D01*
X127927922Y-136921334D01*
X127925466Y-136924645D01*
X127922698Y-136927698D01*
X127919645Y-136930466D01*
X127916334Y-136932922D01*
X127912799Y-136935041D01*
X127909073Y-136936803D01*
X127905192Y-136938191D01*
X127901194Y-136939193D01*
X127897117Y-136939798D01*
X127893000Y-136940000D01*
X127377000Y-136940000D01*
X127372883Y-136939798D01*
X127368806Y-136939193D01*
X127364808Y-136938191D01*
X127360927Y-136936803D01*
X127357201Y-136935041D01*
X127353666Y-136932922D01*
X127350355Y-136930466D01*
X127347302Y-136927698D01*
X127344534Y-136924645D01*
X127342078Y-136921334D01*
X127339959Y-136917799D01*
X127338197Y-136914073D01*
X127336809Y-136910192D01*
X127335807Y-136906194D01*
X127335202Y-136902117D01*
X127335000Y-136898000D01*
X127335000Y-135012000D01*
X127335202Y-135007883D01*
X127335807Y-135003806D01*
X127336809Y-134999808D01*
X127338197Y-134995927D01*
X127339959Y-134992201D01*
X127342078Y-134988666D01*
X127344534Y-134985355D01*
X127347302Y-134982302D01*
X127350355Y-134979534D01*
X127353666Y-134977078D01*
X127357201Y-134974959D01*
X127360927Y-134973197D01*
X127364808Y-134971809D01*
X127368806Y-134970807D01*
X127372883Y-134970202D01*
X127377000Y-134970000D01*
X127893000Y-134970000D01*
X127897117Y-134970202D01*
G37*
G36*
X126627117Y-134970202D02*
G01*
X126631194Y-134970807D01*
X126635192Y-134971809D01*
X126639073Y-134973197D01*
X126642799Y-134974959D01*
X126646334Y-134977078D01*
X126649645Y-134979534D01*
X126652698Y-134982302D01*
X126655466Y-134985355D01*
X126657922Y-134988666D01*
X126660041Y-134992201D01*
X126661803Y-134995927D01*
X126663191Y-134999808D01*
X126664193Y-135003806D01*
X126664798Y-135007883D01*
X126665000Y-135012000D01*
X126665000Y-136898000D01*
X126664798Y-136902117D01*
X126664193Y-136906194D01*
X126663191Y-136910192D01*
X126661803Y-136914073D01*
X126660041Y-136917799D01*
X126657922Y-136921334D01*
X126655466Y-136924645D01*
X126652698Y-136927698D01*
X126649645Y-136930466D01*
X126646334Y-136932922D01*
X126642799Y-136935041D01*
X126639073Y-136936803D01*
X126635192Y-136938191D01*
X126631194Y-136939193D01*
X126627117Y-136939798D01*
X126623000Y-136940000D01*
X126107000Y-136940000D01*
X126102883Y-136939798D01*
X126098806Y-136939193D01*
X126094808Y-136938191D01*
X126090927Y-136936803D01*
X126087201Y-136935041D01*
X126083666Y-136932922D01*
X126080355Y-136930466D01*
X126077302Y-136927698D01*
X126074534Y-136924645D01*
X126072078Y-136921334D01*
X126069959Y-136917799D01*
X126068197Y-136914073D01*
X126066809Y-136910192D01*
X126065807Y-136906194D01*
X126065202Y-136902117D01*
X126065000Y-136898000D01*
X126065000Y-135012000D01*
X126065202Y-135007883D01*
X126065807Y-135003806D01*
X126066809Y-134999808D01*
X126068197Y-134995927D01*
X126069959Y-134992201D01*
X126072078Y-134988666D01*
X126074534Y-134985355D01*
X126077302Y-134982302D01*
X126080355Y-134979534D01*
X126083666Y-134977078D01*
X126087201Y-134974959D01*
X126090927Y-134973197D01*
X126094808Y-134971809D01*
X126098806Y-134970807D01*
X126102883Y-134970202D01*
X126107000Y-134970000D01*
X126623000Y-134970000D01*
X126627117Y-134970202D01*
G37*
G36*
X125357117Y-134970202D02*
G01*
X125361194Y-134970807D01*
X125365192Y-134971809D01*
X125369073Y-134973197D01*
X125372799Y-134974959D01*
X125376334Y-134977078D01*
X125379645Y-134979534D01*
X125382698Y-134982302D01*
X125385466Y-134985355D01*
X125387922Y-134988666D01*
X125390041Y-134992201D01*
X125391803Y-134995927D01*
X125393191Y-134999808D01*
X125394193Y-135003806D01*
X125394798Y-135007883D01*
X125395000Y-135012000D01*
X125395000Y-136898000D01*
X125394798Y-136902117D01*
X125394193Y-136906194D01*
X125393191Y-136910192D01*
X125391803Y-136914073D01*
X125390041Y-136917799D01*
X125387922Y-136921334D01*
X125385466Y-136924645D01*
X125382698Y-136927698D01*
X125379645Y-136930466D01*
X125376334Y-136932922D01*
X125372799Y-136935041D01*
X125369073Y-136936803D01*
X125365192Y-136938191D01*
X125361194Y-136939193D01*
X125357117Y-136939798D01*
X125353000Y-136940000D01*
X124837000Y-136940000D01*
X124832883Y-136939798D01*
X124828806Y-136939193D01*
X124824808Y-136938191D01*
X124820927Y-136936803D01*
X124817201Y-136935041D01*
X124813666Y-136932922D01*
X124810355Y-136930466D01*
X124807302Y-136927698D01*
X124804534Y-136924645D01*
X124802078Y-136921334D01*
X124799959Y-136917799D01*
X124798197Y-136914073D01*
X124796809Y-136910192D01*
X124795807Y-136906194D01*
X124795202Y-136902117D01*
X124795000Y-136898000D01*
X124795000Y-135012000D01*
X124795202Y-135007883D01*
X124795807Y-135003806D01*
X124796809Y-134999808D01*
X124798197Y-134995927D01*
X124799959Y-134992201D01*
X124802078Y-134988666D01*
X124804534Y-134985355D01*
X124807302Y-134982302D01*
X124810355Y-134979534D01*
X124813666Y-134977078D01*
X124817201Y-134974959D01*
X124820927Y-134973197D01*
X124824808Y-134971809D01*
X124828806Y-134970807D01*
X124832883Y-134970202D01*
X124837000Y-134970000D01*
X125353000Y-134970000D01*
X125357117Y-134970202D01*
G37*
G36*
X133568822Y-122270433D02*
G01*
X133577558Y-122271729D01*
X133586126Y-122273875D01*
X133594442Y-122276851D01*
X133602426Y-122280627D01*
X133610001Y-122285168D01*
X133617095Y-122290429D01*
X133623640Y-122296360D01*
X133629571Y-122302905D01*
X133634832Y-122309999D01*
X133639373Y-122317574D01*
X133643149Y-122325558D01*
X133646125Y-122333874D01*
X133648271Y-122342442D01*
X133649567Y-122351178D01*
X133650000Y-122360000D01*
X133650000Y-124150000D01*
X133649567Y-124158822D01*
X133648271Y-124167558D01*
X133646125Y-124176126D01*
X133643149Y-124184442D01*
X133639373Y-124192426D01*
X133634832Y-124200001D01*
X133629571Y-124207095D01*
X133623640Y-124213640D01*
X133617095Y-124219571D01*
X133610001Y-124224832D01*
X133602426Y-124229373D01*
X133594442Y-124233149D01*
X133586126Y-124236125D01*
X133577558Y-124238271D01*
X133568822Y-124239567D01*
X133560000Y-124240000D01*
X133140000Y-124240000D01*
X133131178Y-124239567D01*
X133122442Y-124238271D01*
X133113874Y-124236125D01*
X133105558Y-124233149D01*
X133097574Y-124229373D01*
X133089999Y-124224832D01*
X133082905Y-124219571D01*
X133076360Y-124213640D01*
X133070429Y-124207095D01*
X133065168Y-124200001D01*
X133060627Y-124192426D01*
X133056851Y-124184442D01*
X133053875Y-124176126D01*
X133051729Y-124167558D01*
X133050433Y-124158822D01*
X133050000Y-124150000D01*
X133050000Y-122360000D01*
X133050433Y-122351178D01*
X133051729Y-122342442D01*
X133053875Y-122333874D01*
X133056851Y-122325558D01*
X133060627Y-122317574D01*
X133065168Y-122309999D01*
X133070429Y-122302905D01*
X133076360Y-122296360D01*
X133082905Y-122290429D01*
X133089999Y-122285168D01*
X133097574Y-122280627D01*
X133105558Y-122276851D01*
X133113874Y-122273875D01*
X133122442Y-122271729D01*
X133131178Y-122270433D01*
X133140000Y-122270000D01*
X133560000Y-122270000D01*
X133568822Y-122270433D01*
G37*
G36*
X132298822Y-122270433D02*
G01*
X132307558Y-122271729D01*
X132316126Y-122273875D01*
X132324442Y-122276851D01*
X132332426Y-122280627D01*
X132340001Y-122285168D01*
X132347095Y-122290429D01*
X132353640Y-122296360D01*
X132359571Y-122302905D01*
X132364832Y-122309999D01*
X132369373Y-122317574D01*
X132373149Y-122325558D01*
X132376125Y-122333874D01*
X132378271Y-122342442D01*
X132379567Y-122351178D01*
X132380000Y-122360000D01*
X132380000Y-124150000D01*
X132379567Y-124158822D01*
X132378271Y-124167558D01*
X132376125Y-124176126D01*
X132373149Y-124184442D01*
X132369373Y-124192426D01*
X132364832Y-124200001D01*
X132359571Y-124207095D01*
X132353640Y-124213640D01*
X132347095Y-124219571D01*
X132340001Y-124224832D01*
X132332426Y-124229373D01*
X132324442Y-124233149D01*
X132316126Y-124236125D01*
X132307558Y-124238271D01*
X132298822Y-124239567D01*
X132290000Y-124240000D01*
X131870000Y-124240000D01*
X131861178Y-124239567D01*
X131852442Y-124238271D01*
X131843874Y-124236125D01*
X131835558Y-124233149D01*
X131827574Y-124229373D01*
X131819999Y-124224832D01*
X131812905Y-124219571D01*
X131806360Y-124213640D01*
X131800429Y-124207095D01*
X131795168Y-124200001D01*
X131790627Y-124192426D01*
X131786851Y-124184442D01*
X131783875Y-124176126D01*
X131781729Y-124167558D01*
X131780433Y-124158822D01*
X131780000Y-124150000D01*
X131780000Y-122360000D01*
X131780433Y-122351178D01*
X131781729Y-122342442D01*
X131783875Y-122333874D01*
X131786851Y-122325558D01*
X131790627Y-122317574D01*
X131795168Y-122309999D01*
X131800429Y-122302905D01*
X131806360Y-122296360D01*
X131812905Y-122290429D01*
X131819999Y-122285168D01*
X131827574Y-122280627D01*
X131835558Y-122276851D01*
X131843874Y-122273875D01*
X131852442Y-122271729D01*
X131861178Y-122270433D01*
X131870000Y-122270000D01*
X132290000Y-122270000D01*
X132298822Y-122270433D01*
G37*
G36*
X131028822Y-122270433D02*
G01*
X131037558Y-122271729D01*
X131046126Y-122273875D01*
X131054442Y-122276851D01*
X131062426Y-122280627D01*
X131070001Y-122285168D01*
X131077095Y-122290429D01*
X131083640Y-122296360D01*
X131089571Y-122302905D01*
X131094832Y-122309999D01*
X131099373Y-122317574D01*
X131103149Y-122325558D01*
X131106125Y-122333874D01*
X131108271Y-122342442D01*
X131109567Y-122351178D01*
X131110000Y-122360000D01*
X131110000Y-124150000D01*
X131109567Y-124158822D01*
X131108271Y-124167558D01*
X131106125Y-124176126D01*
X131103149Y-124184442D01*
X131099373Y-124192426D01*
X131094832Y-124200001D01*
X131089571Y-124207095D01*
X131083640Y-124213640D01*
X131077095Y-124219571D01*
X131070001Y-124224832D01*
X131062426Y-124229373D01*
X131054442Y-124233149D01*
X131046126Y-124236125D01*
X131037558Y-124238271D01*
X131028822Y-124239567D01*
X131020000Y-124240000D01*
X130600000Y-124240000D01*
X130591178Y-124239567D01*
X130582442Y-124238271D01*
X130573874Y-124236125D01*
X130565558Y-124233149D01*
X130557574Y-124229373D01*
X130549999Y-124224832D01*
X130542905Y-124219571D01*
X130536360Y-124213640D01*
X130530429Y-124207095D01*
X130525168Y-124200001D01*
X130520627Y-124192426D01*
X130516851Y-124184442D01*
X130513875Y-124176126D01*
X130511729Y-124167558D01*
X130510433Y-124158822D01*
X130510000Y-124150000D01*
X130510000Y-122360000D01*
X130510433Y-122351178D01*
X130511729Y-122342442D01*
X130513875Y-122333874D01*
X130516851Y-122325558D01*
X130520627Y-122317574D01*
X130525168Y-122309999D01*
X130530429Y-122302905D01*
X130536360Y-122296360D01*
X130542905Y-122290429D01*
X130549999Y-122285168D01*
X130557574Y-122280627D01*
X130565558Y-122276851D01*
X130573874Y-122273875D01*
X130582442Y-122271729D01*
X130591178Y-122270433D01*
X130600000Y-122270000D01*
X131020000Y-122270000D01*
X131028822Y-122270433D01*
G37*
G36*
X129758822Y-122270433D02*
G01*
X129767558Y-122271729D01*
X129776126Y-122273875D01*
X129784442Y-122276851D01*
X129792426Y-122280627D01*
X129800001Y-122285168D01*
X129807095Y-122290429D01*
X129813640Y-122296360D01*
X129819571Y-122302905D01*
X129824832Y-122309999D01*
X129829373Y-122317574D01*
X129833149Y-122325558D01*
X129836125Y-122333874D01*
X129838271Y-122342442D01*
X129839567Y-122351178D01*
X129840000Y-122360000D01*
X129840000Y-124150000D01*
X129839567Y-124158822D01*
X129838271Y-124167558D01*
X129836125Y-124176126D01*
X129833149Y-124184442D01*
X129829373Y-124192426D01*
X129824832Y-124200001D01*
X129819571Y-124207095D01*
X129813640Y-124213640D01*
X129807095Y-124219571D01*
X129800001Y-124224832D01*
X129792426Y-124229373D01*
X129784442Y-124233149D01*
X129776126Y-124236125D01*
X129767558Y-124238271D01*
X129758822Y-124239567D01*
X129750000Y-124240000D01*
X129330000Y-124240000D01*
X129321178Y-124239567D01*
X129312442Y-124238271D01*
X129303874Y-124236125D01*
X129295558Y-124233149D01*
X129287574Y-124229373D01*
X129279999Y-124224832D01*
X129272905Y-124219571D01*
X129266360Y-124213640D01*
X129260429Y-124207095D01*
X129255168Y-124200001D01*
X129250627Y-124192426D01*
X129246851Y-124184442D01*
X129243875Y-124176126D01*
X129241729Y-124167558D01*
X129240433Y-124158822D01*
X129240000Y-124150000D01*
X129240000Y-122360000D01*
X129240433Y-122351178D01*
X129241729Y-122342442D01*
X129243875Y-122333874D01*
X129246851Y-122325558D01*
X129250627Y-122317574D01*
X129255168Y-122309999D01*
X129260429Y-122302905D01*
X129266360Y-122296360D01*
X129272905Y-122290429D01*
X129279999Y-122285168D01*
X129287574Y-122280627D01*
X129295558Y-122276851D01*
X129303874Y-122273875D01*
X129312442Y-122271729D01*
X129321178Y-122270433D01*
X129330000Y-122270000D01*
X129750000Y-122270000D01*
X129758822Y-122270433D01*
G37*
G36*
X128488822Y-122270433D02*
G01*
X128497558Y-122271729D01*
X128506126Y-122273875D01*
X128514442Y-122276851D01*
X128522426Y-122280627D01*
X128530001Y-122285168D01*
X128537095Y-122290429D01*
X128543640Y-122296360D01*
X128549571Y-122302905D01*
X128554832Y-122309999D01*
X128559373Y-122317574D01*
X128563149Y-122325558D01*
X128566125Y-122333874D01*
X128568271Y-122342442D01*
X128569567Y-122351178D01*
X128570000Y-122360000D01*
X128570000Y-124150000D01*
X128569567Y-124158822D01*
X128568271Y-124167558D01*
X128566125Y-124176126D01*
X128563149Y-124184442D01*
X128559373Y-124192426D01*
X128554832Y-124200001D01*
X128549571Y-124207095D01*
X128543640Y-124213640D01*
X128537095Y-124219571D01*
X128530001Y-124224832D01*
X128522426Y-124229373D01*
X128514442Y-124233149D01*
X128506126Y-124236125D01*
X128497558Y-124238271D01*
X128488822Y-124239567D01*
X128480000Y-124240000D01*
X128060000Y-124240000D01*
X128051178Y-124239567D01*
X128042442Y-124238271D01*
X128033874Y-124236125D01*
X128025558Y-124233149D01*
X128017574Y-124229373D01*
X128009999Y-124224832D01*
X128002905Y-124219571D01*
X127996360Y-124213640D01*
X127990429Y-124207095D01*
X127985168Y-124200001D01*
X127980627Y-124192426D01*
X127976851Y-124184442D01*
X127973875Y-124176126D01*
X127971729Y-124167558D01*
X127970433Y-124158822D01*
X127970000Y-124150000D01*
X127970000Y-122360000D01*
X127970433Y-122351178D01*
X127971729Y-122342442D01*
X127973875Y-122333874D01*
X127976851Y-122325558D01*
X127980627Y-122317574D01*
X127985168Y-122309999D01*
X127990429Y-122302905D01*
X127996360Y-122296360D01*
X128002905Y-122290429D01*
X128009999Y-122285168D01*
X128017574Y-122280627D01*
X128025558Y-122276851D01*
X128033874Y-122273875D01*
X128042442Y-122271729D01*
X128051178Y-122270433D01*
X128060000Y-122270000D01*
X128480000Y-122270000D01*
X128488822Y-122270433D01*
G37*
G36*
X127218822Y-122270433D02*
G01*
X127227558Y-122271729D01*
X127236126Y-122273875D01*
X127244442Y-122276851D01*
X127252426Y-122280627D01*
X127260001Y-122285168D01*
X127267095Y-122290429D01*
X127273640Y-122296360D01*
X127279571Y-122302905D01*
X127284832Y-122309999D01*
X127289373Y-122317574D01*
X127293149Y-122325558D01*
X127296125Y-122333874D01*
X127298271Y-122342442D01*
X127299567Y-122351178D01*
X127300000Y-122360000D01*
X127300000Y-124150000D01*
X127299567Y-124158822D01*
X127298271Y-124167558D01*
X127296125Y-124176126D01*
X127293149Y-124184442D01*
X127289373Y-124192426D01*
X127284832Y-124200001D01*
X127279571Y-124207095D01*
X127273640Y-124213640D01*
X127267095Y-124219571D01*
X127260001Y-124224832D01*
X127252426Y-124229373D01*
X127244442Y-124233149D01*
X127236126Y-124236125D01*
X127227558Y-124238271D01*
X127218822Y-124239567D01*
X127210000Y-124240000D01*
X126790000Y-124240000D01*
X126781178Y-124239567D01*
X126772442Y-124238271D01*
X126763874Y-124236125D01*
X126755558Y-124233149D01*
X126747574Y-124229373D01*
X126739999Y-124224832D01*
X126732905Y-124219571D01*
X126726360Y-124213640D01*
X126720429Y-124207095D01*
X126715168Y-124200001D01*
X126710627Y-124192426D01*
X126706851Y-124184442D01*
X126703875Y-124176126D01*
X126701729Y-124167558D01*
X126700433Y-124158822D01*
X126700000Y-124150000D01*
X126700000Y-122360000D01*
X126700433Y-122351178D01*
X126701729Y-122342442D01*
X126703875Y-122333874D01*
X126706851Y-122325558D01*
X126710627Y-122317574D01*
X126715168Y-122309999D01*
X126720429Y-122302905D01*
X126726360Y-122296360D01*
X126732905Y-122290429D01*
X126739999Y-122285168D01*
X126747574Y-122280627D01*
X126755558Y-122276851D01*
X126763874Y-122273875D01*
X126772442Y-122271729D01*
X126781178Y-122270433D01*
X126790000Y-122270000D01*
X127210000Y-122270000D01*
X127218822Y-122270433D01*
G37*
G36*
X125948822Y-122270433D02*
G01*
X125957558Y-122271729D01*
X125966126Y-122273875D01*
X125974442Y-122276851D01*
X125982426Y-122280627D01*
X125990001Y-122285168D01*
X125997095Y-122290429D01*
X126003640Y-122296360D01*
X126009571Y-122302905D01*
X126014832Y-122309999D01*
X126019373Y-122317574D01*
X126023149Y-122325558D01*
X126026125Y-122333874D01*
X126028271Y-122342442D01*
X126029567Y-122351178D01*
X126030000Y-122360000D01*
X126030000Y-124150000D01*
X126029567Y-124158822D01*
X126028271Y-124167558D01*
X126026125Y-124176126D01*
X126023149Y-124184442D01*
X126019373Y-124192426D01*
X126014832Y-124200001D01*
X126009571Y-124207095D01*
X126003640Y-124213640D01*
X125997095Y-124219571D01*
X125990001Y-124224832D01*
X125982426Y-124229373D01*
X125974442Y-124233149D01*
X125966126Y-124236125D01*
X125957558Y-124238271D01*
X125948822Y-124239567D01*
X125940000Y-124240000D01*
X125520000Y-124240000D01*
X125511178Y-124239567D01*
X125502442Y-124238271D01*
X125493874Y-124236125D01*
X125485558Y-124233149D01*
X125477574Y-124229373D01*
X125469999Y-124224832D01*
X125462905Y-124219571D01*
X125456360Y-124213640D01*
X125450429Y-124207095D01*
X125445168Y-124200001D01*
X125440627Y-124192426D01*
X125436851Y-124184442D01*
X125433875Y-124176126D01*
X125431729Y-124167558D01*
X125430433Y-124158822D01*
X125430000Y-124150000D01*
X125430000Y-122360000D01*
X125430433Y-122351178D01*
X125431729Y-122342442D01*
X125433875Y-122333874D01*
X125436851Y-122325558D01*
X125440627Y-122317574D01*
X125445168Y-122309999D01*
X125450429Y-122302905D01*
X125456360Y-122296360D01*
X125462905Y-122290429D01*
X125469999Y-122285168D01*
X125477574Y-122280627D01*
X125485558Y-122276851D01*
X125493874Y-122273875D01*
X125502442Y-122271729D01*
X125511178Y-122270433D01*
X125520000Y-122270000D01*
X125940000Y-122270000D01*
X125948822Y-122270433D01*
G37*
G36*
X125948822Y-127220433D02*
G01*
X125957558Y-127221729D01*
X125966126Y-127223875D01*
X125974442Y-127226851D01*
X125982426Y-127230627D01*
X125990001Y-127235168D01*
X125997095Y-127240429D01*
X126003640Y-127246360D01*
X126009571Y-127252905D01*
X126014832Y-127259999D01*
X126019373Y-127267574D01*
X126023149Y-127275558D01*
X126026125Y-127283874D01*
X126028271Y-127292442D01*
X126029567Y-127301178D01*
X126030000Y-127310000D01*
X126030000Y-129100000D01*
X126029567Y-129108822D01*
X126028271Y-129117558D01*
X126026125Y-129126126D01*
X126023149Y-129134442D01*
X126019373Y-129142426D01*
X126014832Y-129150001D01*
X126009571Y-129157095D01*
X126003640Y-129163640D01*
X125997095Y-129169571D01*
X125990001Y-129174832D01*
X125982426Y-129179373D01*
X125974442Y-129183149D01*
X125966126Y-129186125D01*
X125957558Y-129188271D01*
X125948822Y-129189567D01*
X125940000Y-129190000D01*
X125520000Y-129190000D01*
X125511178Y-129189567D01*
X125502442Y-129188271D01*
X125493874Y-129186125D01*
X125485558Y-129183149D01*
X125477574Y-129179373D01*
X125469999Y-129174832D01*
X125462905Y-129169571D01*
X125456360Y-129163640D01*
X125450429Y-129157095D01*
X125445168Y-129150001D01*
X125440627Y-129142426D01*
X125436851Y-129134442D01*
X125433875Y-129126126D01*
X125431729Y-129117558D01*
X125430433Y-129108822D01*
X125430000Y-129100000D01*
X125430000Y-127310000D01*
X125430433Y-127301178D01*
X125431729Y-127292442D01*
X125433875Y-127283874D01*
X125436851Y-127275558D01*
X125440627Y-127267574D01*
X125445168Y-127259999D01*
X125450429Y-127252905D01*
X125456360Y-127246360D01*
X125462905Y-127240429D01*
X125469999Y-127235168D01*
X125477574Y-127230627D01*
X125485558Y-127226851D01*
X125493874Y-127223875D01*
X125502442Y-127221729D01*
X125511178Y-127220433D01*
X125520000Y-127220000D01*
X125940000Y-127220000D01*
X125948822Y-127220433D01*
G37*
G36*
X127218822Y-127220433D02*
G01*
X127227558Y-127221729D01*
X127236126Y-127223875D01*
X127244442Y-127226851D01*
X127252426Y-127230627D01*
X127260001Y-127235168D01*
X127267095Y-127240429D01*
X127273640Y-127246360D01*
X127279571Y-127252905D01*
X127284832Y-127259999D01*
X127289373Y-127267574D01*
X127293149Y-127275558D01*
X127296125Y-127283874D01*
X127298271Y-127292442D01*
X127299567Y-127301178D01*
X127300000Y-127310000D01*
X127300000Y-129100000D01*
X127299567Y-129108822D01*
X127298271Y-129117558D01*
X127296125Y-129126126D01*
X127293149Y-129134442D01*
X127289373Y-129142426D01*
X127284832Y-129150001D01*
X127279571Y-129157095D01*
X127273640Y-129163640D01*
X127267095Y-129169571D01*
X127260001Y-129174832D01*
X127252426Y-129179373D01*
X127244442Y-129183149D01*
X127236126Y-129186125D01*
X127227558Y-129188271D01*
X127218822Y-129189567D01*
X127210000Y-129190000D01*
X126790000Y-129190000D01*
X126781178Y-129189567D01*
X126772442Y-129188271D01*
X126763874Y-129186125D01*
X126755558Y-129183149D01*
X126747574Y-129179373D01*
X126739999Y-129174832D01*
X126732905Y-129169571D01*
X126726360Y-129163640D01*
X126720429Y-129157095D01*
X126715168Y-129150001D01*
X126710627Y-129142426D01*
X126706851Y-129134442D01*
X126703875Y-129126126D01*
X126701729Y-129117558D01*
X126700433Y-129108822D01*
X126700000Y-129100000D01*
X126700000Y-127310000D01*
X126700433Y-127301178D01*
X126701729Y-127292442D01*
X126703875Y-127283874D01*
X126706851Y-127275558D01*
X126710627Y-127267574D01*
X126715168Y-127259999D01*
X126720429Y-127252905D01*
X126726360Y-127246360D01*
X126732905Y-127240429D01*
X126739999Y-127235168D01*
X126747574Y-127230627D01*
X126755558Y-127226851D01*
X126763874Y-127223875D01*
X126772442Y-127221729D01*
X126781178Y-127220433D01*
X126790000Y-127220000D01*
X127210000Y-127220000D01*
X127218822Y-127220433D01*
G37*
G36*
X128488822Y-127220433D02*
G01*
X128497558Y-127221729D01*
X128506126Y-127223875D01*
X128514442Y-127226851D01*
X128522426Y-127230627D01*
X128530001Y-127235168D01*
X128537095Y-127240429D01*
X128543640Y-127246360D01*
X128549571Y-127252905D01*
X128554832Y-127259999D01*
X128559373Y-127267574D01*
X128563149Y-127275558D01*
X128566125Y-127283874D01*
X128568271Y-127292442D01*
X128569567Y-127301178D01*
X128570000Y-127310000D01*
X128570000Y-129100000D01*
X128569567Y-129108822D01*
X128568271Y-129117558D01*
X128566125Y-129126126D01*
X128563149Y-129134442D01*
X128559373Y-129142426D01*
X128554832Y-129150001D01*
X128549571Y-129157095D01*
X128543640Y-129163640D01*
X128537095Y-129169571D01*
X128530001Y-129174832D01*
X128522426Y-129179373D01*
X128514442Y-129183149D01*
X128506126Y-129186125D01*
X128497558Y-129188271D01*
X128488822Y-129189567D01*
X128480000Y-129190000D01*
X128060000Y-129190000D01*
X128051178Y-129189567D01*
X128042442Y-129188271D01*
X128033874Y-129186125D01*
X128025558Y-129183149D01*
X128017574Y-129179373D01*
X128009999Y-129174832D01*
X128002905Y-129169571D01*
X127996360Y-129163640D01*
X127990429Y-129157095D01*
X127985168Y-129150001D01*
X127980627Y-129142426D01*
X127976851Y-129134442D01*
X127973875Y-129126126D01*
X127971729Y-129117558D01*
X127970433Y-129108822D01*
X127970000Y-129100000D01*
X127970000Y-127310000D01*
X127970433Y-127301178D01*
X127971729Y-127292442D01*
X127973875Y-127283874D01*
X127976851Y-127275558D01*
X127980627Y-127267574D01*
X127985168Y-127259999D01*
X127990429Y-127252905D01*
X127996360Y-127246360D01*
X128002905Y-127240429D01*
X128009999Y-127235168D01*
X128017574Y-127230627D01*
X128025558Y-127226851D01*
X128033874Y-127223875D01*
X128042442Y-127221729D01*
X128051178Y-127220433D01*
X128060000Y-127220000D01*
X128480000Y-127220000D01*
X128488822Y-127220433D01*
G37*
G36*
X129758822Y-127220433D02*
G01*
X129767558Y-127221729D01*
X129776126Y-127223875D01*
X129784442Y-127226851D01*
X129792426Y-127230627D01*
X129800001Y-127235168D01*
X129807095Y-127240429D01*
X129813640Y-127246360D01*
X129819571Y-127252905D01*
X129824832Y-127259999D01*
X129829373Y-127267574D01*
X129833149Y-127275558D01*
X129836125Y-127283874D01*
X129838271Y-127292442D01*
X129839567Y-127301178D01*
X129840000Y-127310000D01*
X129840000Y-129100000D01*
X129839567Y-129108822D01*
X129838271Y-129117558D01*
X129836125Y-129126126D01*
X129833149Y-129134442D01*
X129829373Y-129142426D01*
X129824832Y-129150001D01*
X129819571Y-129157095D01*
X129813640Y-129163640D01*
X129807095Y-129169571D01*
X129800001Y-129174832D01*
X129792426Y-129179373D01*
X129784442Y-129183149D01*
X129776126Y-129186125D01*
X129767558Y-129188271D01*
X129758822Y-129189567D01*
X129750000Y-129190000D01*
X129330000Y-129190000D01*
X129321178Y-129189567D01*
X129312442Y-129188271D01*
X129303874Y-129186125D01*
X129295558Y-129183149D01*
X129287574Y-129179373D01*
X129279999Y-129174832D01*
X129272905Y-129169571D01*
X129266360Y-129163640D01*
X129260429Y-129157095D01*
X129255168Y-129150001D01*
X129250627Y-129142426D01*
X129246851Y-129134442D01*
X129243875Y-129126126D01*
X129241729Y-129117558D01*
X129240433Y-129108822D01*
X129240000Y-129100000D01*
X129240000Y-127310000D01*
X129240433Y-127301178D01*
X129241729Y-127292442D01*
X129243875Y-127283874D01*
X129246851Y-127275558D01*
X129250627Y-127267574D01*
X129255168Y-127259999D01*
X129260429Y-127252905D01*
X129266360Y-127246360D01*
X129272905Y-127240429D01*
X129279999Y-127235168D01*
X129287574Y-127230627D01*
X129295558Y-127226851D01*
X129303874Y-127223875D01*
X129312442Y-127221729D01*
X129321178Y-127220433D01*
X129330000Y-127220000D01*
X129750000Y-127220000D01*
X129758822Y-127220433D01*
G37*
G36*
X131028822Y-127220433D02*
G01*
X131037558Y-127221729D01*
X131046126Y-127223875D01*
X131054442Y-127226851D01*
X131062426Y-127230627D01*
X131070001Y-127235168D01*
X131077095Y-127240429D01*
X131083640Y-127246360D01*
X131089571Y-127252905D01*
X131094832Y-127259999D01*
X131099373Y-127267574D01*
X131103149Y-127275558D01*
X131106125Y-127283874D01*
X131108271Y-127292442D01*
X131109567Y-127301178D01*
X131110000Y-127310000D01*
X131110000Y-129100000D01*
X131109567Y-129108822D01*
X131108271Y-129117558D01*
X131106125Y-129126126D01*
X131103149Y-129134442D01*
X131099373Y-129142426D01*
X131094832Y-129150001D01*
X131089571Y-129157095D01*
X131083640Y-129163640D01*
X131077095Y-129169571D01*
X131070001Y-129174832D01*
X131062426Y-129179373D01*
X131054442Y-129183149D01*
X131046126Y-129186125D01*
X131037558Y-129188271D01*
X131028822Y-129189567D01*
X131020000Y-129190000D01*
X130600000Y-129190000D01*
X130591178Y-129189567D01*
X130582442Y-129188271D01*
X130573874Y-129186125D01*
X130565558Y-129183149D01*
X130557574Y-129179373D01*
X130549999Y-129174832D01*
X130542905Y-129169571D01*
X130536360Y-129163640D01*
X130530429Y-129157095D01*
X130525168Y-129150001D01*
X130520627Y-129142426D01*
X130516851Y-129134442D01*
X130513875Y-129126126D01*
X130511729Y-129117558D01*
X130510433Y-129108822D01*
X130510000Y-129100000D01*
X130510000Y-127310000D01*
X130510433Y-127301178D01*
X130511729Y-127292442D01*
X130513875Y-127283874D01*
X130516851Y-127275558D01*
X130520627Y-127267574D01*
X130525168Y-127259999D01*
X130530429Y-127252905D01*
X130536360Y-127246360D01*
X130542905Y-127240429D01*
X130549999Y-127235168D01*
X130557574Y-127230627D01*
X130565558Y-127226851D01*
X130573874Y-127223875D01*
X130582442Y-127221729D01*
X130591178Y-127220433D01*
X130600000Y-127220000D01*
X131020000Y-127220000D01*
X131028822Y-127220433D01*
G37*
G36*
X132298822Y-127220433D02*
G01*
X132307558Y-127221729D01*
X132316126Y-127223875D01*
X132324442Y-127226851D01*
X132332426Y-127230627D01*
X132340001Y-127235168D01*
X132347095Y-127240429D01*
X132353640Y-127246360D01*
X132359571Y-127252905D01*
X132364832Y-127259999D01*
X132369373Y-127267574D01*
X132373149Y-127275558D01*
X132376125Y-127283874D01*
X132378271Y-127292442D01*
X132379567Y-127301178D01*
X132380000Y-127310000D01*
X132380000Y-129100000D01*
X132379567Y-129108822D01*
X132378271Y-129117558D01*
X132376125Y-129126126D01*
X132373149Y-129134442D01*
X132369373Y-129142426D01*
X132364832Y-129150001D01*
X132359571Y-129157095D01*
X132353640Y-129163640D01*
X132347095Y-129169571D01*
X132340001Y-129174832D01*
X132332426Y-129179373D01*
X132324442Y-129183149D01*
X132316126Y-129186125D01*
X132307558Y-129188271D01*
X132298822Y-129189567D01*
X132290000Y-129190000D01*
X131870000Y-129190000D01*
X131861178Y-129189567D01*
X131852442Y-129188271D01*
X131843874Y-129186125D01*
X131835558Y-129183149D01*
X131827574Y-129179373D01*
X131819999Y-129174832D01*
X131812905Y-129169571D01*
X131806360Y-129163640D01*
X131800429Y-129157095D01*
X131795168Y-129150001D01*
X131790627Y-129142426D01*
X131786851Y-129134442D01*
X131783875Y-129126126D01*
X131781729Y-129117558D01*
X131780433Y-129108822D01*
X131780000Y-129100000D01*
X131780000Y-127310000D01*
X131780433Y-127301178D01*
X131781729Y-127292442D01*
X131783875Y-127283874D01*
X131786851Y-127275558D01*
X131790627Y-127267574D01*
X131795168Y-127259999D01*
X131800429Y-127252905D01*
X131806360Y-127246360D01*
X131812905Y-127240429D01*
X131819999Y-127235168D01*
X131827574Y-127230627D01*
X131835558Y-127226851D01*
X131843874Y-127223875D01*
X131852442Y-127221729D01*
X131861178Y-127220433D01*
X131870000Y-127220000D01*
X132290000Y-127220000D01*
X132298822Y-127220433D01*
G37*
G36*
X133568822Y-127220433D02*
G01*
X133577558Y-127221729D01*
X133586126Y-127223875D01*
X133594442Y-127226851D01*
X133602426Y-127230627D01*
X133610001Y-127235168D01*
X133617095Y-127240429D01*
X133623640Y-127246360D01*
X133629571Y-127252905D01*
X133634832Y-127259999D01*
X133639373Y-127267574D01*
X133643149Y-127275558D01*
X133646125Y-127283874D01*
X133648271Y-127292442D01*
X133649567Y-127301178D01*
X133650000Y-127310000D01*
X133650000Y-129100000D01*
X133649567Y-129108822D01*
X133648271Y-129117558D01*
X133646125Y-129126126D01*
X133643149Y-129134442D01*
X133639373Y-129142426D01*
X133634832Y-129150001D01*
X133629571Y-129157095D01*
X133623640Y-129163640D01*
X133617095Y-129169571D01*
X133610001Y-129174832D01*
X133602426Y-129179373D01*
X133594442Y-129183149D01*
X133586126Y-129186125D01*
X133577558Y-129188271D01*
X133568822Y-129189567D01*
X133560000Y-129190000D01*
X133140000Y-129190000D01*
X133131178Y-129189567D01*
X133122442Y-129188271D01*
X133113874Y-129186125D01*
X133105558Y-129183149D01*
X133097574Y-129179373D01*
X133089999Y-129174832D01*
X133082905Y-129169571D01*
X133076360Y-129163640D01*
X133070429Y-129157095D01*
X133065168Y-129150001D01*
X133060627Y-129142426D01*
X133056851Y-129134442D01*
X133053875Y-129126126D01*
X133051729Y-129117558D01*
X133050433Y-129108822D01*
X133050000Y-129100000D01*
X133050000Y-127310000D01*
X133050433Y-127301178D01*
X133051729Y-127292442D01*
X133053875Y-127283874D01*
X133056851Y-127275558D01*
X133060627Y-127267574D01*
X133065168Y-127259999D01*
X133070429Y-127252905D01*
X133076360Y-127246360D01*
X133082905Y-127240429D01*
X133089999Y-127235168D01*
X133097574Y-127230627D01*
X133105558Y-127226851D01*
X133113874Y-127223875D01*
X133122442Y-127221729D01*
X133131178Y-127220433D01*
X133140000Y-127220000D01*
X133560000Y-127220000D01*
X133568822Y-127220433D01*
G37*
G36*
X133950142Y-119951174D02*
G01*
X133973803Y-119954684D01*
X133997007Y-119960496D01*
X134019529Y-119968554D01*
X134041153Y-119978782D01*
X134061670Y-119991079D01*
X134080883Y-120005329D01*
X134098607Y-120021393D01*
X134114671Y-120039117D01*
X134128921Y-120058330D01*
X134141218Y-120078847D01*
X134151446Y-120100471D01*
X134159504Y-120122993D01*
X134165316Y-120146197D01*
X134168826Y-120169858D01*
X134170000Y-120193750D01*
X134170000Y-121106250D01*
X134168826Y-121130142D01*
X134165316Y-121153803D01*
X134159504Y-121177007D01*
X134151446Y-121199529D01*
X134141218Y-121221153D01*
X134128921Y-121241670D01*
X134114671Y-121260883D01*
X134098607Y-121278607D01*
X134080883Y-121294671D01*
X134061670Y-121308921D01*
X134041153Y-121321218D01*
X134019529Y-121331446D01*
X133997007Y-121339504D01*
X133973803Y-121345316D01*
X133950142Y-121348826D01*
X133926250Y-121350000D01*
X133438750Y-121350000D01*
X133414858Y-121348826D01*
X133391197Y-121345316D01*
X133367993Y-121339504D01*
X133345471Y-121331446D01*
X133323847Y-121321218D01*
X133303330Y-121308921D01*
X133284117Y-121294671D01*
X133266393Y-121278607D01*
X133250329Y-121260883D01*
X133236079Y-121241670D01*
X133223782Y-121221153D01*
X133213554Y-121199529D01*
X133205496Y-121177007D01*
X133199684Y-121153803D01*
X133196174Y-121130142D01*
X133195000Y-121106250D01*
X133195000Y-120193750D01*
X133196174Y-120169858D01*
X133199684Y-120146197D01*
X133205496Y-120122993D01*
X133213554Y-120100471D01*
X133223782Y-120078847D01*
X133236079Y-120058330D01*
X133250329Y-120039117D01*
X133266393Y-120021393D01*
X133284117Y-120005329D01*
X133303330Y-119991079D01*
X133323847Y-119978782D01*
X133345471Y-119968554D01*
X133367993Y-119960496D01*
X133391197Y-119954684D01*
X133414858Y-119951174D01*
X133438750Y-119950000D01*
X133926250Y-119950000D01*
X133950142Y-119951174D01*
G37*
G36*
X135825142Y-119951174D02*
G01*
X135848803Y-119954684D01*
X135872007Y-119960496D01*
X135894529Y-119968554D01*
X135916153Y-119978782D01*
X135936670Y-119991079D01*
X135955883Y-120005329D01*
X135973607Y-120021393D01*
X135989671Y-120039117D01*
X136003921Y-120058330D01*
X136016218Y-120078847D01*
X136026446Y-120100471D01*
X136034504Y-120122993D01*
X136040316Y-120146197D01*
X136043826Y-120169858D01*
X136045000Y-120193750D01*
X136045000Y-121106250D01*
X136043826Y-121130142D01*
X136040316Y-121153803D01*
X136034504Y-121177007D01*
X136026446Y-121199529D01*
X136016218Y-121221153D01*
X136003921Y-121241670D01*
X135989671Y-121260883D01*
X135973607Y-121278607D01*
X135955883Y-121294671D01*
X135936670Y-121308921D01*
X135916153Y-121321218D01*
X135894529Y-121331446D01*
X135872007Y-121339504D01*
X135848803Y-121345316D01*
X135825142Y-121348826D01*
X135801250Y-121350000D01*
X135313750Y-121350000D01*
X135289858Y-121348826D01*
X135266197Y-121345316D01*
X135242993Y-121339504D01*
X135220471Y-121331446D01*
X135198847Y-121321218D01*
X135178330Y-121308921D01*
X135159117Y-121294671D01*
X135141393Y-121278607D01*
X135125329Y-121260883D01*
X135111079Y-121241670D01*
X135098782Y-121221153D01*
X135088554Y-121199529D01*
X135080496Y-121177007D01*
X135074684Y-121153803D01*
X135071174Y-121130142D01*
X135070000Y-121106250D01*
X135070000Y-120193750D01*
X135071174Y-120169858D01*
X135074684Y-120146197D01*
X135080496Y-120122993D01*
X135088554Y-120100471D01*
X135098782Y-120078847D01*
X135111079Y-120058330D01*
X135125329Y-120039117D01*
X135141393Y-120021393D01*
X135159117Y-120005329D01*
X135178330Y-119991079D01*
X135198847Y-119978782D01*
X135220471Y-119968554D01*
X135242993Y-119960496D01*
X135266197Y-119954684D01*
X135289858Y-119951174D01*
X135313750Y-119950000D01*
X135801250Y-119950000D01*
X135825142Y-119951174D01*
G37*
G36*
X135825142Y-130111174D02*
G01*
X135848803Y-130114684D01*
X135872007Y-130120496D01*
X135894529Y-130128554D01*
X135916153Y-130138782D01*
X135936670Y-130151079D01*
X135955883Y-130165329D01*
X135973607Y-130181393D01*
X135989671Y-130199117D01*
X136003921Y-130218330D01*
X136016218Y-130238847D01*
X136026446Y-130260471D01*
X136034504Y-130282993D01*
X136040316Y-130306197D01*
X136043826Y-130329858D01*
X136045000Y-130353750D01*
X136045000Y-131266250D01*
X136043826Y-131290142D01*
X136040316Y-131313803D01*
X136034504Y-131337007D01*
X136026446Y-131359529D01*
X136016218Y-131381153D01*
X136003921Y-131401670D01*
X135989671Y-131420883D01*
X135973607Y-131438607D01*
X135955883Y-131454671D01*
X135936670Y-131468921D01*
X135916153Y-131481218D01*
X135894529Y-131491446D01*
X135872007Y-131499504D01*
X135848803Y-131505316D01*
X135825142Y-131508826D01*
X135801250Y-131510000D01*
X135313750Y-131510000D01*
X135289858Y-131508826D01*
X135266197Y-131505316D01*
X135242993Y-131499504D01*
X135220471Y-131491446D01*
X135198847Y-131481218D01*
X135178330Y-131468921D01*
X135159117Y-131454671D01*
X135141393Y-131438607D01*
X135125329Y-131420883D01*
X135111079Y-131401670D01*
X135098782Y-131381153D01*
X135088554Y-131359529D01*
X135080496Y-131337007D01*
X135074684Y-131313803D01*
X135071174Y-131290142D01*
X135070000Y-131266250D01*
X135070000Y-130353750D01*
X135071174Y-130329858D01*
X135074684Y-130306197D01*
X135080496Y-130282993D01*
X135088554Y-130260471D01*
X135098782Y-130238847D01*
X135111079Y-130218330D01*
X135125329Y-130199117D01*
X135141393Y-130181393D01*
X135159117Y-130165329D01*
X135178330Y-130151079D01*
X135198847Y-130138782D01*
X135220471Y-130128554D01*
X135242993Y-130120496D01*
X135266197Y-130114684D01*
X135289858Y-130111174D01*
X135313750Y-130110000D01*
X135801250Y-130110000D01*
X135825142Y-130111174D01*
G37*
G36*
X133950142Y-130111174D02*
G01*
X133973803Y-130114684D01*
X133997007Y-130120496D01*
X134019529Y-130128554D01*
X134041153Y-130138782D01*
X134061670Y-130151079D01*
X134080883Y-130165329D01*
X134098607Y-130181393D01*
X134114671Y-130199117D01*
X134128921Y-130218330D01*
X134141218Y-130238847D01*
X134151446Y-130260471D01*
X134159504Y-130282993D01*
X134165316Y-130306197D01*
X134168826Y-130329858D01*
X134170000Y-130353750D01*
X134170000Y-131266250D01*
X134168826Y-131290142D01*
X134165316Y-131313803D01*
X134159504Y-131337007D01*
X134151446Y-131359529D01*
X134141218Y-131381153D01*
X134128921Y-131401670D01*
X134114671Y-131420883D01*
X134098607Y-131438607D01*
X134080883Y-131454671D01*
X134061670Y-131468921D01*
X134041153Y-131481218D01*
X134019529Y-131491446D01*
X133997007Y-131499504D01*
X133973803Y-131505316D01*
X133950142Y-131508826D01*
X133926250Y-131510000D01*
X133438750Y-131510000D01*
X133414858Y-131508826D01*
X133391197Y-131505316D01*
X133367993Y-131499504D01*
X133345471Y-131491446D01*
X133323847Y-131481218D01*
X133303330Y-131468921D01*
X133284117Y-131454671D01*
X133266393Y-131438607D01*
X133250329Y-131420883D01*
X133236079Y-131401670D01*
X133223782Y-131381153D01*
X133213554Y-131359529D01*
X133205496Y-131337007D01*
X133199684Y-131313803D01*
X133196174Y-131290142D01*
X133195000Y-131266250D01*
X133195000Y-130353750D01*
X133196174Y-130329858D01*
X133199684Y-130306197D01*
X133205496Y-130282993D01*
X133213554Y-130260471D01*
X133223782Y-130238847D01*
X133236079Y-130218330D01*
X133250329Y-130199117D01*
X133266393Y-130181393D01*
X133284117Y-130165329D01*
X133303330Y-130151079D01*
X133323847Y-130138782D01*
X133345471Y-130128554D01*
X133367993Y-130120496D01*
X133391197Y-130114684D01*
X133414858Y-130111174D01*
X133438750Y-130110000D01*
X133926250Y-130110000D01*
X133950142Y-130111174D01*
G37*
G36*
X126330142Y-130111174D02*
G01*
X126353803Y-130114684D01*
X126377007Y-130120496D01*
X126399529Y-130128554D01*
X126421153Y-130138782D01*
X126441670Y-130151079D01*
X126460883Y-130165329D01*
X126478607Y-130181393D01*
X126494671Y-130199117D01*
X126508921Y-130218330D01*
X126521218Y-130238847D01*
X126531446Y-130260471D01*
X126539504Y-130282993D01*
X126545316Y-130306197D01*
X126548826Y-130329858D01*
X126550000Y-130353750D01*
X126550000Y-131266250D01*
X126548826Y-131290142D01*
X126545316Y-131313803D01*
X126539504Y-131337007D01*
X126531446Y-131359529D01*
X126521218Y-131381153D01*
X126508921Y-131401670D01*
X126494671Y-131420883D01*
X126478607Y-131438607D01*
X126460883Y-131454671D01*
X126441670Y-131468921D01*
X126421153Y-131481218D01*
X126399529Y-131491446D01*
X126377007Y-131499504D01*
X126353803Y-131505316D01*
X126330142Y-131508826D01*
X126306250Y-131510000D01*
X125818750Y-131510000D01*
X125794858Y-131508826D01*
X125771197Y-131505316D01*
X125747993Y-131499504D01*
X125725471Y-131491446D01*
X125703847Y-131481218D01*
X125683330Y-131468921D01*
X125664117Y-131454671D01*
X125646393Y-131438607D01*
X125630329Y-131420883D01*
X125616079Y-131401670D01*
X125603782Y-131381153D01*
X125593554Y-131359529D01*
X125585496Y-131337007D01*
X125579684Y-131313803D01*
X125576174Y-131290142D01*
X125575000Y-131266250D01*
X125575000Y-130353750D01*
X125576174Y-130329858D01*
X125579684Y-130306197D01*
X125585496Y-130282993D01*
X125593554Y-130260471D01*
X125603782Y-130238847D01*
X125616079Y-130218330D01*
X125630329Y-130199117D01*
X125646393Y-130181393D01*
X125664117Y-130165329D01*
X125683330Y-130151079D01*
X125703847Y-130138782D01*
X125725471Y-130128554D01*
X125747993Y-130120496D01*
X125771197Y-130114684D01*
X125794858Y-130111174D01*
X125818750Y-130110000D01*
X126306250Y-130110000D01*
X126330142Y-130111174D01*
G37*
G36*
X128205142Y-130111174D02*
G01*
X128228803Y-130114684D01*
X128252007Y-130120496D01*
X128274529Y-130128554D01*
X128296153Y-130138782D01*
X128316670Y-130151079D01*
X128335883Y-130165329D01*
X128353607Y-130181393D01*
X128369671Y-130199117D01*
X128383921Y-130218330D01*
X128396218Y-130238847D01*
X128406446Y-130260471D01*
X128414504Y-130282993D01*
X128420316Y-130306197D01*
X128423826Y-130329858D01*
X128425000Y-130353750D01*
X128425000Y-131266250D01*
X128423826Y-131290142D01*
X128420316Y-131313803D01*
X128414504Y-131337007D01*
X128406446Y-131359529D01*
X128396218Y-131381153D01*
X128383921Y-131401670D01*
X128369671Y-131420883D01*
X128353607Y-131438607D01*
X128335883Y-131454671D01*
X128316670Y-131468921D01*
X128296153Y-131481218D01*
X128274529Y-131491446D01*
X128252007Y-131499504D01*
X128228803Y-131505316D01*
X128205142Y-131508826D01*
X128181250Y-131510000D01*
X127693750Y-131510000D01*
X127669858Y-131508826D01*
X127646197Y-131505316D01*
X127622993Y-131499504D01*
X127600471Y-131491446D01*
X127578847Y-131481218D01*
X127558330Y-131468921D01*
X127539117Y-131454671D01*
X127521393Y-131438607D01*
X127505329Y-131420883D01*
X127491079Y-131401670D01*
X127478782Y-131381153D01*
X127468554Y-131359529D01*
X127460496Y-131337007D01*
X127454684Y-131313803D01*
X127451174Y-131290142D01*
X127450000Y-131266250D01*
X127450000Y-130353750D01*
X127451174Y-130329858D01*
X127454684Y-130306197D01*
X127460496Y-130282993D01*
X127468554Y-130260471D01*
X127478782Y-130238847D01*
X127491079Y-130218330D01*
X127505329Y-130199117D01*
X127521393Y-130181393D01*
X127539117Y-130165329D01*
X127558330Y-130151079D01*
X127578847Y-130138782D01*
X127600471Y-130128554D01*
X127622993Y-130120496D01*
X127646197Y-130114684D01*
X127669858Y-130111174D01*
X127693750Y-130110000D01*
X128181250Y-130110000D01*
X128205142Y-130111174D01*
G37*
G36*
X128205142Y-143446174D02*
G01*
X128228803Y-143449684D01*
X128252007Y-143455496D01*
X128274529Y-143463554D01*
X128296153Y-143473782D01*
X128316670Y-143486079D01*
X128335883Y-143500329D01*
X128353607Y-143516393D01*
X128369671Y-143534117D01*
X128383921Y-143553330D01*
X128396218Y-143573847D01*
X128406446Y-143595471D01*
X128414504Y-143617993D01*
X128420316Y-143641197D01*
X128423826Y-143664858D01*
X128425000Y-143688750D01*
X128425000Y-144601250D01*
X128423826Y-144625142D01*
X128420316Y-144648803D01*
X128414504Y-144672007D01*
X128406446Y-144694529D01*
X128396218Y-144716153D01*
X128383921Y-144736670D01*
X128369671Y-144755883D01*
X128353607Y-144773607D01*
X128335883Y-144789671D01*
X128316670Y-144803921D01*
X128296153Y-144816218D01*
X128274529Y-144826446D01*
X128252007Y-144834504D01*
X128228803Y-144840316D01*
X128205142Y-144843826D01*
X128181250Y-144845000D01*
X127693750Y-144845000D01*
X127669858Y-144843826D01*
X127646197Y-144840316D01*
X127622993Y-144834504D01*
X127600471Y-144826446D01*
X127578847Y-144816218D01*
X127558330Y-144803921D01*
X127539117Y-144789671D01*
X127521393Y-144773607D01*
X127505329Y-144755883D01*
X127491079Y-144736670D01*
X127478782Y-144716153D01*
X127468554Y-144694529D01*
X127460496Y-144672007D01*
X127454684Y-144648803D01*
X127451174Y-144625142D01*
X127450000Y-144601250D01*
X127450000Y-143688750D01*
X127451174Y-143664858D01*
X127454684Y-143641197D01*
X127460496Y-143617993D01*
X127468554Y-143595471D01*
X127478782Y-143573847D01*
X127491079Y-143553330D01*
X127505329Y-143534117D01*
X127521393Y-143516393D01*
X127539117Y-143500329D01*
X127558330Y-143486079D01*
X127578847Y-143473782D01*
X127600471Y-143463554D01*
X127622993Y-143455496D01*
X127646197Y-143449684D01*
X127669858Y-143446174D01*
X127693750Y-143445000D01*
X128181250Y-143445000D01*
X128205142Y-143446174D01*
G37*
G36*
X126330142Y-143446174D02*
G01*
X126353803Y-143449684D01*
X126377007Y-143455496D01*
X126399529Y-143463554D01*
X126421153Y-143473782D01*
X126441670Y-143486079D01*
X126460883Y-143500329D01*
X126478607Y-143516393D01*
X126494671Y-143534117D01*
X126508921Y-143553330D01*
X126521218Y-143573847D01*
X126531446Y-143595471D01*
X126539504Y-143617993D01*
X126545316Y-143641197D01*
X126548826Y-143664858D01*
X126550000Y-143688750D01*
X126550000Y-144601250D01*
X126548826Y-144625142D01*
X126545316Y-144648803D01*
X126539504Y-144672007D01*
X126531446Y-144694529D01*
X126521218Y-144716153D01*
X126508921Y-144736670D01*
X126494671Y-144755883D01*
X126478607Y-144773607D01*
X126460883Y-144789671D01*
X126441670Y-144803921D01*
X126421153Y-144816218D01*
X126399529Y-144826446D01*
X126377007Y-144834504D01*
X126353803Y-144840316D01*
X126330142Y-144843826D01*
X126306250Y-144845000D01*
X125818750Y-144845000D01*
X125794858Y-144843826D01*
X125771197Y-144840316D01*
X125747993Y-144834504D01*
X125725471Y-144826446D01*
X125703847Y-144816218D01*
X125683330Y-144803921D01*
X125664117Y-144789671D01*
X125646393Y-144773607D01*
X125630329Y-144755883D01*
X125616079Y-144736670D01*
X125603782Y-144716153D01*
X125593554Y-144694529D01*
X125585496Y-144672007D01*
X125579684Y-144648803D01*
X125576174Y-144625142D01*
X125575000Y-144601250D01*
X125575000Y-143688750D01*
X125576174Y-143664858D01*
X125579684Y-143641197D01*
X125585496Y-143617993D01*
X125593554Y-143595471D01*
X125603782Y-143573847D01*
X125616079Y-143553330D01*
X125630329Y-143534117D01*
X125646393Y-143516393D01*
X125664117Y-143500329D01*
X125683330Y-143486079D01*
X125703847Y-143473782D01*
X125725471Y-143463554D01*
X125747993Y-143455496D01*
X125771197Y-143449684D01*
X125794858Y-143446174D01*
X125818750Y-143445000D01*
X126306250Y-143445000D01*
X126330142Y-143446174D01*
G37*
G36*
X133285142Y-142811174D02*
G01*
X133308803Y-142814684D01*
X133332007Y-142820496D01*
X133354529Y-142828554D01*
X133376153Y-142838782D01*
X133396670Y-142851079D01*
X133415883Y-142865329D01*
X133433607Y-142881393D01*
X133449671Y-142899117D01*
X133463921Y-142918330D01*
X133476218Y-142938847D01*
X133486446Y-142960471D01*
X133494504Y-142982993D01*
X133500316Y-143006197D01*
X133503826Y-143029858D01*
X133505000Y-143053750D01*
X133505000Y-143966250D01*
X133503826Y-143990142D01*
X133500316Y-144013803D01*
X133494504Y-144037007D01*
X133486446Y-144059529D01*
X133476218Y-144081153D01*
X133463921Y-144101670D01*
X133449671Y-144120883D01*
X133433607Y-144138607D01*
X133415883Y-144154671D01*
X133396670Y-144168921D01*
X133376153Y-144181218D01*
X133354529Y-144191446D01*
X133332007Y-144199504D01*
X133308803Y-144205316D01*
X133285142Y-144208826D01*
X133261250Y-144210000D01*
X132773750Y-144210000D01*
X132749858Y-144208826D01*
X132726197Y-144205316D01*
X132702993Y-144199504D01*
X132680471Y-144191446D01*
X132658847Y-144181218D01*
X132638330Y-144168921D01*
X132619117Y-144154671D01*
X132601393Y-144138607D01*
X132585329Y-144120883D01*
X132571079Y-144101670D01*
X132558782Y-144081153D01*
X132548554Y-144059529D01*
X132540496Y-144037007D01*
X132534684Y-144013803D01*
X132531174Y-143990142D01*
X132530000Y-143966250D01*
X132530000Y-143053750D01*
X132531174Y-143029858D01*
X132534684Y-143006197D01*
X132540496Y-142982993D01*
X132548554Y-142960471D01*
X132558782Y-142938847D01*
X132571079Y-142918330D01*
X132585329Y-142899117D01*
X132601393Y-142881393D01*
X132619117Y-142865329D01*
X132638330Y-142851079D01*
X132658847Y-142838782D01*
X132680471Y-142828554D01*
X132702993Y-142820496D01*
X132726197Y-142814684D01*
X132749858Y-142811174D01*
X132773750Y-142810000D01*
X133261250Y-142810000D01*
X133285142Y-142811174D01*
G37*
G36*
X131410142Y-142811174D02*
G01*
X131433803Y-142814684D01*
X131457007Y-142820496D01*
X131479529Y-142828554D01*
X131501153Y-142838782D01*
X131521670Y-142851079D01*
X131540883Y-142865329D01*
X131558607Y-142881393D01*
X131574671Y-142899117D01*
X131588921Y-142918330D01*
X131601218Y-142938847D01*
X131611446Y-142960471D01*
X131619504Y-142982993D01*
X131625316Y-143006197D01*
X131628826Y-143029858D01*
X131630000Y-143053750D01*
X131630000Y-143966250D01*
X131628826Y-143990142D01*
X131625316Y-144013803D01*
X131619504Y-144037007D01*
X131611446Y-144059529D01*
X131601218Y-144081153D01*
X131588921Y-144101670D01*
X131574671Y-144120883D01*
X131558607Y-144138607D01*
X131540883Y-144154671D01*
X131521670Y-144168921D01*
X131501153Y-144181218D01*
X131479529Y-144191446D01*
X131457007Y-144199504D01*
X131433803Y-144205316D01*
X131410142Y-144208826D01*
X131386250Y-144210000D01*
X130898750Y-144210000D01*
X130874858Y-144208826D01*
X130851197Y-144205316D01*
X130827993Y-144199504D01*
X130805471Y-144191446D01*
X130783847Y-144181218D01*
X130763330Y-144168921D01*
X130744117Y-144154671D01*
X130726393Y-144138607D01*
X130710329Y-144120883D01*
X130696079Y-144101670D01*
X130683782Y-144081153D01*
X130673554Y-144059529D01*
X130665496Y-144037007D01*
X130659684Y-144013803D01*
X130656174Y-143990142D01*
X130655000Y-143966250D01*
X130655000Y-143053750D01*
X130656174Y-143029858D01*
X130659684Y-143006197D01*
X130665496Y-142982993D01*
X130673554Y-142960471D01*
X130683782Y-142938847D01*
X130696079Y-142918330D01*
X130710329Y-142899117D01*
X130726393Y-142881393D01*
X130744117Y-142865329D01*
X130763330Y-142851079D01*
X130783847Y-142838782D01*
X130805471Y-142828554D01*
X130827993Y-142820496D01*
X130851197Y-142814684D01*
X130874858Y-142811174D01*
X130898750Y-142810000D01*
X131386250Y-142810000D01*
X131410142Y-142811174D01*
G37*
G36*
X163160142Y-147891174D02*
G01*
X163183803Y-147894684D01*
X163207007Y-147900496D01*
X163229529Y-147908554D01*
X163251153Y-147918782D01*
X163271670Y-147931079D01*
X163290883Y-147945329D01*
X163308607Y-147961393D01*
X163324671Y-147979117D01*
X163338921Y-147998330D01*
X163351218Y-148018847D01*
X163361446Y-148040471D01*
X163369504Y-148062993D01*
X163375316Y-148086197D01*
X163378826Y-148109858D01*
X163380000Y-148133750D01*
X163380000Y-149046250D01*
X163378826Y-149070142D01*
X163375316Y-149093803D01*
X163369504Y-149117007D01*
X163361446Y-149139529D01*
X163351218Y-149161153D01*
X163338921Y-149181670D01*
X163324671Y-149200883D01*
X163308607Y-149218607D01*
X163290883Y-149234671D01*
X163271670Y-149248921D01*
X163251153Y-149261218D01*
X163229529Y-149271446D01*
X163207007Y-149279504D01*
X163183803Y-149285316D01*
X163160142Y-149288826D01*
X163136250Y-149290000D01*
X162648750Y-149290000D01*
X162624858Y-149288826D01*
X162601197Y-149285316D01*
X162577993Y-149279504D01*
X162555471Y-149271446D01*
X162533847Y-149261218D01*
X162513330Y-149248921D01*
X162494117Y-149234671D01*
X162476393Y-149218607D01*
X162460329Y-149200883D01*
X162446079Y-149181670D01*
X162433782Y-149161153D01*
X162423554Y-149139529D01*
X162415496Y-149117007D01*
X162409684Y-149093803D01*
X162406174Y-149070142D01*
X162405000Y-149046250D01*
X162405000Y-148133750D01*
X162406174Y-148109858D01*
X162409684Y-148086197D01*
X162415496Y-148062993D01*
X162423554Y-148040471D01*
X162433782Y-148018847D01*
X162446079Y-147998330D01*
X162460329Y-147979117D01*
X162476393Y-147961393D01*
X162494117Y-147945329D01*
X162513330Y-147931079D01*
X162533847Y-147918782D01*
X162555471Y-147908554D01*
X162577993Y-147900496D01*
X162601197Y-147894684D01*
X162624858Y-147891174D01*
X162648750Y-147890000D01*
X163136250Y-147890000D01*
X163160142Y-147891174D01*
G37*
G36*
X165035142Y-147891174D02*
G01*
X165058803Y-147894684D01*
X165082007Y-147900496D01*
X165104529Y-147908554D01*
X165126153Y-147918782D01*
X165146670Y-147931079D01*
X165165883Y-147945329D01*
X165183607Y-147961393D01*
X165199671Y-147979117D01*
X165213921Y-147998330D01*
X165226218Y-148018847D01*
X165236446Y-148040471D01*
X165244504Y-148062993D01*
X165250316Y-148086197D01*
X165253826Y-148109858D01*
X165255000Y-148133750D01*
X165255000Y-149046250D01*
X165253826Y-149070142D01*
X165250316Y-149093803D01*
X165244504Y-149117007D01*
X165236446Y-149139529D01*
X165226218Y-149161153D01*
X165213921Y-149181670D01*
X165199671Y-149200883D01*
X165183607Y-149218607D01*
X165165883Y-149234671D01*
X165146670Y-149248921D01*
X165126153Y-149261218D01*
X165104529Y-149271446D01*
X165082007Y-149279504D01*
X165058803Y-149285316D01*
X165035142Y-149288826D01*
X165011250Y-149290000D01*
X164523750Y-149290000D01*
X164499858Y-149288826D01*
X164476197Y-149285316D01*
X164452993Y-149279504D01*
X164430471Y-149271446D01*
X164408847Y-149261218D01*
X164388330Y-149248921D01*
X164369117Y-149234671D01*
X164351393Y-149218607D01*
X164335329Y-149200883D01*
X164321079Y-149181670D01*
X164308782Y-149161153D01*
X164298554Y-149139529D01*
X164290496Y-149117007D01*
X164284684Y-149093803D01*
X164281174Y-149070142D01*
X164280000Y-149046250D01*
X164280000Y-148133750D01*
X164281174Y-148109858D01*
X164284684Y-148086197D01*
X164290496Y-148062993D01*
X164298554Y-148040471D01*
X164308782Y-148018847D01*
X164321079Y-147998330D01*
X164335329Y-147979117D01*
X164351393Y-147961393D01*
X164369117Y-147945329D01*
X164388330Y-147931079D01*
X164408847Y-147918782D01*
X164430471Y-147908554D01*
X164452993Y-147900496D01*
X164476197Y-147894684D01*
X164499858Y-147891174D01*
X164523750Y-147890000D01*
X165011250Y-147890000D01*
X165035142Y-147891174D01*
G37*
G36*
X164310142Y-138881174D02*
G01*
X164333803Y-138884684D01*
X164357007Y-138890496D01*
X164379529Y-138898554D01*
X164401153Y-138908782D01*
X164421670Y-138921079D01*
X164440883Y-138935329D01*
X164458607Y-138951393D01*
X164474671Y-138969117D01*
X164488921Y-138988330D01*
X164501218Y-139008847D01*
X164511446Y-139030471D01*
X164519504Y-139052993D01*
X164525316Y-139076197D01*
X164528826Y-139099858D01*
X164530000Y-139123750D01*
X164530000Y-139611250D01*
X164528826Y-139635142D01*
X164525316Y-139658803D01*
X164519504Y-139682007D01*
X164511446Y-139704529D01*
X164501218Y-139726153D01*
X164488921Y-139746670D01*
X164474671Y-139765883D01*
X164458607Y-139783607D01*
X164440883Y-139799671D01*
X164421670Y-139813921D01*
X164401153Y-139826218D01*
X164379529Y-139836446D01*
X164357007Y-139844504D01*
X164333803Y-139850316D01*
X164310142Y-139853826D01*
X164286250Y-139855000D01*
X163373750Y-139855000D01*
X163349858Y-139853826D01*
X163326197Y-139850316D01*
X163302993Y-139844504D01*
X163280471Y-139836446D01*
X163258847Y-139826218D01*
X163238330Y-139813921D01*
X163219117Y-139799671D01*
X163201393Y-139783607D01*
X163185329Y-139765883D01*
X163171079Y-139746670D01*
X163158782Y-139726153D01*
X163148554Y-139704529D01*
X163140496Y-139682007D01*
X163134684Y-139658803D01*
X163131174Y-139635142D01*
X163130000Y-139611250D01*
X163130000Y-139123750D01*
X163131174Y-139099858D01*
X163134684Y-139076197D01*
X163140496Y-139052993D01*
X163148554Y-139030471D01*
X163158782Y-139008847D01*
X163171079Y-138988330D01*
X163185329Y-138969117D01*
X163201393Y-138951393D01*
X163219117Y-138935329D01*
X163238330Y-138921079D01*
X163258847Y-138908782D01*
X163280471Y-138898554D01*
X163302993Y-138890496D01*
X163326197Y-138884684D01*
X163349858Y-138881174D01*
X163373750Y-138880000D01*
X164286250Y-138880000D01*
X164310142Y-138881174D01*
G37*
G36*
X164310142Y-137006174D02*
G01*
X164333803Y-137009684D01*
X164357007Y-137015496D01*
X164379529Y-137023554D01*
X164401153Y-137033782D01*
X164421670Y-137046079D01*
X164440883Y-137060329D01*
X164458607Y-137076393D01*
X164474671Y-137094117D01*
X164488921Y-137113330D01*
X164501218Y-137133847D01*
X164511446Y-137155471D01*
X164519504Y-137177993D01*
X164525316Y-137201197D01*
X164528826Y-137224858D01*
X164530000Y-137248750D01*
X164530000Y-137736250D01*
X164528826Y-137760142D01*
X164525316Y-137783803D01*
X164519504Y-137807007D01*
X164511446Y-137829529D01*
X164501218Y-137851153D01*
X164488921Y-137871670D01*
X164474671Y-137890883D01*
X164458607Y-137908607D01*
X164440883Y-137924671D01*
X164421670Y-137938921D01*
X164401153Y-137951218D01*
X164379529Y-137961446D01*
X164357007Y-137969504D01*
X164333803Y-137975316D01*
X164310142Y-137978826D01*
X164286250Y-137980000D01*
X163373750Y-137980000D01*
X163349858Y-137978826D01*
X163326197Y-137975316D01*
X163302993Y-137969504D01*
X163280471Y-137961446D01*
X163258847Y-137951218D01*
X163238330Y-137938921D01*
X163219117Y-137924671D01*
X163201393Y-137908607D01*
X163185329Y-137890883D01*
X163171079Y-137871670D01*
X163158782Y-137851153D01*
X163148554Y-137829529D01*
X163140496Y-137807007D01*
X163134684Y-137783803D01*
X163131174Y-137760142D01*
X163130000Y-137736250D01*
X163130000Y-137248750D01*
X163131174Y-137224858D01*
X163134684Y-137201197D01*
X163140496Y-137177993D01*
X163148554Y-137155471D01*
X163158782Y-137133847D01*
X163171079Y-137113330D01*
X163185329Y-137094117D01*
X163201393Y-137076393D01*
X163219117Y-137060329D01*
X163238330Y-137046079D01*
X163258847Y-137033782D01*
X163280471Y-137023554D01*
X163302993Y-137015496D01*
X163326197Y-137009684D01*
X163349858Y-137006174D01*
X163373750Y-137005000D01*
X164286250Y-137005000D01*
X164310142Y-137006174D01*
G37*
G36*
X164310142Y-133196174D02*
G01*
X164333803Y-133199684D01*
X164357007Y-133205496D01*
X164379529Y-133213554D01*
X164401153Y-133223782D01*
X164421670Y-133236079D01*
X164440883Y-133250329D01*
X164458607Y-133266393D01*
X164474671Y-133284117D01*
X164488921Y-133303330D01*
X164501218Y-133323847D01*
X164511446Y-133345471D01*
X164519504Y-133367993D01*
X164525316Y-133391197D01*
X164528826Y-133414858D01*
X164530000Y-133438750D01*
X164530000Y-133926250D01*
X164528826Y-133950142D01*
X164525316Y-133973803D01*
X164519504Y-133997007D01*
X164511446Y-134019529D01*
X164501218Y-134041153D01*
X164488921Y-134061670D01*
X164474671Y-134080883D01*
X164458607Y-134098607D01*
X164440883Y-134114671D01*
X164421670Y-134128921D01*
X164401153Y-134141218D01*
X164379529Y-134151446D01*
X164357007Y-134159504D01*
X164333803Y-134165316D01*
X164310142Y-134168826D01*
X164286250Y-134170000D01*
X163373750Y-134170000D01*
X163349858Y-134168826D01*
X163326197Y-134165316D01*
X163302993Y-134159504D01*
X163280471Y-134151446D01*
X163258847Y-134141218D01*
X163238330Y-134128921D01*
X163219117Y-134114671D01*
X163201393Y-134098607D01*
X163185329Y-134080883D01*
X163171079Y-134061670D01*
X163158782Y-134041153D01*
X163148554Y-134019529D01*
X163140496Y-133997007D01*
X163134684Y-133973803D01*
X163131174Y-133950142D01*
X163130000Y-133926250D01*
X163130000Y-133438750D01*
X163131174Y-133414858D01*
X163134684Y-133391197D01*
X163140496Y-133367993D01*
X163148554Y-133345471D01*
X163158782Y-133323847D01*
X163171079Y-133303330D01*
X163185329Y-133284117D01*
X163201393Y-133266393D01*
X163219117Y-133250329D01*
X163238330Y-133236079D01*
X163258847Y-133223782D01*
X163280471Y-133213554D01*
X163302993Y-133205496D01*
X163326197Y-133199684D01*
X163349858Y-133196174D01*
X163373750Y-133195000D01*
X164286250Y-133195000D01*
X164310142Y-133196174D01*
G37*
G36*
X164310142Y-135071174D02*
G01*
X164333803Y-135074684D01*
X164357007Y-135080496D01*
X164379529Y-135088554D01*
X164401153Y-135098782D01*
X164421670Y-135111079D01*
X164440883Y-135125329D01*
X164458607Y-135141393D01*
X164474671Y-135159117D01*
X164488921Y-135178330D01*
X164501218Y-135198847D01*
X164511446Y-135220471D01*
X164519504Y-135242993D01*
X164525316Y-135266197D01*
X164528826Y-135289858D01*
X164530000Y-135313750D01*
X164530000Y-135801250D01*
X164528826Y-135825142D01*
X164525316Y-135848803D01*
X164519504Y-135872007D01*
X164511446Y-135894529D01*
X164501218Y-135916153D01*
X164488921Y-135936670D01*
X164474671Y-135955883D01*
X164458607Y-135973607D01*
X164440883Y-135989671D01*
X164421670Y-136003921D01*
X164401153Y-136016218D01*
X164379529Y-136026446D01*
X164357007Y-136034504D01*
X164333803Y-136040316D01*
X164310142Y-136043826D01*
X164286250Y-136045000D01*
X163373750Y-136045000D01*
X163349858Y-136043826D01*
X163326197Y-136040316D01*
X163302993Y-136034504D01*
X163280471Y-136026446D01*
X163258847Y-136016218D01*
X163238330Y-136003921D01*
X163219117Y-135989671D01*
X163201393Y-135973607D01*
X163185329Y-135955883D01*
X163171079Y-135936670D01*
X163158782Y-135916153D01*
X163148554Y-135894529D01*
X163140496Y-135872007D01*
X163134684Y-135848803D01*
X163131174Y-135825142D01*
X163130000Y-135801250D01*
X163130000Y-135313750D01*
X163131174Y-135289858D01*
X163134684Y-135266197D01*
X163140496Y-135242993D01*
X163148554Y-135220471D01*
X163158782Y-135198847D01*
X163171079Y-135178330D01*
X163185329Y-135159117D01*
X163201393Y-135141393D01*
X163219117Y-135125329D01*
X163238330Y-135111079D01*
X163258847Y-135098782D01*
X163280471Y-135088554D01*
X163302993Y-135080496D01*
X163326197Y-135074684D01*
X163349858Y-135071174D01*
X163373750Y-135070000D01*
X164286250Y-135070000D01*
X164310142Y-135071174D01*
G37*
M02*
