G04 #@! TF.GenerationSoftware,KiCad,Pcbnew,5.1.5+dfsg1-2build2*
G04 #@! TF.CreationDate,2021-11-11T11:20:40+00:00*
G04 #@! TF.ProjectId,PIDController,50494443-6f6e-4747-926f-6c6c65722e6b,rev?*
G04 #@! TF.SameCoordinates,Original*
G04 #@! TF.FileFunction,Soldermask,Bot*
G04 #@! TF.FilePolarity,Negative*
%FSLAX46Y46*%
G04 Gerber Fmt 4.6, Leading zero omitted, Abs format (unit mm)*
G04 Created by KiCad (PCBNEW 5.1.5+dfsg1-2build2) date 2021-11-11 11:20:40*
%MOMM*%
%LPD*%
G04 APERTURE LIST*
%ADD10C,0.100000*%
G04 APERTURE END LIST*
D10*
G36*
X183890256Y-150791298D02*
G01*
X183996579Y-150812447D01*
X184297042Y-150936903D01*
X184567451Y-151117585D01*
X184797415Y-151347549D01*
X184868324Y-151453672D01*
X184978098Y-151617960D01*
X185102553Y-151918422D01*
X185162705Y-152220822D01*
X185166000Y-152237391D01*
X185166000Y-152562609D01*
X185102553Y-152881579D01*
X184978097Y-153182042D01*
X184797415Y-153452451D01*
X184567451Y-153682415D01*
X184297042Y-153863097D01*
X183996579Y-153987553D01*
X183890256Y-154008702D01*
X183677611Y-154051000D01*
X183352389Y-154051000D01*
X183139744Y-154008702D01*
X183033421Y-153987553D01*
X182732958Y-153863097D01*
X182462549Y-153682415D01*
X182232585Y-153452451D01*
X182051903Y-153182042D01*
X181927447Y-152881579D01*
X181864000Y-152562609D01*
X181864000Y-152237391D01*
X181867296Y-152220822D01*
X181927447Y-151918422D01*
X182051902Y-151617960D01*
X182161676Y-151453672D01*
X182232585Y-151347549D01*
X182462549Y-151117585D01*
X182732958Y-150936903D01*
X183033421Y-150812447D01*
X183139744Y-150791298D01*
X183352389Y-150749000D01*
X183677611Y-150749000D01*
X183890256Y-150791298D01*
G37*
G36*
X117215256Y-150791298D02*
G01*
X117321579Y-150812447D01*
X117622042Y-150936903D01*
X117892451Y-151117585D01*
X118122415Y-151347549D01*
X118193324Y-151453672D01*
X118303098Y-151617960D01*
X118427553Y-151918422D01*
X118487705Y-152220822D01*
X118491000Y-152237391D01*
X118491000Y-152562609D01*
X118427553Y-152881579D01*
X118303097Y-153182042D01*
X118122415Y-153452451D01*
X117892451Y-153682415D01*
X117622042Y-153863097D01*
X117321579Y-153987553D01*
X117215256Y-154008702D01*
X117002611Y-154051000D01*
X116677389Y-154051000D01*
X116464744Y-154008702D01*
X116358421Y-153987553D01*
X116057958Y-153863097D01*
X115787549Y-153682415D01*
X115557585Y-153452451D01*
X115376903Y-153182042D01*
X115252447Y-152881579D01*
X115189000Y-152562609D01*
X115189000Y-152237391D01*
X115192296Y-152220822D01*
X115252447Y-151918422D01*
X115376902Y-151617960D01*
X115486676Y-151453672D01*
X115557585Y-151347549D01*
X115787549Y-151117585D01*
X116057958Y-150936903D01*
X116358421Y-150812447D01*
X116464744Y-150791298D01*
X116677389Y-150749000D01*
X117002611Y-150749000D01*
X117215256Y-150791298D01*
G37*
G36*
X143680997Y-150680342D02*
G01*
X143765666Y-150697183D01*
X143831738Y-150724551D01*
X143925177Y-150763255D01*
X144068736Y-150859178D01*
X144190822Y-150981264D01*
X144286745Y-151124823D01*
X144352817Y-151284335D01*
X144386500Y-151453671D01*
X144386500Y-151626329D01*
X144352817Y-151795665D01*
X144286745Y-151955177D01*
X144190822Y-152098736D01*
X144068736Y-152220822D01*
X143925177Y-152316745D01*
X143831738Y-152355449D01*
X143765666Y-152382817D01*
X143680997Y-152399658D01*
X143596329Y-152416500D01*
X143423671Y-152416500D01*
X143339003Y-152399658D01*
X143254334Y-152382817D01*
X143188262Y-152355449D01*
X143094823Y-152316745D01*
X142951264Y-152220822D01*
X142829178Y-152098736D01*
X142733255Y-151955177D01*
X142667183Y-151795665D01*
X142633500Y-151626329D01*
X142633500Y-151453671D01*
X142667183Y-151284335D01*
X142733255Y-151124823D01*
X142829178Y-150981264D01*
X142951264Y-150859178D01*
X143094823Y-150763255D01*
X143188262Y-150724551D01*
X143254334Y-150697183D01*
X143339003Y-150680342D01*
X143423671Y-150663500D01*
X143596329Y-150663500D01*
X143680997Y-150680342D01*
G37*
G36*
X158920997Y-150680342D02*
G01*
X159005666Y-150697183D01*
X159071738Y-150724551D01*
X159165177Y-150763255D01*
X159308736Y-150859178D01*
X159430822Y-150981264D01*
X159526745Y-151124823D01*
X159592817Y-151284335D01*
X159626500Y-151453671D01*
X159626500Y-151626329D01*
X159592817Y-151795665D01*
X159526745Y-151955177D01*
X159430822Y-152098736D01*
X159308736Y-152220822D01*
X159165177Y-152316745D01*
X159071738Y-152355449D01*
X159005666Y-152382817D01*
X158920997Y-152399658D01*
X158836329Y-152416500D01*
X158663671Y-152416500D01*
X158579003Y-152399658D01*
X158494334Y-152382817D01*
X158428262Y-152355449D01*
X158334823Y-152316745D01*
X158191264Y-152220822D01*
X158069178Y-152098736D01*
X157973255Y-151955177D01*
X157907183Y-151795665D01*
X157873500Y-151626329D01*
X157873500Y-151453671D01*
X157907183Y-151284335D01*
X157973255Y-151124823D01*
X158069178Y-150981264D01*
X158191264Y-150859178D01*
X158334823Y-150763255D01*
X158428262Y-150724551D01*
X158494334Y-150697183D01*
X158579003Y-150680342D01*
X158663671Y-150663500D01*
X158836329Y-150663500D01*
X158920997Y-150680342D01*
G37*
G36*
X125843512Y-148963927D02*
G01*
X125992812Y-148993624D01*
X126156784Y-149061544D01*
X126304354Y-149160147D01*
X126429853Y-149285646D01*
X126528456Y-149433216D01*
X126596376Y-149597188D01*
X126631000Y-149771259D01*
X126631000Y-149948741D01*
X126596376Y-150122812D01*
X126528456Y-150286784D01*
X126429853Y-150434354D01*
X126304354Y-150559853D01*
X126156784Y-150658456D01*
X125992812Y-150726376D01*
X125843512Y-150756073D01*
X125818742Y-150761000D01*
X125641258Y-150761000D01*
X125616488Y-150756073D01*
X125467188Y-150726376D01*
X125303216Y-150658456D01*
X125155646Y-150559853D01*
X125030147Y-150434354D01*
X124931544Y-150286784D01*
X124863624Y-150122812D01*
X124829000Y-149948741D01*
X124829000Y-149771259D01*
X124863624Y-149597188D01*
X124931544Y-149433216D01*
X125030147Y-149285646D01*
X125155646Y-149160147D01*
X125303216Y-149061544D01*
X125467188Y-148993624D01*
X125616488Y-148963927D01*
X125641258Y-148959000D01*
X125818742Y-148959000D01*
X125843512Y-148963927D01*
G37*
G36*
X128383512Y-148963927D02*
G01*
X128532812Y-148993624D01*
X128696784Y-149061544D01*
X128844354Y-149160147D01*
X128969853Y-149285646D01*
X129068456Y-149433216D01*
X129136376Y-149597188D01*
X129171000Y-149771259D01*
X129171000Y-149948741D01*
X129136376Y-150122812D01*
X129068456Y-150286784D01*
X128969853Y-150434354D01*
X128844354Y-150559853D01*
X128696784Y-150658456D01*
X128532812Y-150726376D01*
X128383512Y-150756073D01*
X128358742Y-150761000D01*
X128181258Y-150761000D01*
X128156488Y-150756073D01*
X128007188Y-150726376D01*
X127843216Y-150658456D01*
X127695646Y-150559853D01*
X127570147Y-150434354D01*
X127471544Y-150286784D01*
X127403624Y-150122812D01*
X127369000Y-149948741D01*
X127369000Y-149771259D01*
X127403624Y-149597188D01*
X127471544Y-149433216D01*
X127570147Y-149285646D01*
X127695646Y-149160147D01*
X127843216Y-149061544D01*
X128007188Y-148993624D01*
X128156488Y-148963927D01*
X128181258Y-148959000D01*
X128358742Y-148959000D01*
X128383512Y-148963927D01*
G37*
G36*
X130923512Y-148963927D02*
G01*
X131072812Y-148993624D01*
X131236784Y-149061544D01*
X131384354Y-149160147D01*
X131509853Y-149285646D01*
X131608456Y-149433216D01*
X131676376Y-149597188D01*
X131711000Y-149771259D01*
X131711000Y-149948741D01*
X131676376Y-150122812D01*
X131608456Y-150286784D01*
X131509853Y-150434354D01*
X131384354Y-150559853D01*
X131236784Y-150658456D01*
X131072812Y-150726376D01*
X130923512Y-150756073D01*
X130898742Y-150761000D01*
X130721258Y-150761000D01*
X130696488Y-150756073D01*
X130547188Y-150726376D01*
X130383216Y-150658456D01*
X130235646Y-150559853D01*
X130110147Y-150434354D01*
X130011544Y-150286784D01*
X129943624Y-150122812D01*
X129909000Y-149948741D01*
X129909000Y-149771259D01*
X129943624Y-149597188D01*
X130011544Y-149433216D01*
X130110147Y-149285646D01*
X130235646Y-149160147D01*
X130383216Y-149061544D01*
X130547188Y-148993624D01*
X130696488Y-148963927D01*
X130721258Y-148959000D01*
X130898742Y-148959000D01*
X130923512Y-148963927D01*
G37*
G36*
X133463512Y-148963927D02*
G01*
X133612812Y-148993624D01*
X133776784Y-149061544D01*
X133924354Y-149160147D01*
X134049853Y-149285646D01*
X134148456Y-149433216D01*
X134216376Y-149597188D01*
X134251000Y-149771259D01*
X134251000Y-149948741D01*
X134216376Y-150122812D01*
X134148456Y-150286784D01*
X134049853Y-150434354D01*
X133924354Y-150559853D01*
X133776784Y-150658456D01*
X133612812Y-150726376D01*
X133463512Y-150756073D01*
X133438742Y-150761000D01*
X133261258Y-150761000D01*
X133236488Y-150756073D01*
X133087188Y-150726376D01*
X132923216Y-150658456D01*
X132775646Y-150559853D01*
X132650147Y-150434354D01*
X132551544Y-150286784D01*
X132483624Y-150122812D01*
X132449000Y-149948741D01*
X132449000Y-149771259D01*
X132483624Y-149597188D01*
X132551544Y-149433216D01*
X132650147Y-149285646D01*
X132775646Y-149160147D01*
X132923216Y-149061544D01*
X133087188Y-148993624D01*
X133236488Y-148963927D01*
X133261258Y-148959000D01*
X133438742Y-148959000D01*
X133463512Y-148963927D01*
G37*
G36*
X136003512Y-148963927D02*
G01*
X136152812Y-148993624D01*
X136316784Y-149061544D01*
X136464354Y-149160147D01*
X136589853Y-149285646D01*
X136688456Y-149433216D01*
X136756376Y-149597188D01*
X136791000Y-149771259D01*
X136791000Y-149948741D01*
X136756376Y-150122812D01*
X136688456Y-150286784D01*
X136589853Y-150434354D01*
X136464354Y-150559853D01*
X136316784Y-150658456D01*
X136152812Y-150726376D01*
X136003512Y-150756073D01*
X135978742Y-150761000D01*
X135801258Y-150761000D01*
X135776488Y-150756073D01*
X135627188Y-150726376D01*
X135463216Y-150658456D01*
X135315646Y-150559853D01*
X135190147Y-150434354D01*
X135091544Y-150286784D01*
X135023624Y-150122812D01*
X134989000Y-149948741D01*
X134989000Y-149771259D01*
X135023624Y-149597188D01*
X135091544Y-149433216D01*
X135190147Y-149285646D01*
X135315646Y-149160147D01*
X135463216Y-149061544D01*
X135627188Y-148993624D01*
X135776488Y-148963927D01*
X135801258Y-148959000D01*
X135978742Y-148959000D01*
X136003512Y-148963927D01*
G37*
G36*
X171081000Y-150761000D02*
G01*
X169279000Y-150761000D01*
X169279000Y-148959000D01*
X171081000Y-148959000D01*
X171081000Y-150761000D01*
G37*
G36*
X172833512Y-148963927D02*
G01*
X172982812Y-148993624D01*
X173146784Y-149061544D01*
X173294354Y-149160147D01*
X173419853Y-149285646D01*
X173518456Y-149433216D01*
X173586376Y-149597188D01*
X173621000Y-149771259D01*
X173621000Y-149948741D01*
X173586376Y-150122812D01*
X173518456Y-150286784D01*
X173419853Y-150434354D01*
X173294354Y-150559853D01*
X173146784Y-150658456D01*
X172982812Y-150726376D01*
X172833512Y-150756073D01*
X172808742Y-150761000D01*
X172631258Y-150761000D01*
X172606488Y-150756073D01*
X172457188Y-150726376D01*
X172293216Y-150658456D01*
X172145646Y-150559853D01*
X172020147Y-150434354D01*
X171921544Y-150286784D01*
X171853624Y-150122812D01*
X171819000Y-149948741D01*
X171819000Y-149771259D01*
X171853624Y-149597188D01*
X171921544Y-149433216D01*
X172020147Y-149285646D01*
X172145646Y-149160147D01*
X172293216Y-149061544D01*
X172457188Y-148993624D01*
X172606488Y-148963927D01*
X172631258Y-148959000D01*
X172808742Y-148959000D01*
X172833512Y-148963927D01*
G37*
G36*
X160472394Y-148200934D02*
G01*
X160623624Y-148263576D01*
X160623626Y-148263577D01*
X160759732Y-148354520D01*
X160875480Y-148470268D01*
X160966423Y-148606374D01*
X160966424Y-148606376D01*
X161029066Y-148757606D01*
X161061000Y-148918152D01*
X161061000Y-149081848D01*
X161029066Y-149242394D01*
X160966424Y-149393624D01*
X160966423Y-149393626D01*
X160875480Y-149529732D01*
X160759732Y-149645480D01*
X160623626Y-149736423D01*
X160623625Y-149736424D01*
X160623624Y-149736424D01*
X160472394Y-149799066D01*
X160311848Y-149831000D01*
X160148152Y-149831000D01*
X159987606Y-149799066D01*
X159836376Y-149736424D01*
X159836375Y-149736424D01*
X159836374Y-149736423D01*
X159700268Y-149645480D01*
X159584520Y-149529732D01*
X159493577Y-149393626D01*
X159493576Y-149393624D01*
X159430934Y-149242394D01*
X159399000Y-149081848D01*
X159399000Y-148918152D01*
X159430934Y-148757606D01*
X159493576Y-148606376D01*
X159493577Y-148606374D01*
X159584520Y-148470268D01*
X159700268Y-148354520D01*
X159836374Y-148263577D01*
X159836376Y-148263576D01*
X159987606Y-148200934D01*
X160148152Y-148169000D01*
X160311848Y-148169000D01*
X160472394Y-148200934D01*
G37*
G36*
X142272394Y-148200934D02*
G01*
X142423624Y-148263576D01*
X142423626Y-148263577D01*
X142559732Y-148354520D01*
X142675480Y-148470268D01*
X142766423Y-148606374D01*
X142766424Y-148606376D01*
X142829066Y-148757606D01*
X142861000Y-148918152D01*
X142861000Y-149081848D01*
X142829066Y-149242394D01*
X142766424Y-149393624D01*
X142766423Y-149393626D01*
X142675480Y-149529732D01*
X142559732Y-149645480D01*
X142423626Y-149736423D01*
X142423625Y-149736424D01*
X142423624Y-149736424D01*
X142272394Y-149799066D01*
X142111848Y-149831000D01*
X141948152Y-149831000D01*
X141787606Y-149799066D01*
X141636376Y-149736424D01*
X141636375Y-149736424D01*
X141636374Y-149736423D01*
X141500268Y-149645480D01*
X141384520Y-149529732D01*
X141293577Y-149393626D01*
X141293576Y-149393624D01*
X141230934Y-149242394D01*
X141199000Y-149081848D01*
X141199000Y-148918152D01*
X141230934Y-148757606D01*
X141293576Y-148606376D01*
X141293577Y-148606374D01*
X141384520Y-148470268D01*
X141500268Y-148354520D01*
X141636374Y-148263577D01*
X141636376Y-148263576D01*
X141787606Y-148200934D01*
X141948152Y-148169000D01*
X142111848Y-148169000D01*
X142272394Y-148200934D01*
G37*
G36*
X126631000Y-148221000D02*
G01*
X124829000Y-148221000D01*
X124829000Y-146419000D01*
X126631000Y-146419000D01*
X126631000Y-148221000D01*
G37*
G36*
X170293512Y-146423927D02*
G01*
X170442812Y-146453624D01*
X170606784Y-146521544D01*
X170754354Y-146620147D01*
X170879853Y-146745646D01*
X170978456Y-146893216D01*
X171046376Y-147057188D01*
X171081000Y-147231259D01*
X171081000Y-147408741D01*
X171046376Y-147582812D01*
X170978456Y-147746784D01*
X170879853Y-147894354D01*
X170754354Y-148019853D01*
X170606784Y-148118456D01*
X170442812Y-148186376D01*
X170293512Y-148216073D01*
X170268742Y-148221000D01*
X170091258Y-148221000D01*
X170066488Y-148216073D01*
X169917188Y-148186376D01*
X169753216Y-148118456D01*
X169605646Y-148019853D01*
X169480147Y-147894354D01*
X169381544Y-147746784D01*
X169313624Y-147582812D01*
X169279000Y-147408741D01*
X169279000Y-147231259D01*
X169313624Y-147057188D01*
X169381544Y-146893216D01*
X169480147Y-146745646D01*
X169605646Y-146620147D01*
X169753216Y-146521544D01*
X169917188Y-146453624D01*
X170066488Y-146423927D01*
X170091258Y-146419000D01*
X170268742Y-146419000D01*
X170293512Y-146423927D01*
G37*
G36*
X172833512Y-146423927D02*
G01*
X172982812Y-146453624D01*
X173146784Y-146521544D01*
X173294354Y-146620147D01*
X173419853Y-146745646D01*
X173518456Y-146893216D01*
X173586376Y-147057188D01*
X173621000Y-147231259D01*
X173621000Y-147408741D01*
X173586376Y-147582812D01*
X173518456Y-147746784D01*
X173419853Y-147894354D01*
X173294354Y-148019853D01*
X173146784Y-148118456D01*
X172982812Y-148186376D01*
X172833512Y-148216073D01*
X172808742Y-148221000D01*
X172631258Y-148221000D01*
X172606488Y-148216073D01*
X172457188Y-148186376D01*
X172293216Y-148118456D01*
X172145646Y-148019853D01*
X172020147Y-147894354D01*
X171921544Y-147746784D01*
X171853624Y-147582812D01*
X171819000Y-147408741D01*
X171819000Y-147231259D01*
X171853624Y-147057188D01*
X171921544Y-146893216D01*
X172020147Y-146745646D01*
X172145646Y-146620147D01*
X172293216Y-146521544D01*
X172457188Y-146453624D01*
X172606488Y-146423927D01*
X172631258Y-146419000D01*
X172808742Y-146419000D01*
X172833512Y-146423927D01*
G37*
G36*
X136003512Y-146423927D02*
G01*
X136152812Y-146453624D01*
X136316784Y-146521544D01*
X136464354Y-146620147D01*
X136589853Y-146745646D01*
X136688456Y-146893216D01*
X136756376Y-147057188D01*
X136791000Y-147231259D01*
X136791000Y-147408741D01*
X136756376Y-147582812D01*
X136688456Y-147746784D01*
X136589853Y-147894354D01*
X136464354Y-148019853D01*
X136316784Y-148118456D01*
X136152812Y-148186376D01*
X136003512Y-148216073D01*
X135978742Y-148221000D01*
X135801258Y-148221000D01*
X135776488Y-148216073D01*
X135627188Y-148186376D01*
X135463216Y-148118456D01*
X135315646Y-148019853D01*
X135190147Y-147894354D01*
X135091544Y-147746784D01*
X135023624Y-147582812D01*
X134989000Y-147408741D01*
X134989000Y-147231259D01*
X135023624Y-147057188D01*
X135091544Y-146893216D01*
X135190147Y-146745646D01*
X135315646Y-146620147D01*
X135463216Y-146521544D01*
X135627188Y-146453624D01*
X135776488Y-146423927D01*
X135801258Y-146419000D01*
X135978742Y-146419000D01*
X136003512Y-146423927D01*
G37*
G36*
X133463512Y-146423927D02*
G01*
X133612812Y-146453624D01*
X133776784Y-146521544D01*
X133924354Y-146620147D01*
X134049853Y-146745646D01*
X134148456Y-146893216D01*
X134216376Y-147057188D01*
X134251000Y-147231259D01*
X134251000Y-147408741D01*
X134216376Y-147582812D01*
X134148456Y-147746784D01*
X134049853Y-147894354D01*
X133924354Y-148019853D01*
X133776784Y-148118456D01*
X133612812Y-148186376D01*
X133463512Y-148216073D01*
X133438742Y-148221000D01*
X133261258Y-148221000D01*
X133236488Y-148216073D01*
X133087188Y-148186376D01*
X132923216Y-148118456D01*
X132775646Y-148019853D01*
X132650147Y-147894354D01*
X132551544Y-147746784D01*
X132483624Y-147582812D01*
X132449000Y-147408741D01*
X132449000Y-147231259D01*
X132483624Y-147057188D01*
X132551544Y-146893216D01*
X132650147Y-146745646D01*
X132775646Y-146620147D01*
X132923216Y-146521544D01*
X133087188Y-146453624D01*
X133236488Y-146423927D01*
X133261258Y-146419000D01*
X133438742Y-146419000D01*
X133463512Y-146423927D01*
G37*
G36*
X128383512Y-146423927D02*
G01*
X128532812Y-146453624D01*
X128696784Y-146521544D01*
X128844354Y-146620147D01*
X128969853Y-146745646D01*
X129068456Y-146893216D01*
X129136376Y-147057188D01*
X129171000Y-147231259D01*
X129171000Y-147408741D01*
X129136376Y-147582812D01*
X129068456Y-147746784D01*
X128969853Y-147894354D01*
X128844354Y-148019853D01*
X128696784Y-148118456D01*
X128532812Y-148186376D01*
X128383512Y-148216073D01*
X128358742Y-148221000D01*
X128181258Y-148221000D01*
X128156488Y-148216073D01*
X128007188Y-148186376D01*
X127843216Y-148118456D01*
X127695646Y-148019853D01*
X127570147Y-147894354D01*
X127471544Y-147746784D01*
X127403624Y-147582812D01*
X127369000Y-147408741D01*
X127369000Y-147231259D01*
X127403624Y-147057188D01*
X127471544Y-146893216D01*
X127570147Y-146745646D01*
X127695646Y-146620147D01*
X127843216Y-146521544D01*
X128007188Y-146453624D01*
X128156488Y-146423927D01*
X128181258Y-146419000D01*
X128358742Y-146419000D01*
X128383512Y-146423927D01*
G37*
G36*
X130923512Y-146423927D02*
G01*
X131072812Y-146453624D01*
X131236784Y-146521544D01*
X131384354Y-146620147D01*
X131509853Y-146745646D01*
X131608456Y-146893216D01*
X131676376Y-147057188D01*
X131711000Y-147231259D01*
X131711000Y-147408741D01*
X131676376Y-147582812D01*
X131608456Y-147746784D01*
X131509853Y-147894354D01*
X131384354Y-148019853D01*
X131236784Y-148118456D01*
X131072812Y-148186376D01*
X130923512Y-148216073D01*
X130898742Y-148221000D01*
X130721258Y-148221000D01*
X130696488Y-148216073D01*
X130547188Y-148186376D01*
X130383216Y-148118456D01*
X130235646Y-148019853D01*
X130110147Y-147894354D01*
X130011544Y-147746784D01*
X129943624Y-147582812D01*
X129909000Y-147408741D01*
X129909000Y-147231259D01*
X129943624Y-147057188D01*
X130011544Y-146893216D01*
X130110147Y-146745646D01*
X130235646Y-146620147D01*
X130383216Y-146521544D01*
X130547188Y-146453624D01*
X130696488Y-146423927D01*
X130721258Y-146419000D01*
X130898742Y-146419000D01*
X130923512Y-146423927D01*
G37*
G36*
X142272394Y-145660934D02*
G01*
X142423624Y-145723576D01*
X142423626Y-145723577D01*
X142559732Y-145814520D01*
X142675480Y-145930268D01*
X142766423Y-146066374D01*
X142766424Y-146066376D01*
X142829066Y-146217606D01*
X142861000Y-146378152D01*
X142861000Y-146541848D01*
X142829066Y-146702394D01*
X142766424Y-146853624D01*
X142766423Y-146853626D01*
X142675480Y-146989732D01*
X142559732Y-147105480D01*
X142423626Y-147196423D01*
X142423625Y-147196424D01*
X142423624Y-147196424D01*
X142272394Y-147259066D01*
X142111848Y-147291000D01*
X141948152Y-147291000D01*
X141787606Y-147259066D01*
X141636376Y-147196424D01*
X141636375Y-147196424D01*
X141636374Y-147196423D01*
X141500268Y-147105480D01*
X141384520Y-146989732D01*
X141293577Y-146853626D01*
X141293576Y-146853624D01*
X141230934Y-146702394D01*
X141199000Y-146541848D01*
X141199000Y-146378152D01*
X141230934Y-146217606D01*
X141293576Y-146066376D01*
X141293577Y-146066374D01*
X141384520Y-145930268D01*
X141500268Y-145814520D01*
X141636374Y-145723577D01*
X141636376Y-145723576D01*
X141787606Y-145660934D01*
X141948152Y-145629000D01*
X142111848Y-145629000D01*
X142272394Y-145660934D01*
G37*
G36*
X160472394Y-145660934D02*
G01*
X160623624Y-145723576D01*
X160623626Y-145723577D01*
X160759732Y-145814520D01*
X160875480Y-145930268D01*
X160966423Y-146066374D01*
X160966424Y-146066376D01*
X161029066Y-146217606D01*
X161061000Y-146378152D01*
X161061000Y-146541848D01*
X161029066Y-146702394D01*
X160966424Y-146853624D01*
X160966423Y-146853626D01*
X160875480Y-146989732D01*
X160759732Y-147105480D01*
X160623626Y-147196423D01*
X160623625Y-147196424D01*
X160623624Y-147196424D01*
X160472394Y-147259066D01*
X160311848Y-147291000D01*
X160148152Y-147291000D01*
X159987606Y-147259066D01*
X159836376Y-147196424D01*
X159836375Y-147196424D01*
X159836374Y-147196423D01*
X159700268Y-147105480D01*
X159584520Y-146989732D01*
X159493577Y-146853626D01*
X159493576Y-146853624D01*
X159430934Y-146702394D01*
X159399000Y-146541848D01*
X159399000Y-146378152D01*
X159430934Y-146217606D01*
X159493576Y-146066376D01*
X159493577Y-146066374D01*
X159584520Y-145930268D01*
X159700268Y-145814520D01*
X159836374Y-145723577D01*
X159836376Y-145723576D01*
X159987606Y-145660934D01*
X160148152Y-145629000D01*
X160311848Y-145629000D01*
X160472394Y-145660934D01*
G37*
G36*
X170293512Y-143883927D02*
G01*
X170442812Y-143913624D01*
X170606784Y-143981544D01*
X170754354Y-144080147D01*
X170879853Y-144205646D01*
X170978456Y-144353216D01*
X171046376Y-144517188D01*
X171081000Y-144691259D01*
X171081000Y-144868741D01*
X171046376Y-145042812D01*
X170978456Y-145206784D01*
X170879853Y-145354354D01*
X170754354Y-145479853D01*
X170606784Y-145578456D01*
X170442812Y-145646376D01*
X170293512Y-145676073D01*
X170268742Y-145681000D01*
X170091258Y-145681000D01*
X170066488Y-145676073D01*
X169917188Y-145646376D01*
X169753216Y-145578456D01*
X169605646Y-145479853D01*
X169480147Y-145354354D01*
X169381544Y-145206784D01*
X169313624Y-145042812D01*
X169279000Y-144868741D01*
X169279000Y-144691259D01*
X169313624Y-144517188D01*
X169381544Y-144353216D01*
X169480147Y-144205646D01*
X169605646Y-144080147D01*
X169753216Y-143981544D01*
X169917188Y-143913624D01*
X170066488Y-143883927D01*
X170091258Y-143879000D01*
X170268742Y-143879000D01*
X170293512Y-143883927D01*
G37*
G36*
X172833512Y-143883927D02*
G01*
X172982812Y-143913624D01*
X173146784Y-143981544D01*
X173294354Y-144080147D01*
X173419853Y-144205646D01*
X173518456Y-144353216D01*
X173586376Y-144517188D01*
X173621000Y-144691259D01*
X173621000Y-144868741D01*
X173586376Y-145042812D01*
X173518456Y-145206784D01*
X173419853Y-145354354D01*
X173294354Y-145479853D01*
X173146784Y-145578456D01*
X172982812Y-145646376D01*
X172833512Y-145676073D01*
X172808742Y-145681000D01*
X172631258Y-145681000D01*
X172606488Y-145676073D01*
X172457188Y-145646376D01*
X172293216Y-145578456D01*
X172145646Y-145479853D01*
X172020147Y-145354354D01*
X171921544Y-145206784D01*
X171853624Y-145042812D01*
X171819000Y-144868741D01*
X171819000Y-144691259D01*
X171853624Y-144517188D01*
X171921544Y-144353216D01*
X172020147Y-144205646D01*
X172145646Y-144080147D01*
X172293216Y-143981544D01*
X172457188Y-143913624D01*
X172606488Y-143883927D01*
X172631258Y-143879000D01*
X172808742Y-143879000D01*
X172833512Y-143883927D01*
G37*
G36*
X142272394Y-143120934D02*
G01*
X142423624Y-143183576D01*
X142423626Y-143183577D01*
X142559732Y-143274520D01*
X142675480Y-143390268D01*
X142766423Y-143526374D01*
X142766424Y-143526376D01*
X142829066Y-143677606D01*
X142861000Y-143838152D01*
X142861000Y-144001848D01*
X142829066Y-144162394D01*
X142766424Y-144313624D01*
X142766423Y-144313626D01*
X142675480Y-144449732D01*
X142559732Y-144565480D01*
X142423626Y-144656423D01*
X142423625Y-144656424D01*
X142423624Y-144656424D01*
X142272394Y-144719066D01*
X142111848Y-144751000D01*
X141948152Y-144751000D01*
X141787606Y-144719066D01*
X141636376Y-144656424D01*
X141636375Y-144656424D01*
X141636374Y-144656423D01*
X141500268Y-144565480D01*
X141384520Y-144449732D01*
X141293577Y-144313626D01*
X141293576Y-144313624D01*
X141230934Y-144162394D01*
X141199000Y-144001848D01*
X141199000Y-143838152D01*
X141230934Y-143677606D01*
X141293576Y-143526376D01*
X141293577Y-143526374D01*
X141384520Y-143390268D01*
X141500268Y-143274520D01*
X141636374Y-143183577D01*
X141636376Y-143183576D01*
X141787606Y-143120934D01*
X141948152Y-143089000D01*
X142111848Y-143089000D01*
X142272394Y-143120934D01*
G37*
G36*
X160472394Y-143120934D02*
G01*
X160623624Y-143183576D01*
X160623626Y-143183577D01*
X160759732Y-143274520D01*
X160875480Y-143390268D01*
X160966423Y-143526374D01*
X160966424Y-143526376D01*
X161029066Y-143677606D01*
X161061000Y-143838152D01*
X161061000Y-144001848D01*
X161029066Y-144162394D01*
X160966424Y-144313624D01*
X160966423Y-144313626D01*
X160875480Y-144449732D01*
X160759732Y-144565480D01*
X160623626Y-144656423D01*
X160623625Y-144656424D01*
X160623624Y-144656424D01*
X160472394Y-144719066D01*
X160311848Y-144751000D01*
X160148152Y-144751000D01*
X159987606Y-144719066D01*
X159836376Y-144656424D01*
X159836375Y-144656424D01*
X159836374Y-144656423D01*
X159700268Y-144565480D01*
X159584520Y-144449732D01*
X159493577Y-144313626D01*
X159493576Y-144313624D01*
X159430934Y-144162394D01*
X159399000Y-144001848D01*
X159399000Y-143838152D01*
X159430934Y-143677606D01*
X159493576Y-143526376D01*
X159493577Y-143526374D01*
X159584520Y-143390268D01*
X159700268Y-143274520D01*
X159836374Y-143183577D01*
X159836376Y-143183576D01*
X159987606Y-143120934D01*
X160148152Y-143089000D01*
X160311848Y-143089000D01*
X160472394Y-143120934D01*
G37*
G36*
X160472394Y-140580934D02*
G01*
X160623624Y-140643576D01*
X160623626Y-140643577D01*
X160759732Y-140734520D01*
X160875480Y-140850268D01*
X160966423Y-140986374D01*
X160966424Y-140986376D01*
X161029066Y-141137606D01*
X161061000Y-141298152D01*
X161061000Y-141461848D01*
X161029066Y-141622394D01*
X160966424Y-141773624D01*
X160966423Y-141773626D01*
X160875480Y-141909732D01*
X160759732Y-142025480D01*
X160623626Y-142116423D01*
X160623625Y-142116424D01*
X160623624Y-142116424D01*
X160472394Y-142179066D01*
X160311848Y-142211000D01*
X160148152Y-142211000D01*
X159987606Y-142179066D01*
X159836376Y-142116424D01*
X159836375Y-142116424D01*
X159836374Y-142116423D01*
X159700268Y-142025480D01*
X159584520Y-141909732D01*
X159493577Y-141773626D01*
X159493576Y-141773624D01*
X159430934Y-141622394D01*
X159399000Y-141461848D01*
X159399000Y-141298152D01*
X159430934Y-141137606D01*
X159493576Y-140986376D01*
X159493577Y-140986374D01*
X159584520Y-140850268D01*
X159700268Y-140734520D01*
X159836374Y-140643577D01*
X159836376Y-140643576D01*
X159987606Y-140580934D01*
X160148152Y-140549000D01*
X160311848Y-140549000D01*
X160472394Y-140580934D01*
G37*
G36*
X142272394Y-140580934D02*
G01*
X142423624Y-140643576D01*
X142423626Y-140643577D01*
X142559732Y-140734520D01*
X142675480Y-140850268D01*
X142766423Y-140986374D01*
X142766424Y-140986376D01*
X142829066Y-141137606D01*
X142861000Y-141298152D01*
X142861000Y-141461848D01*
X142829066Y-141622394D01*
X142766424Y-141773624D01*
X142766423Y-141773626D01*
X142675480Y-141909732D01*
X142559732Y-142025480D01*
X142423626Y-142116423D01*
X142423625Y-142116424D01*
X142423624Y-142116424D01*
X142272394Y-142179066D01*
X142111848Y-142211000D01*
X141948152Y-142211000D01*
X141787606Y-142179066D01*
X141636376Y-142116424D01*
X141636375Y-142116424D01*
X141636374Y-142116423D01*
X141500268Y-142025480D01*
X141384520Y-141909732D01*
X141293577Y-141773626D01*
X141293576Y-141773624D01*
X141230934Y-141622394D01*
X141199000Y-141461848D01*
X141199000Y-141298152D01*
X141230934Y-141137606D01*
X141293576Y-140986376D01*
X141293577Y-140986374D01*
X141384520Y-140850268D01*
X141500268Y-140734520D01*
X141636374Y-140643577D01*
X141636376Y-140643576D01*
X141787606Y-140580934D01*
X141948152Y-140549000D01*
X142111848Y-140549000D01*
X142272394Y-140580934D01*
G37*
G36*
X160472394Y-138040934D02*
G01*
X160623624Y-138103576D01*
X160623626Y-138103577D01*
X160759732Y-138194520D01*
X160875480Y-138310268D01*
X160966423Y-138446374D01*
X160966424Y-138446376D01*
X161029066Y-138597606D01*
X161061000Y-138758152D01*
X161061000Y-138921848D01*
X161029066Y-139082394D01*
X160966424Y-139233624D01*
X160966423Y-139233626D01*
X160875480Y-139369732D01*
X160759732Y-139485480D01*
X160623626Y-139576423D01*
X160623625Y-139576424D01*
X160623624Y-139576424D01*
X160472394Y-139639066D01*
X160311848Y-139671000D01*
X160148152Y-139671000D01*
X159987606Y-139639066D01*
X159836376Y-139576424D01*
X159836375Y-139576424D01*
X159836374Y-139576423D01*
X159700268Y-139485480D01*
X159584520Y-139369732D01*
X159493577Y-139233626D01*
X159493576Y-139233624D01*
X159430934Y-139082394D01*
X159399000Y-138921848D01*
X159399000Y-138758152D01*
X159430934Y-138597606D01*
X159493576Y-138446376D01*
X159493577Y-138446374D01*
X159584520Y-138310268D01*
X159700268Y-138194520D01*
X159836374Y-138103577D01*
X159836376Y-138103576D01*
X159987606Y-138040934D01*
X160148152Y-138009000D01*
X160311848Y-138009000D01*
X160472394Y-138040934D01*
G37*
G36*
X142272394Y-138040934D02*
G01*
X142423624Y-138103576D01*
X142423626Y-138103577D01*
X142559732Y-138194520D01*
X142675480Y-138310268D01*
X142766423Y-138446374D01*
X142766424Y-138446376D01*
X142829066Y-138597606D01*
X142861000Y-138758152D01*
X142861000Y-138921848D01*
X142829066Y-139082394D01*
X142766424Y-139233624D01*
X142766423Y-139233626D01*
X142675480Y-139369732D01*
X142559732Y-139485480D01*
X142423626Y-139576423D01*
X142423625Y-139576424D01*
X142423624Y-139576424D01*
X142272394Y-139639066D01*
X142111848Y-139671000D01*
X141948152Y-139671000D01*
X141787606Y-139639066D01*
X141636376Y-139576424D01*
X141636375Y-139576424D01*
X141636374Y-139576423D01*
X141500268Y-139485480D01*
X141384520Y-139369732D01*
X141293577Y-139233626D01*
X141293576Y-139233624D01*
X141230934Y-139082394D01*
X141199000Y-138921848D01*
X141199000Y-138758152D01*
X141230934Y-138597606D01*
X141293576Y-138446376D01*
X141293577Y-138446374D01*
X141384520Y-138310268D01*
X141500268Y-138194520D01*
X141636374Y-138103577D01*
X141636376Y-138103576D01*
X141787606Y-138040934D01*
X141948152Y-138009000D01*
X142111848Y-138009000D01*
X142272394Y-138040934D01*
G37*
G36*
X160472394Y-135500934D02*
G01*
X160623624Y-135563576D01*
X160623626Y-135563577D01*
X160759732Y-135654520D01*
X160875480Y-135770268D01*
X160966423Y-135906374D01*
X160966424Y-135906376D01*
X161029066Y-136057606D01*
X161061000Y-136218152D01*
X161061000Y-136381848D01*
X161029066Y-136542394D01*
X160966424Y-136693624D01*
X160966423Y-136693626D01*
X160875480Y-136829732D01*
X160759732Y-136945480D01*
X160623626Y-137036423D01*
X160623625Y-137036424D01*
X160623624Y-137036424D01*
X160472394Y-137099066D01*
X160311848Y-137131000D01*
X160148152Y-137131000D01*
X159987606Y-137099066D01*
X159836376Y-137036424D01*
X159836375Y-137036424D01*
X159836374Y-137036423D01*
X159700268Y-136945480D01*
X159584520Y-136829732D01*
X159493577Y-136693626D01*
X159493576Y-136693624D01*
X159430934Y-136542394D01*
X159399000Y-136381848D01*
X159399000Y-136218152D01*
X159430934Y-136057606D01*
X159493576Y-135906376D01*
X159493577Y-135906374D01*
X159584520Y-135770268D01*
X159700268Y-135654520D01*
X159836374Y-135563577D01*
X159836376Y-135563576D01*
X159987606Y-135500934D01*
X160148152Y-135469000D01*
X160311848Y-135469000D01*
X160472394Y-135500934D01*
G37*
G36*
X142272394Y-135500934D02*
G01*
X142423624Y-135563576D01*
X142423626Y-135563577D01*
X142559732Y-135654520D01*
X142675480Y-135770268D01*
X142766423Y-135906374D01*
X142766424Y-135906376D01*
X142829066Y-136057606D01*
X142861000Y-136218152D01*
X142861000Y-136381848D01*
X142829066Y-136542394D01*
X142766424Y-136693624D01*
X142766423Y-136693626D01*
X142675480Y-136829732D01*
X142559732Y-136945480D01*
X142423626Y-137036423D01*
X142423625Y-137036424D01*
X142423624Y-137036424D01*
X142272394Y-137099066D01*
X142111848Y-137131000D01*
X141948152Y-137131000D01*
X141787606Y-137099066D01*
X141636376Y-137036424D01*
X141636375Y-137036424D01*
X141636374Y-137036423D01*
X141500268Y-136945480D01*
X141384520Y-136829732D01*
X141293577Y-136693626D01*
X141293576Y-136693624D01*
X141230934Y-136542394D01*
X141199000Y-136381848D01*
X141199000Y-136218152D01*
X141230934Y-136057606D01*
X141293576Y-135906376D01*
X141293577Y-135906374D01*
X141384520Y-135770268D01*
X141500268Y-135654520D01*
X141636374Y-135563577D01*
X141636376Y-135563576D01*
X141787606Y-135500934D01*
X141948152Y-135469000D01*
X142111848Y-135469000D01*
X142272394Y-135500934D01*
G37*
G36*
X142272394Y-132960934D02*
G01*
X142423624Y-133023576D01*
X142423626Y-133023577D01*
X142559732Y-133114520D01*
X142675480Y-133230268D01*
X142766423Y-133366374D01*
X142766424Y-133366376D01*
X142829066Y-133517606D01*
X142861000Y-133678152D01*
X142861000Y-133841848D01*
X142829066Y-134002394D01*
X142766424Y-134153624D01*
X142766423Y-134153626D01*
X142675480Y-134289732D01*
X142559732Y-134405480D01*
X142423626Y-134496423D01*
X142423625Y-134496424D01*
X142423624Y-134496424D01*
X142272394Y-134559066D01*
X142111848Y-134591000D01*
X141948152Y-134591000D01*
X141787606Y-134559066D01*
X141636376Y-134496424D01*
X141636375Y-134496424D01*
X141636374Y-134496423D01*
X141500268Y-134405480D01*
X141384520Y-134289732D01*
X141293577Y-134153626D01*
X141293576Y-134153624D01*
X141230934Y-134002394D01*
X141199000Y-133841848D01*
X141199000Y-133678152D01*
X141230934Y-133517606D01*
X141293576Y-133366376D01*
X141293577Y-133366374D01*
X141384520Y-133230268D01*
X141500268Y-133114520D01*
X141636374Y-133023577D01*
X141636376Y-133023576D01*
X141787606Y-132960934D01*
X141948152Y-132929000D01*
X142111848Y-132929000D01*
X142272394Y-132960934D01*
G37*
G36*
X160472394Y-132960934D02*
G01*
X160623624Y-133023576D01*
X160623626Y-133023577D01*
X160759732Y-133114520D01*
X160875480Y-133230268D01*
X160966423Y-133366374D01*
X160966424Y-133366376D01*
X161029066Y-133517606D01*
X161061000Y-133678152D01*
X161061000Y-133841848D01*
X161029066Y-134002394D01*
X160966424Y-134153624D01*
X160966423Y-134153626D01*
X160875480Y-134289732D01*
X160759732Y-134405480D01*
X160623626Y-134496423D01*
X160623625Y-134496424D01*
X160623624Y-134496424D01*
X160472394Y-134559066D01*
X160311848Y-134591000D01*
X160148152Y-134591000D01*
X159987606Y-134559066D01*
X159836376Y-134496424D01*
X159836375Y-134496424D01*
X159836374Y-134496423D01*
X159700268Y-134405480D01*
X159584520Y-134289732D01*
X159493577Y-134153626D01*
X159493576Y-134153624D01*
X159430934Y-134002394D01*
X159399000Y-133841848D01*
X159399000Y-133678152D01*
X159430934Y-133517606D01*
X159493576Y-133366376D01*
X159493577Y-133366374D01*
X159584520Y-133230268D01*
X159700268Y-133114520D01*
X159836374Y-133023577D01*
X159836376Y-133023576D01*
X159987606Y-132960934D01*
X160148152Y-132929000D01*
X160311848Y-132929000D01*
X160472394Y-132960934D01*
G37*
G36*
X160472394Y-130420934D02*
G01*
X160623624Y-130483576D01*
X160623626Y-130483577D01*
X160759732Y-130574520D01*
X160875480Y-130690268D01*
X160966423Y-130826374D01*
X160966424Y-130826376D01*
X161029066Y-130977606D01*
X161061000Y-131138152D01*
X161061000Y-131301848D01*
X161029066Y-131462394D01*
X160966424Y-131613624D01*
X160966423Y-131613626D01*
X160875480Y-131749732D01*
X160759732Y-131865480D01*
X160623626Y-131956423D01*
X160623625Y-131956424D01*
X160623624Y-131956424D01*
X160472394Y-132019066D01*
X160311848Y-132051000D01*
X160148152Y-132051000D01*
X159987606Y-132019066D01*
X159836376Y-131956424D01*
X159836375Y-131956424D01*
X159836374Y-131956423D01*
X159700268Y-131865480D01*
X159584520Y-131749732D01*
X159493577Y-131613626D01*
X159493576Y-131613624D01*
X159430934Y-131462394D01*
X159399000Y-131301848D01*
X159399000Y-131138152D01*
X159430934Y-130977606D01*
X159493576Y-130826376D01*
X159493577Y-130826374D01*
X159584520Y-130690268D01*
X159700268Y-130574520D01*
X159836374Y-130483577D01*
X159836376Y-130483576D01*
X159987606Y-130420934D01*
X160148152Y-130389000D01*
X160311848Y-130389000D01*
X160472394Y-130420934D01*
G37*
G36*
X142272394Y-130420934D02*
G01*
X142423624Y-130483576D01*
X142423626Y-130483577D01*
X142559732Y-130574520D01*
X142675480Y-130690268D01*
X142766423Y-130826374D01*
X142766424Y-130826376D01*
X142829066Y-130977606D01*
X142861000Y-131138152D01*
X142861000Y-131301848D01*
X142829066Y-131462394D01*
X142766424Y-131613624D01*
X142766423Y-131613626D01*
X142675480Y-131749732D01*
X142559732Y-131865480D01*
X142423626Y-131956423D01*
X142423625Y-131956424D01*
X142423624Y-131956424D01*
X142272394Y-132019066D01*
X142111848Y-132051000D01*
X141948152Y-132051000D01*
X141787606Y-132019066D01*
X141636376Y-131956424D01*
X141636375Y-131956424D01*
X141636374Y-131956423D01*
X141500268Y-131865480D01*
X141384520Y-131749732D01*
X141293577Y-131613626D01*
X141293576Y-131613624D01*
X141230934Y-131462394D01*
X141199000Y-131301848D01*
X141199000Y-131138152D01*
X141230934Y-130977606D01*
X141293576Y-130826376D01*
X141293577Y-130826374D01*
X141384520Y-130690268D01*
X141500268Y-130574520D01*
X141636374Y-130483577D01*
X141636376Y-130483576D01*
X141787606Y-130420934D01*
X141948152Y-130389000D01*
X142111848Y-130389000D01*
X142272394Y-130420934D01*
G37*
G36*
X142272394Y-127880934D02*
G01*
X142423624Y-127943576D01*
X142423626Y-127943577D01*
X142559732Y-128034520D01*
X142675480Y-128150268D01*
X142766423Y-128286374D01*
X142766424Y-128286376D01*
X142829066Y-128437606D01*
X142861000Y-128598152D01*
X142861000Y-128761848D01*
X142829066Y-128922394D01*
X142766424Y-129073624D01*
X142766423Y-129073626D01*
X142675480Y-129209732D01*
X142559732Y-129325480D01*
X142423626Y-129416423D01*
X142423625Y-129416424D01*
X142423624Y-129416424D01*
X142272394Y-129479066D01*
X142111848Y-129511000D01*
X141948152Y-129511000D01*
X141787606Y-129479066D01*
X141636376Y-129416424D01*
X141636375Y-129416424D01*
X141636374Y-129416423D01*
X141500268Y-129325480D01*
X141384520Y-129209732D01*
X141293577Y-129073626D01*
X141293576Y-129073624D01*
X141230934Y-128922394D01*
X141199000Y-128761848D01*
X141199000Y-128598152D01*
X141230934Y-128437606D01*
X141293576Y-128286376D01*
X141293577Y-128286374D01*
X141384520Y-128150268D01*
X141500268Y-128034520D01*
X141636374Y-127943577D01*
X141636376Y-127943576D01*
X141787606Y-127880934D01*
X141948152Y-127849000D01*
X142111848Y-127849000D01*
X142272394Y-127880934D01*
G37*
G36*
X160472394Y-127880934D02*
G01*
X160623624Y-127943576D01*
X160623626Y-127943577D01*
X160759732Y-128034520D01*
X160875480Y-128150268D01*
X160966423Y-128286374D01*
X160966424Y-128286376D01*
X161029066Y-128437606D01*
X161061000Y-128598152D01*
X161061000Y-128761848D01*
X161029066Y-128922394D01*
X160966424Y-129073624D01*
X160966423Y-129073626D01*
X160875480Y-129209732D01*
X160759732Y-129325480D01*
X160623626Y-129416423D01*
X160623625Y-129416424D01*
X160623624Y-129416424D01*
X160472394Y-129479066D01*
X160311848Y-129511000D01*
X160148152Y-129511000D01*
X159987606Y-129479066D01*
X159836376Y-129416424D01*
X159836375Y-129416424D01*
X159836374Y-129416423D01*
X159700268Y-129325480D01*
X159584520Y-129209732D01*
X159493577Y-129073626D01*
X159493576Y-129073624D01*
X159430934Y-128922394D01*
X159399000Y-128761848D01*
X159399000Y-128598152D01*
X159430934Y-128437606D01*
X159493576Y-128286376D01*
X159493577Y-128286374D01*
X159584520Y-128150268D01*
X159700268Y-128034520D01*
X159836374Y-127943577D01*
X159836376Y-127943576D01*
X159987606Y-127880934D01*
X160148152Y-127849000D01*
X160311848Y-127849000D01*
X160472394Y-127880934D01*
G37*
G36*
X160472394Y-125340934D02*
G01*
X160623624Y-125403576D01*
X160623626Y-125403577D01*
X160759732Y-125494520D01*
X160875480Y-125610268D01*
X160966423Y-125746374D01*
X160966424Y-125746376D01*
X161029066Y-125897606D01*
X161061000Y-126058152D01*
X161061000Y-126221848D01*
X161029066Y-126382394D01*
X160966424Y-126533624D01*
X160966423Y-126533626D01*
X160875480Y-126669732D01*
X160759732Y-126785480D01*
X160623626Y-126876423D01*
X160623625Y-126876424D01*
X160623624Y-126876424D01*
X160472394Y-126939066D01*
X160311848Y-126971000D01*
X160148152Y-126971000D01*
X159987606Y-126939066D01*
X159836376Y-126876424D01*
X159836375Y-126876424D01*
X159836374Y-126876423D01*
X159700268Y-126785480D01*
X159584520Y-126669732D01*
X159493577Y-126533626D01*
X159493576Y-126533624D01*
X159430934Y-126382394D01*
X159399000Y-126221848D01*
X159399000Y-126058152D01*
X159430934Y-125897606D01*
X159493576Y-125746376D01*
X159493577Y-125746374D01*
X159584520Y-125610268D01*
X159700268Y-125494520D01*
X159836374Y-125403577D01*
X159836376Y-125403576D01*
X159987606Y-125340934D01*
X160148152Y-125309000D01*
X160311848Y-125309000D01*
X160472394Y-125340934D01*
G37*
G36*
X142272394Y-125340934D02*
G01*
X142423624Y-125403576D01*
X142423626Y-125403577D01*
X142559732Y-125494520D01*
X142675480Y-125610268D01*
X142766423Y-125746374D01*
X142766424Y-125746376D01*
X142829066Y-125897606D01*
X142861000Y-126058152D01*
X142861000Y-126221848D01*
X142829066Y-126382394D01*
X142766424Y-126533624D01*
X142766423Y-126533626D01*
X142675480Y-126669732D01*
X142559732Y-126785480D01*
X142423626Y-126876423D01*
X142423625Y-126876424D01*
X142423624Y-126876424D01*
X142272394Y-126939066D01*
X142111848Y-126971000D01*
X141948152Y-126971000D01*
X141787606Y-126939066D01*
X141636376Y-126876424D01*
X141636375Y-126876424D01*
X141636374Y-126876423D01*
X141500268Y-126785480D01*
X141384520Y-126669732D01*
X141293577Y-126533626D01*
X141293576Y-126533624D01*
X141230934Y-126382394D01*
X141199000Y-126221848D01*
X141199000Y-126058152D01*
X141230934Y-125897606D01*
X141293576Y-125746376D01*
X141293577Y-125746374D01*
X141384520Y-125610268D01*
X141500268Y-125494520D01*
X141636374Y-125403577D01*
X141636376Y-125403576D01*
X141787606Y-125340934D01*
X141948152Y-125309000D01*
X142111848Y-125309000D01*
X142272394Y-125340934D01*
G37*
G36*
X160472394Y-122800934D02*
G01*
X160623624Y-122863576D01*
X160623626Y-122863577D01*
X160759732Y-122954520D01*
X160875480Y-123070268D01*
X160966423Y-123206374D01*
X160966424Y-123206376D01*
X161029066Y-123357606D01*
X161061000Y-123518152D01*
X161061000Y-123681848D01*
X161029066Y-123842394D01*
X160966424Y-123993624D01*
X160966423Y-123993626D01*
X160875480Y-124129732D01*
X160759732Y-124245480D01*
X160623626Y-124336423D01*
X160623625Y-124336424D01*
X160623624Y-124336424D01*
X160472394Y-124399066D01*
X160311848Y-124431000D01*
X160148152Y-124431000D01*
X159987606Y-124399066D01*
X159836376Y-124336424D01*
X159836375Y-124336424D01*
X159836374Y-124336423D01*
X159700268Y-124245480D01*
X159584520Y-124129732D01*
X159493577Y-123993626D01*
X159493576Y-123993624D01*
X159430934Y-123842394D01*
X159399000Y-123681848D01*
X159399000Y-123518152D01*
X159430934Y-123357606D01*
X159493576Y-123206376D01*
X159493577Y-123206374D01*
X159584520Y-123070268D01*
X159700268Y-122954520D01*
X159836374Y-122863577D01*
X159836376Y-122863576D01*
X159987606Y-122800934D01*
X160148152Y-122769000D01*
X160311848Y-122769000D01*
X160472394Y-122800934D01*
G37*
G36*
X142272394Y-122800934D02*
G01*
X142423624Y-122863576D01*
X142423626Y-122863577D01*
X142559732Y-122954520D01*
X142675480Y-123070268D01*
X142766423Y-123206374D01*
X142766424Y-123206376D01*
X142829066Y-123357606D01*
X142861000Y-123518152D01*
X142861000Y-123681848D01*
X142829066Y-123842394D01*
X142766424Y-123993624D01*
X142766423Y-123993626D01*
X142675480Y-124129732D01*
X142559732Y-124245480D01*
X142423626Y-124336423D01*
X142423625Y-124336424D01*
X142423624Y-124336424D01*
X142272394Y-124399066D01*
X142111848Y-124431000D01*
X141948152Y-124431000D01*
X141787606Y-124399066D01*
X141636376Y-124336424D01*
X141636375Y-124336424D01*
X141636374Y-124336423D01*
X141500268Y-124245480D01*
X141384520Y-124129732D01*
X141293577Y-123993626D01*
X141293576Y-123993624D01*
X141230934Y-123842394D01*
X141199000Y-123681848D01*
X141199000Y-123518152D01*
X141230934Y-123357606D01*
X141293576Y-123206376D01*
X141293577Y-123206374D01*
X141384520Y-123070268D01*
X141500268Y-122954520D01*
X141636374Y-122863577D01*
X141636376Y-122863576D01*
X141787606Y-122800934D01*
X141948152Y-122769000D01*
X142111848Y-122769000D01*
X142272394Y-122800934D01*
G37*
G36*
X142272394Y-120260934D02*
G01*
X142423624Y-120323576D01*
X142423626Y-120323577D01*
X142559732Y-120414520D01*
X142675480Y-120530268D01*
X142766423Y-120666374D01*
X142766424Y-120666376D01*
X142829066Y-120817606D01*
X142861000Y-120978152D01*
X142861000Y-121141848D01*
X142829066Y-121302394D01*
X142766424Y-121453624D01*
X142766423Y-121453626D01*
X142675480Y-121589732D01*
X142559732Y-121705480D01*
X142423626Y-121796423D01*
X142423625Y-121796424D01*
X142423624Y-121796424D01*
X142272394Y-121859066D01*
X142111848Y-121891000D01*
X141948152Y-121891000D01*
X141787606Y-121859066D01*
X141636376Y-121796424D01*
X141636375Y-121796424D01*
X141636374Y-121796423D01*
X141500268Y-121705480D01*
X141384520Y-121589732D01*
X141293577Y-121453626D01*
X141293576Y-121453624D01*
X141230934Y-121302394D01*
X141199000Y-121141848D01*
X141199000Y-120978152D01*
X141230934Y-120817606D01*
X141293576Y-120666376D01*
X141293577Y-120666374D01*
X141384520Y-120530268D01*
X141500268Y-120414520D01*
X141636374Y-120323577D01*
X141636376Y-120323576D01*
X141787606Y-120260934D01*
X141948152Y-120229000D01*
X142111848Y-120229000D01*
X142272394Y-120260934D01*
G37*
G36*
X160472394Y-120260934D02*
G01*
X160623624Y-120323576D01*
X160623626Y-120323577D01*
X160759732Y-120414520D01*
X160875480Y-120530268D01*
X160966423Y-120666374D01*
X160966424Y-120666376D01*
X161029066Y-120817606D01*
X161061000Y-120978152D01*
X161061000Y-121141848D01*
X161029066Y-121302394D01*
X160966424Y-121453624D01*
X160966423Y-121453626D01*
X160875480Y-121589732D01*
X160759732Y-121705480D01*
X160623626Y-121796423D01*
X160623625Y-121796424D01*
X160623624Y-121796424D01*
X160472394Y-121859066D01*
X160311848Y-121891000D01*
X160148152Y-121891000D01*
X159987606Y-121859066D01*
X159836376Y-121796424D01*
X159836375Y-121796424D01*
X159836374Y-121796423D01*
X159700268Y-121705480D01*
X159584520Y-121589732D01*
X159493577Y-121453626D01*
X159493576Y-121453624D01*
X159430934Y-121302394D01*
X159399000Y-121141848D01*
X159399000Y-120978152D01*
X159430934Y-120817606D01*
X159493576Y-120666376D01*
X159493577Y-120666374D01*
X159584520Y-120530268D01*
X159700268Y-120414520D01*
X159836374Y-120323577D01*
X159836376Y-120323576D01*
X159987606Y-120260934D01*
X160148152Y-120229000D01*
X160311848Y-120229000D01*
X160472394Y-120260934D01*
G37*
G36*
X142272394Y-117720934D02*
G01*
X142423624Y-117783576D01*
X142423626Y-117783577D01*
X142559732Y-117874520D01*
X142675480Y-117990268D01*
X142766423Y-118126374D01*
X142766424Y-118126376D01*
X142829066Y-118277606D01*
X142861000Y-118438152D01*
X142861000Y-118601848D01*
X142829066Y-118762394D01*
X142766424Y-118913624D01*
X142766423Y-118913626D01*
X142675480Y-119049732D01*
X142559732Y-119165480D01*
X142423626Y-119256423D01*
X142423625Y-119256424D01*
X142423624Y-119256424D01*
X142272394Y-119319066D01*
X142111848Y-119351000D01*
X141948152Y-119351000D01*
X141787606Y-119319066D01*
X141636376Y-119256424D01*
X141636375Y-119256424D01*
X141636374Y-119256423D01*
X141500268Y-119165480D01*
X141384520Y-119049732D01*
X141293577Y-118913626D01*
X141293576Y-118913624D01*
X141230934Y-118762394D01*
X141199000Y-118601848D01*
X141199000Y-118438152D01*
X141230934Y-118277606D01*
X141293576Y-118126376D01*
X141293577Y-118126374D01*
X141384520Y-117990268D01*
X141500268Y-117874520D01*
X141636374Y-117783577D01*
X141636376Y-117783576D01*
X141787606Y-117720934D01*
X141948152Y-117689000D01*
X142111848Y-117689000D01*
X142272394Y-117720934D01*
G37*
G36*
X160472394Y-117720934D02*
G01*
X160623624Y-117783576D01*
X160623626Y-117783577D01*
X160759732Y-117874520D01*
X160875480Y-117990268D01*
X160966423Y-118126374D01*
X160966424Y-118126376D01*
X161029066Y-118277606D01*
X161061000Y-118438152D01*
X161061000Y-118601848D01*
X161029066Y-118762394D01*
X160966424Y-118913624D01*
X160966423Y-118913626D01*
X160875480Y-119049732D01*
X160759732Y-119165480D01*
X160623626Y-119256423D01*
X160623625Y-119256424D01*
X160623624Y-119256424D01*
X160472394Y-119319066D01*
X160311848Y-119351000D01*
X160148152Y-119351000D01*
X159987606Y-119319066D01*
X159836376Y-119256424D01*
X159836375Y-119256424D01*
X159836374Y-119256423D01*
X159700268Y-119165480D01*
X159584520Y-119049732D01*
X159493577Y-118913626D01*
X159493576Y-118913624D01*
X159430934Y-118762394D01*
X159399000Y-118601848D01*
X159399000Y-118438152D01*
X159430934Y-118277606D01*
X159493576Y-118126376D01*
X159493577Y-118126374D01*
X159584520Y-117990268D01*
X159700268Y-117874520D01*
X159836374Y-117783577D01*
X159836376Y-117783576D01*
X159987606Y-117720934D01*
X160148152Y-117689000D01*
X160311848Y-117689000D01*
X160472394Y-117720934D01*
G37*
G36*
X160472394Y-115180934D02*
G01*
X160623624Y-115243576D01*
X160623626Y-115243577D01*
X160759732Y-115334520D01*
X160875480Y-115450268D01*
X160966423Y-115586374D01*
X160966424Y-115586376D01*
X161029066Y-115737606D01*
X161061000Y-115898152D01*
X161061000Y-116061848D01*
X161029066Y-116222394D01*
X160966424Y-116373624D01*
X160966423Y-116373626D01*
X160875480Y-116509732D01*
X160759732Y-116625480D01*
X160623626Y-116716423D01*
X160623625Y-116716424D01*
X160623624Y-116716424D01*
X160472394Y-116779066D01*
X160311848Y-116811000D01*
X160148152Y-116811000D01*
X159987606Y-116779066D01*
X159836376Y-116716424D01*
X159836375Y-116716424D01*
X159836374Y-116716423D01*
X159700268Y-116625480D01*
X159584520Y-116509732D01*
X159493577Y-116373626D01*
X159493576Y-116373624D01*
X159430934Y-116222394D01*
X159399000Y-116061848D01*
X159399000Y-115898152D01*
X159430934Y-115737606D01*
X159493576Y-115586376D01*
X159493577Y-115586374D01*
X159584520Y-115450268D01*
X159700268Y-115334520D01*
X159836374Y-115243577D01*
X159836376Y-115243576D01*
X159987606Y-115180934D01*
X160148152Y-115149000D01*
X160311848Y-115149000D01*
X160472394Y-115180934D01*
G37*
G36*
X142272394Y-115180934D02*
G01*
X142423624Y-115243576D01*
X142423626Y-115243577D01*
X142559732Y-115334520D01*
X142675480Y-115450268D01*
X142766423Y-115586374D01*
X142766424Y-115586376D01*
X142829066Y-115737606D01*
X142861000Y-115898152D01*
X142861000Y-116061848D01*
X142829066Y-116222394D01*
X142766424Y-116373624D01*
X142766423Y-116373626D01*
X142675480Y-116509732D01*
X142559732Y-116625480D01*
X142423626Y-116716423D01*
X142423625Y-116716424D01*
X142423624Y-116716424D01*
X142272394Y-116779066D01*
X142111848Y-116811000D01*
X141948152Y-116811000D01*
X141787606Y-116779066D01*
X141636376Y-116716424D01*
X141636375Y-116716424D01*
X141636374Y-116716423D01*
X141500268Y-116625480D01*
X141384520Y-116509732D01*
X141293577Y-116373626D01*
X141293576Y-116373624D01*
X141230934Y-116222394D01*
X141199000Y-116061848D01*
X141199000Y-115898152D01*
X141230934Y-115737606D01*
X141293576Y-115586376D01*
X141293577Y-115586374D01*
X141384520Y-115450268D01*
X141500268Y-115334520D01*
X141636374Y-115243577D01*
X141636376Y-115243576D01*
X141787606Y-115180934D01*
X141948152Y-115149000D01*
X142111848Y-115149000D01*
X142272394Y-115180934D01*
G37*
G36*
X160472394Y-112640934D02*
G01*
X160623624Y-112703576D01*
X160623626Y-112703577D01*
X160759732Y-112794520D01*
X160875480Y-112910268D01*
X160966423Y-113046374D01*
X160966424Y-113046376D01*
X161029066Y-113197606D01*
X161061000Y-113358152D01*
X161061000Y-113521848D01*
X161029066Y-113682394D01*
X160966424Y-113833624D01*
X160966423Y-113833626D01*
X160875480Y-113969732D01*
X160759732Y-114085480D01*
X160623626Y-114176423D01*
X160623625Y-114176424D01*
X160623624Y-114176424D01*
X160472394Y-114239066D01*
X160311848Y-114271000D01*
X160148152Y-114271000D01*
X159987606Y-114239066D01*
X159836376Y-114176424D01*
X159836375Y-114176424D01*
X159836374Y-114176423D01*
X159700268Y-114085480D01*
X159584520Y-113969732D01*
X159493577Y-113833626D01*
X159493576Y-113833624D01*
X159430934Y-113682394D01*
X159399000Y-113521848D01*
X159399000Y-113358152D01*
X159430934Y-113197606D01*
X159493576Y-113046376D01*
X159493577Y-113046374D01*
X159584520Y-112910268D01*
X159700268Y-112794520D01*
X159836374Y-112703577D01*
X159836376Y-112703576D01*
X159987606Y-112640934D01*
X160148152Y-112609000D01*
X160311848Y-112609000D01*
X160472394Y-112640934D01*
G37*
G36*
X142272394Y-112640934D02*
G01*
X142423624Y-112703576D01*
X142423626Y-112703577D01*
X142559732Y-112794520D01*
X142675480Y-112910268D01*
X142766423Y-113046374D01*
X142766424Y-113046376D01*
X142829066Y-113197606D01*
X142861000Y-113358152D01*
X142861000Y-113521848D01*
X142829066Y-113682394D01*
X142766424Y-113833624D01*
X142766423Y-113833626D01*
X142675480Y-113969732D01*
X142559732Y-114085480D01*
X142423626Y-114176423D01*
X142423625Y-114176424D01*
X142423624Y-114176424D01*
X142272394Y-114239066D01*
X142111848Y-114271000D01*
X141948152Y-114271000D01*
X141787606Y-114239066D01*
X141636376Y-114176424D01*
X141636375Y-114176424D01*
X141636374Y-114176423D01*
X141500268Y-114085480D01*
X141384520Y-113969732D01*
X141293577Y-113833626D01*
X141293576Y-113833624D01*
X141230934Y-113682394D01*
X141199000Y-113521848D01*
X141199000Y-113358152D01*
X141230934Y-113197606D01*
X141293576Y-113046376D01*
X141293577Y-113046374D01*
X141384520Y-112910268D01*
X141500268Y-112794520D01*
X141636374Y-112703577D01*
X141636376Y-112703576D01*
X141787606Y-112640934D01*
X141948152Y-112609000D01*
X142111848Y-112609000D01*
X142272394Y-112640934D01*
G37*
G36*
X158920997Y-110040341D02*
G01*
X159005666Y-110057183D01*
X159071738Y-110084551D01*
X159165177Y-110123255D01*
X159308736Y-110219178D01*
X159430822Y-110341264D01*
X159526745Y-110484823D01*
X159592817Y-110644335D01*
X159626500Y-110813671D01*
X159626500Y-110986329D01*
X159592817Y-111155665D01*
X159526745Y-111315177D01*
X159430822Y-111458736D01*
X159308736Y-111580822D01*
X159165177Y-111676745D01*
X159071738Y-111715449D01*
X159005666Y-111742817D01*
X158920997Y-111759659D01*
X158836329Y-111776500D01*
X158663671Y-111776500D01*
X158579003Y-111759659D01*
X158494334Y-111742817D01*
X158428262Y-111715449D01*
X158334823Y-111676745D01*
X158191264Y-111580822D01*
X158069178Y-111458736D01*
X157973255Y-111315177D01*
X157907183Y-111155665D01*
X157873500Y-110986329D01*
X157873500Y-110813671D01*
X157907183Y-110644335D01*
X157973255Y-110484823D01*
X158069178Y-110341264D01*
X158191264Y-110219178D01*
X158334823Y-110123255D01*
X158428262Y-110084551D01*
X158494334Y-110057183D01*
X158579003Y-110040341D01*
X158663671Y-110023500D01*
X158836329Y-110023500D01*
X158920997Y-110040341D01*
G37*
G36*
X143680997Y-110040341D02*
G01*
X143765666Y-110057183D01*
X143831738Y-110084551D01*
X143925177Y-110123255D01*
X144068736Y-110219178D01*
X144190822Y-110341264D01*
X144286745Y-110484823D01*
X144352817Y-110644335D01*
X144386500Y-110813671D01*
X144386500Y-110986329D01*
X144352817Y-111155665D01*
X144286745Y-111315177D01*
X144190822Y-111458736D01*
X144068736Y-111580822D01*
X143925177Y-111676745D01*
X143831738Y-111715449D01*
X143765666Y-111742817D01*
X143680997Y-111759659D01*
X143596329Y-111776500D01*
X143423671Y-111776500D01*
X143339003Y-111759659D01*
X143254334Y-111742817D01*
X143188262Y-111715449D01*
X143094823Y-111676745D01*
X142951264Y-111580822D01*
X142829178Y-111458736D01*
X142733255Y-111315177D01*
X142667183Y-111155665D01*
X142633500Y-110986329D01*
X142633500Y-110813671D01*
X142667183Y-110644335D01*
X142733255Y-110484823D01*
X142829178Y-110341264D01*
X142951264Y-110219178D01*
X143094823Y-110123255D01*
X143188262Y-110084551D01*
X143254334Y-110057183D01*
X143339003Y-110040341D01*
X143423671Y-110023500D01*
X143596329Y-110023500D01*
X143680997Y-110040341D01*
G37*
G36*
X159248228Y-102051703D02*
G01*
X159403100Y-102115853D01*
X159542481Y-102208985D01*
X159661015Y-102327519D01*
X159754147Y-102466900D01*
X159818297Y-102621772D01*
X159851000Y-102786184D01*
X159851000Y-102953816D01*
X159818297Y-103118228D01*
X159754147Y-103273100D01*
X159661015Y-103412481D01*
X159542481Y-103531015D01*
X159403100Y-103624147D01*
X159248228Y-103688297D01*
X159083816Y-103721000D01*
X158916184Y-103721000D01*
X158751772Y-103688297D01*
X158596900Y-103624147D01*
X158457519Y-103531015D01*
X158338985Y-103412481D01*
X158245853Y-103273100D01*
X158181703Y-103118228D01*
X158149000Y-102953816D01*
X158149000Y-102786184D01*
X158181703Y-102621772D01*
X158245853Y-102466900D01*
X158338985Y-102327519D01*
X158457519Y-102208985D01*
X158596900Y-102115853D01*
X158751772Y-102051703D01*
X158916184Y-102019000D01*
X159083816Y-102019000D01*
X159248228Y-102051703D01*
G37*
G36*
X127248228Y-102051703D02*
G01*
X127403100Y-102115853D01*
X127542481Y-102208985D01*
X127661015Y-102327519D01*
X127754147Y-102466900D01*
X127818297Y-102621772D01*
X127851000Y-102786184D01*
X127851000Y-102953816D01*
X127818297Y-103118228D01*
X127754147Y-103273100D01*
X127661015Y-103412481D01*
X127542481Y-103531015D01*
X127403100Y-103624147D01*
X127248228Y-103688297D01*
X127083816Y-103721000D01*
X126916184Y-103721000D01*
X126751772Y-103688297D01*
X126596900Y-103624147D01*
X126457519Y-103531015D01*
X126338985Y-103412481D01*
X126245853Y-103273100D01*
X126181703Y-103118228D01*
X126149000Y-102953816D01*
X126149000Y-102786184D01*
X126181703Y-102621772D01*
X126245853Y-102466900D01*
X126338985Y-102327519D01*
X126457519Y-102208985D01*
X126596900Y-102115853D01*
X126751772Y-102051703D01*
X126916184Y-102019000D01*
X127083816Y-102019000D01*
X127248228Y-102051703D01*
G37*
G36*
X132328228Y-102051703D02*
G01*
X132483100Y-102115853D01*
X132622481Y-102208985D01*
X132741015Y-102327519D01*
X132834147Y-102466900D01*
X132898297Y-102621772D01*
X132931000Y-102786184D01*
X132931000Y-102953816D01*
X132898297Y-103118228D01*
X132834147Y-103273100D01*
X132741015Y-103412481D01*
X132622481Y-103531015D01*
X132483100Y-103624147D01*
X132328228Y-103688297D01*
X132163816Y-103721000D01*
X131996184Y-103721000D01*
X131831772Y-103688297D01*
X131676900Y-103624147D01*
X131537519Y-103531015D01*
X131418985Y-103412481D01*
X131325853Y-103273100D01*
X131261703Y-103118228D01*
X131229000Y-102953816D01*
X131229000Y-102786184D01*
X131261703Y-102621772D01*
X131325853Y-102466900D01*
X131418985Y-102327519D01*
X131537519Y-102208985D01*
X131676900Y-102115853D01*
X131831772Y-102051703D01*
X131996184Y-102019000D01*
X132163816Y-102019000D01*
X132328228Y-102051703D01*
G37*
G36*
X134868228Y-102051703D02*
G01*
X135023100Y-102115853D01*
X135162481Y-102208985D01*
X135281015Y-102327519D01*
X135374147Y-102466900D01*
X135438297Y-102621772D01*
X135471000Y-102786184D01*
X135471000Y-102953816D01*
X135438297Y-103118228D01*
X135374147Y-103273100D01*
X135281015Y-103412481D01*
X135162481Y-103531015D01*
X135023100Y-103624147D01*
X134868228Y-103688297D01*
X134703816Y-103721000D01*
X134536184Y-103721000D01*
X134371772Y-103688297D01*
X134216900Y-103624147D01*
X134077519Y-103531015D01*
X133958985Y-103412481D01*
X133865853Y-103273100D01*
X133801703Y-103118228D01*
X133769000Y-102953816D01*
X133769000Y-102786184D01*
X133801703Y-102621772D01*
X133865853Y-102466900D01*
X133958985Y-102327519D01*
X134077519Y-102208985D01*
X134216900Y-102115853D01*
X134371772Y-102051703D01*
X134536184Y-102019000D01*
X134703816Y-102019000D01*
X134868228Y-102051703D01*
G37*
G36*
X137408228Y-102051703D02*
G01*
X137563100Y-102115853D01*
X137702481Y-102208985D01*
X137821015Y-102327519D01*
X137914147Y-102466900D01*
X137978297Y-102621772D01*
X138011000Y-102786184D01*
X138011000Y-102953816D01*
X137978297Y-103118228D01*
X137914147Y-103273100D01*
X137821015Y-103412481D01*
X137702481Y-103531015D01*
X137563100Y-103624147D01*
X137408228Y-103688297D01*
X137243816Y-103721000D01*
X137076184Y-103721000D01*
X136911772Y-103688297D01*
X136756900Y-103624147D01*
X136617519Y-103531015D01*
X136498985Y-103412481D01*
X136405853Y-103273100D01*
X136341703Y-103118228D01*
X136309000Y-102953816D01*
X136309000Y-102786184D01*
X136341703Y-102621772D01*
X136405853Y-102466900D01*
X136498985Y-102327519D01*
X136617519Y-102208985D01*
X136756900Y-102115853D01*
X136911772Y-102051703D01*
X137076184Y-102019000D01*
X137243816Y-102019000D01*
X137408228Y-102051703D01*
G37*
G36*
X139948228Y-102051703D02*
G01*
X140103100Y-102115853D01*
X140242481Y-102208985D01*
X140361015Y-102327519D01*
X140454147Y-102466900D01*
X140518297Y-102621772D01*
X140551000Y-102786184D01*
X140551000Y-102953816D01*
X140518297Y-103118228D01*
X140454147Y-103273100D01*
X140361015Y-103412481D01*
X140242481Y-103531015D01*
X140103100Y-103624147D01*
X139948228Y-103688297D01*
X139783816Y-103721000D01*
X139616184Y-103721000D01*
X139451772Y-103688297D01*
X139296900Y-103624147D01*
X139157519Y-103531015D01*
X139038985Y-103412481D01*
X138945853Y-103273100D01*
X138881703Y-103118228D01*
X138849000Y-102953816D01*
X138849000Y-102786184D01*
X138881703Y-102621772D01*
X138945853Y-102466900D01*
X139038985Y-102327519D01*
X139157519Y-102208985D01*
X139296900Y-102115853D01*
X139451772Y-102051703D01*
X139616184Y-102019000D01*
X139783816Y-102019000D01*
X139948228Y-102051703D01*
G37*
G36*
X144008228Y-102051703D02*
G01*
X144163100Y-102115853D01*
X144302481Y-102208985D01*
X144421015Y-102327519D01*
X144514147Y-102466900D01*
X144578297Y-102621772D01*
X144611000Y-102786184D01*
X144611000Y-102953816D01*
X144578297Y-103118228D01*
X144514147Y-103273100D01*
X144421015Y-103412481D01*
X144302481Y-103531015D01*
X144163100Y-103624147D01*
X144008228Y-103688297D01*
X143843816Y-103721000D01*
X143676184Y-103721000D01*
X143511772Y-103688297D01*
X143356900Y-103624147D01*
X143217519Y-103531015D01*
X143098985Y-103412481D01*
X143005853Y-103273100D01*
X142941703Y-103118228D01*
X142909000Y-102953816D01*
X142909000Y-102786184D01*
X142941703Y-102621772D01*
X143005853Y-102466900D01*
X143098985Y-102327519D01*
X143217519Y-102208985D01*
X143356900Y-102115853D01*
X143511772Y-102051703D01*
X143676184Y-102019000D01*
X143843816Y-102019000D01*
X144008228Y-102051703D01*
G37*
G36*
X146548228Y-102051703D02*
G01*
X146703100Y-102115853D01*
X146842481Y-102208985D01*
X146961015Y-102327519D01*
X147054147Y-102466900D01*
X147118297Y-102621772D01*
X147151000Y-102786184D01*
X147151000Y-102953816D01*
X147118297Y-103118228D01*
X147054147Y-103273100D01*
X146961015Y-103412481D01*
X146842481Y-103531015D01*
X146703100Y-103624147D01*
X146548228Y-103688297D01*
X146383816Y-103721000D01*
X146216184Y-103721000D01*
X146051772Y-103688297D01*
X145896900Y-103624147D01*
X145757519Y-103531015D01*
X145638985Y-103412481D01*
X145545853Y-103273100D01*
X145481703Y-103118228D01*
X145449000Y-102953816D01*
X145449000Y-102786184D01*
X145481703Y-102621772D01*
X145545853Y-102466900D01*
X145638985Y-102327519D01*
X145757519Y-102208985D01*
X145896900Y-102115853D01*
X146051772Y-102051703D01*
X146216184Y-102019000D01*
X146383816Y-102019000D01*
X146548228Y-102051703D01*
G37*
G36*
X129788228Y-102051703D02*
G01*
X129943100Y-102115853D01*
X130082481Y-102208985D01*
X130201015Y-102327519D01*
X130294147Y-102466900D01*
X130358297Y-102621772D01*
X130391000Y-102786184D01*
X130391000Y-102953816D01*
X130358297Y-103118228D01*
X130294147Y-103273100D01*
X130201015Y-103412481D01*
X130082481Y-103531015D01*
X129943100Y-103624147D01*
X129788228Y-103688297D01*
X129623816Y-103721000D01*
X129456184Y-103721000D01*
X129291772Y-103688297D01*
X129136900Y-103624147D01*
X128997519Y-103531015D01*
X128878985Y-103412481D01*
X128785853Y-103273100D01*
X128721703Y-103118228D01*
X128689000Y-102953816D01*
X128689000Y-102786184D01*
X128721703Y-102621772D01*
X128785853Y-102466900D01*
X128878985Y-102327519D01*
X128997519Y-102208985D01*
X129136900Y-102115853D01*
X129291772Y-102051703D01*
X129456184Y-102019000D01*
X129623816Y-102019000D01*
X129788228Y-102051703D01*
G37*
G36*
X151628228Y-102051703D02*
G01*
X151783100Y-102115853D01*
X151922481Y-102208985D01*
X152041015Y-102327519D01*
X152134147Y-102466900D01*
X152198297Y-102621772D01*
X152231000Y-102786184D01*
X152231000Y-102953816D01*
X152198297Y-103118228D01*
X152134147Y-103273100D01*
X152041015Y-103412481D01*
X151922481Y-103531015D01*
X151783100Y-103624147D01*
X151628228Y-103688297D01*
X151463816Y-103721000D01*
X151296184Y-103721000D01*
X151131772Y-103688297D01*
X150976900Y-103624147D01*
X150837519Y-103531015D01*
X150718985Y-103412481D01*
X150625853Y-103273100D01*
X150561703Y-103118228D01*
X150529000Y-102953816D01*
X150529000Y-102786184D01*
X150561703Y-102621772D01*
X150625853Y-102466900D01*
X150718985Y-102327519D01*
X150837519Y-102208985D01*
X150976900Y-102115853D01*
X151131772Y-102051703D01*
X151296184Y-102019000D01*
X151463816Y-102019000D01*
X151628228Y-102051703D01*
G37*
G36*
X154168228Y-102051703D02*
G01*
X154323100Y-102115853D01*
X154462481Y-102208985D01*
X154581015Y-102327519D01*
X154674147Y-102466900D01*
X154738297Y-102621772D01*
X154771000Y-102786184D01*
X154771000Y-102953816D01*
X154738297Y-103118228D01*
X154674147Y-103273100D01*
X154581015Y-103412481D01*
X154462481Y-103531015D01*
X154323100Y-103624147D01*
X154168228Y-103688297D01*
X154003816Y-103721000D01*
X153836184Y-103721000D01*
X153671772Y-103688297D01*
X153516900Y-103624147D01*
X153377519Y-103531015D01*
X153258985Y-103412481D01*
X153165853Y-103273100D01*
X153101703Y-103118228D01*
X153069000Y-102953816D01*
X153069000Y-102786184D01*
X153101703Y-102621772D01*
X153165853Y-102466900D01*
X153258985Y-102327519D01*
X153377519Y-102208985D01*
X153516900Y-102115853D01*
X153671772Y-102051703D01*
X153836184Y-102019000D01*
X154003816Y-102019000D01*
X154168228Y-102051703D01*
G37*
G36*
X156708228Y-102051703D02*
G01*
X156863100Y-102115853D01*
X157002481Y-102208985D01*
X157121015Y-102327519D01*
X157214147Y-102466900D01*
X157278297Y-102621772D01*
X157311000Y-102786184D01*
X157311000Y-102953816D01*
X157278297Y-103118228D01*
X157214147Y-103273100D01*
X157121015Y-103412481D01*
X157002481Y-103531015D01*
X156863100Y-103624147D01*
X156708228Y-103688297D01*
X156543816Y-103721000D01*
X156376184Y-103721000D01*
X156211772Y-103688297D01*
X156056900Y-103624147D01*
X155917519Y-103531015D01*
X155798985Y-103412481D01*
X155705853Y-103273100D01*
X155641703Y-103118228D01*
X155609000Y-102953816D01*
X155609000Y-102786184D01*
X155641703Y-102621772D01*
X155705853Y-102466900D01*
X155798985Y-102327519D01*
X155917519Y-102208985D01*
X156056900Y-102115853D01*
X156211772Y-102051703D01*
X156376184Y-102019000D01*
X156543816Y-102019000D01*
X156708228Y-102051703D01*
G37*
G36*
X161788228Y-102051703D02*
G01*
X161943100Y-102115853D01*
X162082481Y-102208985D01*
X162201015Y-102327519D01*
X162294147Y-102466900D01*
X162358297Y-102621772D01*
X162391000Y-102786184D01*
X162391000Y-102953816D01*
X162358297Y-103118228D01*
X162294147Y-103273100D01*
X162201015Y-103412481D01*
X162082481Y-103531015D01*
X161943100Y-103624147D01*
X161788228Y-103688297D01*
X161623816Y-103721000D01*
X161456184Y-103721000D01*
X161291772Y-103688297D01*
X161136900Y-103624147D01*
X160997519Y-103531015D01*
X160878985Y-103412481D01*
X160785853Y-103273100D01*
X160721703Y-103118228D01*
X160689000Y-102953816D01*
X160689000Y-102786184D01*
X160721703Y-102621772D01*
X160785853Y-102466900D01*
X160878985Y-102327519D01*
X160997519Y-102208985D01*
X161136900Y-102115853D01*
X161291772Y-102051703D01*
X161456184Y-102019000D01*
X161623816Y-102019000D01*
X161788228Y-102051703D01*
G37*
G36*
X164328228Y-102051703D02*
G01*
X164483100Y-102115853D01*
X164622481Y-102208985D01*
X164741015Y-102327519D01*
X164834147Y-102466900D01*
X164898297Y-102621772D01*
X164931000Y-102786184D01*
X164931000Y-102953816D01*
X164898297Y-103118228D01*
X164834147Y-103273100D01*
X164741015Y-103412481D01*
X164622481Y-103531015D01*
X164483100Y-103624147D01*
X164328228Y-103688297D01*
X164163816Y-103721000D01*
X163996184Y-103721000D01*
X163831772Y-103688297D01*
X163676900Y-103624147D01*
X163537519Y-103531015D01*
X163418985Y-103412481D01*
X163325853Y-103273100D01*
X163261703Y-103118228D01*
X163229000Y-102953816D01*
X163229000Y-102786184D01*
X163261703Y-102621772D01*
X163325853Y-102466900D01*
X163418985Y-102327519D01*
X163537519Y-102208985D01*
X163676900Y-102115853D01*
X163831772Y-102051703D01*
X163996184Y-102019000D01*
X164163816Y-102019000D01*
X164328228Y-102051703D01*
G37*
G36*
X166868228Y-102051703D02*
G01*
X167023100Y-102115853D01*
X167162481Y-102208985D01*
X167281015Y-102327519D01*
X167374147Y-102466900D01*
X167438297Y-102621772D01*
X167471000Y-102786184D01*
X167471000Y-102953816D01*
X167438297Y-103118228D01*
X167374147Y-103273100D01*
X167281015Y-103412481D01*
X167162481Y-103531015D01*
X167023100Y-103624147D01*
X166868228Y-103688297D01*
X166703816Y-103721000D01*
X166536184Y-103721000D01*
X166371772Y-103688297D01*
X166216900Y-103624147D01*
X166077519Y-103531015D01*
X165958985Y-103412481D01*
X165865853Y-103273100D01*
X165801703Y-103118228D01*
X165769000Y-102953816D01*
X165769000Y-102786184D01*
X165801703Y-102621772D01*
X165865853Y-102466900D01*
X165958985Y-102327519D01*
X166077519Y-102208985D01*
X166216900Y-102115853D01*
X166371772Y-102051703D01*
X166536184Y-102019000D01*
X166703816Y-102019000D01*
X166868228Y-102051703D01*
G37*
G36*
X124708228Y-102051703D02*
G01*
X124863100Y-102115853D01*
X125002481Y-102208985D01*
X125121015Y-102327519D01*
X125214147Y-102466900D01*
X125278297Y-102621772D01*
X125311000Y-102786184D01*
X125311000Y-102953816D01*
X125278297Y-103118228D01*
X125214147Y-103273100D01*
X125121015Y-103412481D01*
X125002481Y-103531015D01*
X124863100Y-103624147D01*
X124708228Y-103688297D01*
X124543816Y-103721000D01*
X124376184Y-103721000D01*
X124211772Y-103688297D01*
X124056900Y-103624147D01*
X123917519Y-103531015D01*
X123798985Y-103412481D01*
X123705853Y-103273100D01*
X123641703Y-103118228D01*
X123609000Y-102953816D01*
X123609000Y-102786184D01*
X123641703Y-102621772D01*
X123705853Y-102466900D01*
X123798985Y-102327519D01*
X123917519Y-102208985D01*
X124056900Y-102115853D01*
X124211772Y-102051703D01*
X124376184Y-102019000D01*
X124543816Y-102019000D01*
X124708228Y-102051703D01*
G37*
G36*
X122168228Y-102051703D02*
G01*
X122323100Y-102115853D01*
X122462481Y-102208985D01*
X122581015Y-102327519D01*
X122674147Y-102466900D01*
X122738297Y-102621772D01*
X122771000Y-102786184D01*
X122771000Y-102953816D01*
X122738297Y-103118228D01*
X122674147Y-103273100D01*
X122581015Y-103412481D01*
X122462481Y-103531015D01*
X122323100Y-103624147D01*
X122168228Y-103688297D01*
X122003816Y-103721000D01*
X121836184Y-103721000D01*
X121671772Y-103688297D01*
X121516900Y-103624147D01*
X121377519Y-103531015D01*
X121258985Y-103412481D01*
X121165853Y-103273100D01*
X121101703Y-103118228D01*
X121069000Y-102953816D01*
X121069000Y-102786184D01*
X121101703Y-102621772D01*
X121165853Y-102466900D01*
X121258985Y-102327519D01*
X121377519Y-102208985D01*
X121516900Y-102115853D01*
X121671772Y-102051703D01*
X121836184Y-102019000D01*
X122003816Y-102019000D01*
X122168228Y-102051703D01*
G37*
G36*
X149088228Y-102051703D02*
G01*
X149243100Y-102115853D01*
X149382481Y-102208985D01*
X149501015Y-102327519D01*
X149594147Y-102466900D01*
X149658297Y-102621772D01*
X149691000Y-102786184D01*
X149691000Y-102953816D01*
X149658297Y-103118228D01*
X149594147Y-103273100D01*
X149501015Y-103412481D01*
X149382481Y-103531015D01*
X149243100Y-103624147D01*
X149088228Y-103688297D01*
X148923816Y-103721000D01*
X148756184Y-103721000D01*
X148591772Y-103688297D01*
X148436900Y-103624147D01*
X148297519Y-103531015D01*
X148178985Y-103412481D01*
X148085853Y-103273100D01*
X148021703Y-103118228D01*
X147989000Y-102953816D01*
X147989000Y-102786184D01*
X148021703Y-102621772D01*
X148085853Y-102466900D01*
X148178985Y-102327519D01*
X148297519Y-102208985D01*
X148436900Y-102115853D01*
X148591772Y-102051703D01*
X148756184Y-102019000D01*
X148923816Y-102019000D01*
X149088228Y-102051703D01*
G37*
G36*
X134868228Y-53791703D02*
G01*
X135023100Y-53855853D01*
X135162481Y-53948985D01*
X135281015Y-54067519D01*
X135374147Y-54206900D01*
X135438297Y-54361772D01*
X135471000Y-54526184D01*
X135471000Y-54693816D01*
X135438297Y-54858228D01*
X135374147Y-55013100D01*
X135281015Y-55152481D01*
X135162481Y-55271015D01*
X135023100Y-55364147D01*
X134868228Y-55428297D01*
X134703816Y-55461000D01*
X134536184Y-55461000D01*
X134371772Y-55428297D01*
X134216900Y-55364147D01*
X134077519Y-55271015D01*
X133958985Y-55152481D01*
X133865853Y-55013100D01*
X133801703Y-54858228D01*
X133769000Y-54693816D01*
X133769000Y-54526184D01*
X133801703Y-54361772D01*
X133865853Y-54206900D01*
X133958985Y-54067519D01*
X134077519Y-53948985D01*
X134216900Y-53855853D01*
X134371772Y-53791703D01*
X134536184Y-53759000D01*
X134703816Y-53759000D01*
X134868228Y-53791703D01*
G37*
G36*
X122168228Y-53791703D02*
G01*
X122323100Y-53855853D01*
X122462481Y-53948985D01*
X122581015Y-54067519D01*
X122674147Y-54206900D01*
X122738297Y-54361772D01*
X122771000Y-54526184D01*
X122771000Y-54693816D01*
X122738297Y-54858228D01*
X122674147Y-55013100D01*
X122581015Y-55152481D01*
X122462481Y-55271015D01*
X122323100Y-55364147D01*
X122168228Y-55428297D01*
X122003816Y-55461000D01*
X121836184Y-55461000D01*
X121671772Y-55428297D01*
X121516900Y-55364147D01*
X121377519Y-55271015D01*
X121258985Y-55152481D01*
X121165853Y-55013100D01*
X121101703Y-54858228D01*
X121069000Y-54693816D01*
X121069000Y-54526184D01*
X121101703Y-54361772D01*
X121165853Y-54206900D01*
X121258985Y-54067519D01*
X121377519Y-53948985D01*
X121516900Y-53855853D01*
X121671772Y-53791703D01*
X121836184Y-53759000D01*
X122003816Y-53759000D01*
X122168228Y-53791703D01*
G37*
G36*
X124708228Y-53791703D02*
G01*
X124863100Y-53855853D01*
X125002481Y-53948985D01*
X125121015Y-54067519D01*
X125214147Y-54206900D01*
X125278297Y-54361772D01*
X125311000Y-54526184D01*
X125311000Y-54693816D01*
X125278297Y-54858228D01*
X125214147Y-55013100D01*
X125121015Y-55152481D01*
X125002481Y-55271015D01*
X124863100Y-55364147D01*
X124708228Y-55428297D01*
X124543816Y-55461000D01*
X124376184Y-55461000D01*
X124211772Y-55428297D01*
X124056900Y-55364147D01*
X123917519Y-55271015D01*
X123798985Y-55152481D01*
X123705853Y-55013100D01*
X123641703Y-54858228D01*
X123609000Y-54693816D01*
X123609000Y-54526184D01*
X123641703Y-54361772D01*
X123705853Y-54206900D01*
X123798985Y-54067519D01*
X123917519Y-53948985D01*
X124056900Y-53855853D01*
X124211772Y-53791703D01*
X124376184Y-53759000D01*
X124543816Y-53759000D01*
X124708228Y-53791703D01*
G37*
G36*
X127248228Y-53791703D02*
G01*
X127403100Y-53855853D01*
X127542481Y-53948985D01*
X127661015Y-54067519D01*
X127754147Y-54206900D01*
X127818297Y-54361772D01*
X127851000Y-54526184D01*
X127851000Y-54693816D01*
X127818297Y-54858228D01*
X127754147Y-55013100D01*
X127661015Y-55152481D01*
X127542481Y-55271015D01*
X127403100Y-55364147D01*
X127248228Y-55428297D01*
X127083816Y-55461000D01*
X126916184Y-55461000D01*
X126751772Y-55428297D01*
X126596900Y-55364147D01*
X126457519Y-55271015D01*
X126338985Y-55152481D01*
X126245853Y-55013100D01*
X126181703Y-54858228D01*
X126149000Y-54693816D01*
X126149000Y-54526184D01*
X126181703Y-54361772D01*
X126245853Y-54206900D01*
X126338985Y-54067519D01*
X126457519Y-53948985D01*
X126596900Y-53855853D01*
X126751772Y-53791703D01*
X126916184Y-53759000D01*
X127083816Y-53759000D01*
X127248228Y-53791703D01*
G37*
G36*
X129788228Y-53791703D02*
G01*
X129943100Y-53855853D01*
X130082481Y-53948985D01*
X130201015Y-54067519D01*
X130294147Y-54206900D01*
X130358297Y-54361772D01*
X130391000Y-54526184D01*
X130391000Y-54693816D01*
X130358297Y-54858228D01*
X130294147Y-55013100D01*
X130201015Y-55152481D01*
X130082481Y-55271015D01*
X129943100Y-55364147D01*
X129788228Y-55428297D01*
X129623816Y-55461000D01*
X129456184Y-55461000D01*
X129291772Y-55428297D01*
X129136900Y-55364147D01*
X128997519Y-55271015D01*
X128878985Y-55152481D01*
X128785853Y-55013100D01*
X128721703Y-54858228D01*
X128689000Y-54693816D01*
X128689000Y-54526184D01*
X128721703Y-54361772D01*
X128785853Y-54206900D01*
X128878985Y-54067519D01*
X128997519Y-53948985D01*
X129136900Y-53855853D01*
X129291772Y-53791703D01*
X129456184Y-53759000D01*
X129623816Y-53759000D01*
X129788228Y-53791703D01*
G37*
G36*
X132328228Y-53791703D02*
G01*
X132483100Y-53855853D01*
X132622481Y-53948985D01*
X132741015Y-54067519D01*
X132834147Y-54206900D01*
X132898297Y-54361772D01*
X132931000Y-54526184D01*
X132931000Y-54693816D01*
X132898297Y-54858228D01*
X132834147Y-55013100D01*
X132741015Y-55152481D01*
X132622481Y-55271015D01*
X132483100Y-55364147D01*
X132328228Y-55428297D01*
X132163816Y-55461000D01*
X131996184Y-55461000D01*
X131831772Y-55428297D01*
X131676900Y-55364147D01*
X131537519Y-55271015D01*
X131418985Y-55152481D01*
X131325853Y-55013100D01*
X131261703Y-54858228D01*
X131229000Y-54693816D01*
X131229000Y-54526184D01*
X131261703Y-54361772D01*
X131325853Y-54206900D01*
X131418985Y-54067519D01*
X131537519Y-53948985D01*
X131676900Y-53855853D01*
X131831772Y-53791703D01*
X131996184Y-53759000D01*
X132163816Y-53759000D01*
X132328228Y-53791703D01*
G37*
G36*
X152648228Y-53791703D02*
G01*
X152803100Y-53855853D01*
X152942481Y-53948985D01*
X153061015Y-54067519D01*
X153154147Y-54206900D01*
X153218297Y-54361772D01*
X153251000Y-54526184D01*
X153251000Y-54693816D01*
X153218297Y-54858228D01*
X153154147Y-55013100D01*
X153061015Y-55152481D01*
X152942481Y-55271015D01*
X152803100Y-55364147D01*
X152648228Y-55428297D01*
X152483816Y-55461000D01*
X152316184Y-55461000D01*
X152151772Y-55428297D01*
X151996900Y-55364147D01*
X151857519Y-55271015D01*
X151738985Y-55152481D01*
X151645853Y-55013100D01*
X151581703Y-54858228D01*
X151549000Y-54693816D01*
X151549000Y-54526184D01*
X151581703Y-54361772D01*
X151645853Y-54206900D01*
X151738985Y-54067519D01*
X151857519Y-53948985D01*
X151996900Y-53855853D01*
X152151772Y-53791703D01*
X152316184Y-53759000D01*
X152483816Y-53759000D01*
X152648228Y-53791703D01*
G37*
G36*
X142488228Y-53791703D02*
G01*
X142643100Y-53855853D01*
X142782481Y-53948985D01*
X142901015Y-54067519D01*
X142994147Y-54206900D01*
X143058297Y-54361772D01*
X143091000Y-54526184D01*
X143091000Y-54693816D01*
X143058297Y-54858228D01*
X142994147Y-55013100D01*
X142901015Y-55152481D01*
X142782481Y-55271015D01*
X142643100Y-55364147D01*
X142488228Y-55428297D01*
X142323816Y-55461000D01*
X142156184Y-55461000D01*
X141991772Y-55428297D01*
X141836900Y-55364147D01*
X141697519Y-55271015D01*
X141578985Y-55152481D01*
X141485853Y-55013100D01*
X141421703Y-54858228D01*
X141389000Y-54693816D01*
X141389000Y-54526184D01*
X141421703Y-54361772D01*
X141485853Y-54206900D01*
X141578985Y-54067519D01*
X141697519Y-53948985D01*
X141836900Y-53855853D01*
X141991772Y-53791703D01*
X142156184Y-53759000D01*
X142323816Y-53759000D01*
X142488228Y-53791703D01*
G37*
G36*
X150108228Y-53791703D02*
G01*
X150263100Y-53855853D01*
X150402481Y-53948985D01*
X150521015Y-54067519D01*
X150614147Y-54206900D01*
X150678297Y-54361772D01*
X150711000Y-54526184D01*
X150711000Y-54693816D01*
X150678297Y-54858228D01*
X150614147Y-55013100D01*
X150521015Y-55152481D01*
X150402481Y-55271015D01*
X150263100Y-55364147D01*
X150108228Y-55428297D01*
X149943816Y-55461000D01*
X149776184Y-55461000D01*
X149611772Y-55428297D01*
X149456900Y-55364147D01*
X149317519Y-55271015D01*
X149198985Y-55152481D01*
X149105853Y-55013100D01*
X149041703Y-54858228D01*
X149009000Y-54693816D01*
X149009000Y-54526184D01*
X149041703Y-54361772D01*
X149105853Y-54206900D01*
X149198985Y-54067519D01*
X149317519Y-53948985D01*
X149456900Y-53855853D01*
X149611772Y-53791703D01*
X149776184Y-53759000D01*
X149943816Y-53759000D01*
X150108228Y-53791703D01*
G37*
G36*
X145028228Y-53791703D02*
G01*
X145183100Y-53855853D01*
X145322481Y-53948985D01*
X145441015Y-54067519D01*
X145534147Y-54206900D01*
X145598297Y-54361772D01*
X145631000Y-54526184D01*
X145631000Y-54693816D01*
X145598297Y-54858228D01*
X145534147Y-55013100D01*
X145441015Y-55152481D01*
X145322481Y-55271015D01*
X145183100Y-55364147D01*
X145028228Y-55428297D01*
X144863816Y-55461000D01*
X144696184Y-55461000D01*
X144531772Y-55428297D01*
X144376900Y-55364147D01*
X144237519Y-55271015D01*
X144118985Y-55152481D01*
X144025853Y-55013100D01*
X143961703Y-54858228D01*
X143929000Y-54693816D01*
X143929000Y-54526184D01*
X143961703Y-54361772D01*
X144025853Y-54206900D01*
X144118985Y-54067519D01*
X144237519Y-53948985D01*
X144376900Y-53855853D01*
X144531772Y-53791703D01*
X144696184Y-53759000D01*
X144863816Y-53759000D01*
X145028228Y-53791703D01*
G37*
G36*
X155188228Y-53791703D02*
G01*
X155343100Y-53855853D01*
X155482481Y-53948985D01*
X155601015Y-54067519D01*
X155694147Y-54206900D01*
X155758297Y-54361772D01*
X155791000Y-54526184D01*
X155791000Y-54693816D01*
X155758297Y-54858228D01*
X155694147Y-55013100D01*
X155601015Y-55152481D01*
X155482481Y-55271015D01*
X155343100Y-55364147D01*
X155188228Y-55428297D01*
X155023816Y-55461000D01*
X154856184Y-55461000D01*
X154691772Y-55428297D01*
X154536900Y-55364147D01*
X154397519Y-55271015D01*
X154278985Y-55152481D01*
X154185853Y-55013100D01*
X154121703Y-54858228D01*
X154089000Y-54693816D01*
X154089000Y-54526184D01*
X154121703Y-54361772D01*
X154185853Y-54206900D01*
X154278985Y-54067519D01*
X154397519Y-53948985D01*
X154536900Y-53855853D01*
X154691772Y-53791703D01*
X154856184Y-53759000D01*
X155023816Y-53759000D01*
X155188228Y-53791703D01*
G37*
G36*
X139948228Y-53791703D02*
G01*
X140103100Y-53855853D01*
X140242481Y-53948985D01*
X140361015Y-54067519D01*
X140454147Y-54206900D01*
X140518297Y-54361772D01*
X140551000Y-54526184D01*
X140551000Y-54693816D01*
X140518297Y-54858228D01*
X140454147Y-55013100D01*
X140361015Y-55152481D01*
X140242481Y-55271015D01*
X140103100Y-55364147D01*
X139948228Y-55428297D01*
X139783816Y-55461000D01*
X139616184Y-55461000D01*
X139451772Y-55428297D01*
X139296900Y-55364147D01*
X139157519Y-55271015D01*
X139038985Y-55152481D01*
X138945853Y-55013100D01*
X138881703Y-54858228D01*
X138849000Y-54693816D01*
X138849000Y-54526184D01*
X138881703Y-54361772D01*
X138945853Y-54206900D01*
X139038985Y-54067519D01*
X139157519Y-53948985D01*
X139296900Y-53855853D01*
X139451772Y-53791703D01*
X139616184Y-53759000D01*
X139783816Y-53759000D01*
X139948228Y-53791703D01*
G37*
G36*
X158331000Y-55461000D02*
G01*
X156629000Y-55461000D01*
X156629000Y-53759000D01*
X158331000Y-53759000D01*
X158331000Y-55461000D01*
G37*
G36*
X147568228Y-53791703D02*
G01*
X147723100Y-53855853D01*
X147862481Y-53948985D01*
X147981015Y-54067519D01*
X148074147Y-54206900D01*
X148138297Y-54361772D01*
X148171000Y-54526184D01*
X148171000Y-54693816D01*
X148138297Y-54858228D01*
X148074147Y-55013100D01*
X147981015Y-55152481D01*
X147862481Y-55271015D01*
X147723100Y-55364147D01*
X147568228Y-55428297D01*
X147403816Y-55461000D01*
X147236184Y-55461000D01*
X147071772Y-55428297D01*
X146916900Y-55364147D01*
X146777519Y-55271015D01*
X146658985Y-55152481D01*
X146565853Y-55013100D01*
X146501703Y-54858228D01*
X146469000Y-54693816D01*
X146469000Y-54526184D01*
X146501703Y-54361772D01*
X146565853Y-54206900D01*
X146658985Y-54067519D01*
X146777519Y-53948985D01*
X146916900Y-53855853D01*
X147071772Y-53791703D01*
X147236184Y-53759000D01*
X147403816Y-53759000D01*
X147568228Y-53791703D01*
G37*
G36*
X174292585Y-43563802D02*
G01*
X174442410Y-43593604D01*
X174724674Y-43710521D01*
X174978705Y-43880259D01*
X175194741Y-44096295D01*
X175364479Y-44350326D01*
X175481396Y-44632590D01*
X175541000Y-44932240D01*
X175541000Y-45237760D01*
X175481396Y-45537410D01*
X175364479Y-45819674D01*
X175194741Y-46073705D01*
X174978705Y-46289741D01*
X174724674Y-46459479D01*
X174442410Y-46576396D01*
X174292585Y-46606198D01*
X174142761Y-46636000D01*
X173837239Y-46636000D01*
X173687415Y-46606198D01*
X173537590Y-46576396D01*
X173255326Y-46459479D01*
X173001295Y-46289741D01*
X172785259Y-46073705D01*
X172615521Y-45819674D01*
X172498604Y-45537410D01*
X172439000Y-45237760D01*
X172439000Y-44932240D01*
X172498604Y-44632590D01*
X172615521Y-44350326D01*
X172785259Y-44096295D01*
X173001295Y-43880259D01*
X173255326Y-43710521D01*
X173537590Y-43593604D01*
X173687415Y-43563802D01*
X173837239Y-43534000D01*
X174142761Y-43534000D01*
X174292585Y-43563802D01*
G37*
G36*
X183182585Y-43563802D02*
G01*
X183332410Y-43593604D01*
X183614674Y-43710521D01*
X183868705Y-43880259D01*
X184084741Y-44096295D01*
X184254479Y-44350326D01*
X184371396Y-44632590D01*
X184431000Y-44932240D01*
X184431000Y-45237760D01*
X184371396Y-45537410D01*
X184254479Y-45819674D01*
X184084741Y-46073705D01*
X183868705Y-46289741D01*
X183614674Y-46459479D01*
X183332410Y-46576396D01*
X183182585Y-46606198D01*
X183032761Y-46636000D01*
X182727239Y-46636000D01*
X182577415Y-46606198D01*
X182427590Y-46576396D01*
X182145326Y-46459479D01*
X181891295Y-46289741D01*
X181675259Y-46073705D01*
X181505521Y-45819674D01*
X181388604Y-45537410D01*
X181329000Y-45237760D01*
X181329000Y-44932240D01*
X181388604Y-44632590D01*
X181505521Y-44350326D01*
X181675259Y-44096295D01*
X181891295Y-43880259D01*
X182145326Y-43710521D01*
X182427590Y-43593604D01*
X182577415Y-43563802D01*
X182727239Y-43534000D01*
X183032761Y-43534000D01*
X183182585Y-43563802D01*
G37*
G36*
X118412585Y-43563802D02*
G01*
X118562410Y-43593604D01*
X118844674Y-43710521D01*
X119098705Y-43880259D01*
X119314741Y-44096295D01*
X119484479Y-44350326D01*
X119601396Y-44632590D01*
X119661000Y-44932240D01*
X119661000Y-45237760D01*
X119601396Y-45537410D01*
X119484479Y-45819674D01*
X119314741Y-46073705D01*
X119098705Y-46289741D01*
X118844674Y-46459479D01*
X118562410Y-46576396D01*
X118412585Y-46606198D01*
X118262761Y-46636000D01*
X117957239Y-46636000D01*
X117807415Y-46606198D01*
X117657590Y-46576396D01*
X117375326Y-46459479D01*
X117121295Y-46289741D01*
X116905259Y-46073705D01*
X116735521Y-45819674D01*
X116618604Y-45537410D01*
X116559000Y-45237760D01*
X116559000Y-44932240D01*
X116618604Y-44632590D01*
X116735521Y-44350326D01*
X116905259Y-44096295D01*
X117121295Y-43880259D01*
X117375326Y-43710521D01*
X117657590Y-43593604D01*
X117807415Y-43563802D01*
X117957239Y-43534000D01*
X118262761Y-43534000D01*
X118412585Y-43563802D01*
G37*
G36*
X127302585Y-43563802D02*
G01*
X127452410Y-43593604D01*
X127734674Y-43710521D01*
X127988705Y-43880259D01*
X128204741Y-44096295D01*
X128374479Y-44350326D01*
X128491396Y-44632590D01*
X128551000Y-44932240D01*
X128551000Y-45237760D01*
X128491396Y-45537410D01*
X128374479Y-45819674D01*
X128204741Y-46073705D01*
X127988705Y-46289741D01*
X127734674Y-46459479D01*
X127452410Y-46576396D01*
X127302585Y-46606198D01*
X127152761Y-46636000D01*
X126847239Y-46636000D01*
X126697415Y-46606198D01*
X126547590Y-46576396D01*
X126265326Y-46459479D01*
X126011295Y-46289741D01*
X125795259Y-46073705D01*
X125625521Y-45819674D01*
X125508604Y-45537410D01*
X125449000Y-45237760D01*
X125449000Y-44932240D01*
X125508604Y-44632590D01*
X125625521Y-44350326D01*
X125795259Y-44096295D01*
X126011295Y-43880259D01*
X126265326Y-43710521D01*
X126547590Y-43593604D01*
X126697415Y-43563802D01*
X126847239Y-43534000D01*
X127152761Y-43534000D01*
X127302585Y-43563802D01*
G37*
G36*
X128551000Y-41556000D02*
G01*
X125449000Y-41556000D01*
X125449000Y-38454000D01*
X128551000Y-38454000D01*
X128551000Y-41556000D01*
G37*
G36*
X184431000Y-41556000D02*
G01*
X181329000Y-41556000D01*
X181329000Y-38454000D01*
X184431000Y-38454000D01*
X184431000Y-41556000D01*
G37*
G36*
X175541000Y-41556000D02*
G01*
X172439000Y-41556000D01*
X172439000Y-38454000D01*
X175541000Y-38454000D01*
X175541000Y-41556000D01*
G37*
G36*
X119661000Y-41556000D02*
G01*
X116559000Y-41556000D01*
X116559000Y-38454000D01*
X119661000Y-38454000D01*
X119661000Y-41556000D01*
G37*
G36*
X183890256Y-30776298D02*
G01*
X183996579Y-30797447D01*
X184297042Y-30921903D01*
X184567451Y-31102585D01*
X184797415Y-31332549D01*
X184978097Y-31602958D01*
X185102553Y-31903421D01*
X185166000Y-32222391D01*
X185166000Y-32547609D01*
X185102553Y-32866579D01*
X184978097Y-33167042D01*
X184797415Y-33437451D01*
X184567451Y-33667415D01*
X184297042Y-33848097D01*
X183996579Y-33972553D01*
X183890256Y-33993702D01*
X183677611Y-34036000D01*
X183352389Y-34036000D01*
X183139744Y-33993702D01*
X183033421Y-33972553D01*
X182732958Y-33848097D01*
X182462549Y-33667415D01*
X182232585Y-33437451D01*
X182051903Y-33167042D01*
X181927447Y-32866579D01*
X181864000Y-32547609D01*
X181864000Y-32222391D01*
X181927447Y-31903421D01*
X182051903Y-31602958D01*
X182232585Y-31332549D01*
X182462549Y-31102585D01*
X182732958Y-30921903D01*
X183033421Y-30797447D01*
X183139744Y-30776298D01*
X183352389Y-30734000D01*
X183677611Y-30734000D01*
X183890256Y-30776298D01*
G37*
G36*
X118485256Y-30776298D02*
G01*
X118591579Y-30797447D01*
X118892042Y-30921903D01*
X119162451Y-31102585D01*
X119392415Y-31332549D01*
X119573097Y-31602958D01*
X119697553Y-31903421D01*
X119761000Y-32222391D01*
X119761000Y-32547609D01*
X119697553Y-32866579D01*
X119573097Y-33167042D01*
X119392415Y-33437451D01*
X119162451Y-33667415D01*
X118892042Y-33848097D01*
X118591579Y-33972553D01*
X118485256Y-33993702D01*
X118272611Y-34036000D01*
X117947389Y-34036000D01*
X117734744Y-33993702D01*
X117628421Y-33972553D01*
X117327958Y-33848097D01*
X117057549Y-33667415D01*
X116827585Y-33437451D01*
X116646903Y-33167042D01*
X116522447Y-32866579D01*
X116459000Y-32547609D01*
X116459000Y-32222391D01*
X116522447Y-31903421D01*
X116646903Y-31602958D01*
X116827585Y-31332549D01*
X117057549Y-31102585D01*
X117327958Y-30921903D01*
X117628421Y-30797447D01*
X117734744Y-30776298D01*
X117947389Y-30734000D01*
X118272611Y-30734000D01*
X118485256Y-30776298D01*
G37*
M02*
