G04 #@! TF.GenerationSoftware,KiCad,Pcbnew,5.1.5+dfsg1-2build2*
G04 #@! TF.CreationDate,2021-11-11T11:20:40+00:00*
G04 #@! TF.ProjectId,PIDController,50494443-6f6e-4747-926f-6c6c65722e6b,rev?*
G04 #@! TF.SameCoordinates,Original*
G04 #@! TF.FileFunction,Copper,L2,Bot*
G04 #@! TF.FilePolarity,Positive*
%FSLAX46Y46*%
G04 Gerber Fmt 4.6, Leading zero omitted, Abs format (unit mm)*
G04 Created by KiCad (PCBNEW 5.1.5+dfsg1-2build2) date 2021-11-11 11:20:40*
%MOMM*%
%LPD*%
G04 APERTURE LIST*
%ADD10O,1.600000X1.600000*%
%ADD11R,1.600000X1.600000*%
%ADD12R,3.000000X3.000000*%
%ADD13C,3.000000*%
%ADD14C,1.560000*%
%ADD15R,1.700000X1.700000*%
%ADD16O,1.700000X1.700000*%
%ADD17C,0.800000*%
%ADD18C,3.000000*%
%ADD19C,0.254000*%
G04 APERTURE END LIST*
D10*
X166620000Y-102870000D03*
X164080000Y-102870000D03*
D11*
X157480000Y-54610000D03*
D10*
X127000000Y-102870000D03*
X154940000Y-54610000D03*
X129540000Y-102870000D03*
X152400000Y-54610000D03*
X132080000Y-102870000D03*
X149860000Y-54610000D03*
X134620000Y-102870000D03*
X147320000Y-54610000D03*
X137160000Y-102870000D03*
X144780000Y-54610000D03*
X139700000Y-102870000D03*
X142240000Y-54610000D03*
X143760000Y-102870000D03*
X139700000Y-54610000D03*
X146300000Y-102870000D03*
X134620000Y-54610000D03*
X148840000Y-102870000D03*
X132080000Y-54610000D03*
X151380000Y-102870000D03*
X129540000Y-54610000D03*
X153920000Y-102870000D03*
X127000000Y-54610000D03*
X156460000Y-102870000D03*
X124460000Y-54610000D03*
X159000000Y-102870000D03*
X121920000Y-54610000D03*
X161540000Y-102870000D03*
X121920000Y-102870000D03*
X124460000Y-102870000D03*
D12*
X182880000Y-40005000D03*
D13*
X182880000Y-45085000D03*
X173990000Y-45085000D03*
D12*
X173990000Y-40005000D03*
X118110000Y-40005000D03*
D13*
X118110000Y-45085000D03*
X127000000Y-45085000D03*
D12*
X127000000Y-40005000D03*
D14*
X160230000Y-149000000D03*
X160230000Y-146460000D03*
X160230000Y-143920000D03*
X160230000Y-141380000D03*
X160230000Y-138840000D03*
X160230000Y-136300000D03*
X160230000Y-133760000D03*
X160230000Y-131220000D03*
X160230000Y-128680000D03*
X160230000Y-126140000D03*
X160230000Y-123600000D03*
X160230000Y-121060000D03*
X160230000Y-118520000D03*
X160230000Y-115980000D03*
X160230000Y-113440000D03*
X142030000Y-113440000D03*
X142030000Y-115980000D03*
X142030000Y-118520000D03*
X142030000Y-121060000D03*
X142030000Y-123600000D03*
X142030000Y-126140000D03*
X142030000Y-128680000D03*
X142030000Y-131220000D03*
X142030000Y-133760000D03*
X142030000Y-136300000D03*
X142030000Y-138840000D03*
X142030000Y-141380000D03*
X142030000Y-143920000D03*
X142030000Y-146460000D03*
X142030000Y-149000000D03*
D15*
X125730000Y-147320000D03*
D16*
X125730000Y-149860000D03*
X128270000Y-147320000D03*
X128270000Y-149860000D03*
X130810000Y-147320000D03*
X130810000Y-149860000D03*
X133350000Y-147320000D03*
X133350000Y-149860000D03*
X135890000Y-147320000D03*
X135890000Y-149860000D03*
D15*
X170180000Y-149860000D03*
D16*
X172720000Y-149860000D03*
X170180000Y-147320000D03*
X172720000Y-147320000D03*
X170180000Y-144780000D03*
X172720000Y-144780000D03*
D17*
X137160000Y-120650000D03*
X124460000Y-123190000D03*
X137160000Y-130810000D03*
X134620000Y-143510000D03*
X128905000Y-132715000D03*
X121920000Y-113030000D03*
X172720000Y-130810000D03*
D18*
X182880000Y-40005000D02*
X173990000Y-40005000D01*
X182880000Y-45085000D02*
X173990000Y-45085000D01*
X127000000Y-40005000D02*
X118110000Y-40005000D01*
X127000000Y-45085000D02*
X118110000Y-45085000D01*
D19*
G36*
X138785241Y-53495363D02*
G01*
X138585363Y-53695241D01*
X138428320Y-53930273D01*
X138320147Y-54191426D01*
X138265000Y-54468665D01*
X138265000Y-54751335D01*
X138320147Y-55028574D01*
X138428320Y-55289727D01*
X138585363Y-55524759D01*
X138785241Y-55724637D01*
X139020273Y-55881680D01*
X139281426Y-55989853D01*
X139558665Y-56045000D01*
X139841335Y-56045000D01*
X140118574Y-55989853D01*
X140379727Y-55881680D01*
X140614759Y-55724637D01*
X140814637Y-55524759D01*
X140971680Y-55289727D01*
X140976067Y-55279135D01*
X141087615Y-55465131D01*
X141276586Y-55673519D01*
X141502580Y-55841037D01*
X141756913Y-55961246D01*
X141890961Y-56001904D01*
X142113000Y-55879915D01*
X142113000Y-54737000D01*
X142367000Y-54737000D01*
X142367000Y-55879915D01*
X142589039Y-56001904D01*
X142723087Y-55961246D01*
X142977420Y-55841037D01*
X143203414Y-55673519D01*
X143392385Y-55465131D01*
X143510000Y-55269018D01*
X143627615Y-55465131D01*
X143816586Y-55673519D01*
X144042580Y-55841037D01*
X144296913Y-55961246D01*
X144430961Y-56001904D01*
X144653000Y-55879915D01*
X144653000Y-54737000D01*
X142367000Y-54737000D01*
X142113000Y-54737000D01*
X142093000Y-54737000D01*
X142093000Y-54483000D01*
X142113000Y-54483000D01*
X142113000Y-54463000D01*
X142367000Y-54463000D01*
X142367000Y-54483000D01*
X144653000Y-54483000D01*
X144653000Y-54463000D01*
X144907000Y-54463000D01*
X144907000Y-54483000D01*
X144927000Y-54483000D01*
X144927000Y-54737000D01*
X144907000Y-54737000D01*
X144907000Y-55879915D01*
X145129039Y-56001904D01*
X145263087Y-55961246D01*
X145517420Y-55841037D01*
X145743414Y-55673519D01*
X145932385Y-55465131D01*
X146043933Y-55279135D01*
X146048320Y-55289727D01*
X146205363Y-55524759D01*
X146405241Y-55724637D01*
X146640273Y-55881680D01*
X146901426Y-55989853D01*
X147178665Y-56045000D01*
X147461335Y-56045000D01*
X147738574Y-55989853D01*
X147999727Y-55881680D01*
X148234759Y-55724637D01*
X148434637Y-55524759D01*
X148590000Y-55292241D01*
X148745363Y-55524759D01*
X148945241Y-55724637D01*
X149180273Y-55881680D01*
X149441426Y-55989853D01*
X149718665Y-56045000D01*
X150001335Y-56045000D01*
X150278574Y-55989853D01*
X150539727Y-55881680D01*
X150774759Y-55724637D01*
X150974637Y-55524759D01*
X151130000Y-55292241D01*
X151285363Y-55524759D01*
X151485241Y-55724637D01*
X151720273Y-55881680D01*
X151981426Y-55989853D01*
X152258665Y-56045000D01*
X152541335Y-56045000D01*
X152818574Y-55989853D01*
X153079727Y-55881680D01*
X153314759Y-55724637D01*
X153514637Y-55524759D01*
X153670000Y-55292241D01*
X153825363Y-55524759D01*
X154025241Y-55724637D01*
X154260273Y-55881680D01*
X154521426Y-55989853D01*
X154798665Y-56045000D01*
X155081335Y-56045000D01*
X155358574Y-55989853D01*
X155619727Y-55881680D01*
X155854759Y-55724637D01*
X156053357Y-55526039D01*
X156054188Y-55534482D01*
X156090498Y-55654180D01*
X156149463Y-55764494D01*
X156228815Y-55861185D01*
X156325506Y-55940537D01*
X156435820Y-55999502D01*
X156555518Y-56035812D01*
X156680000Y-56048072D01*
X158280000Y-56048072D01*
X158404482Y-56035812D01*
X158524180Y-55999502D01*
X158634494Y-55940537D01*
X158731185Y-55861185D01*
X158810537Y-55764494D01*
X158869502Y-55654180D01*
X158905812Y-55534482D01*
X158918072Y-55410000D01*
X158918072Y-53810000D01*
X158905812Y-53685518D01*
X158869502Y-53565820D01*
X158816681Y-53467000D01*
X175133000Y-53467000D01*
X175133000Y-153543000D01*
X120777000Y-153543000D01*
X120777000Y-151396153D01*
X142049500Y-151396153D01*
X142049500Y-151683847D01*
X142105626Y-151966012D01*
X142215721Y-152231806D01*
X142375555Y-152471015D01*
X142578985Y-152674445D01*
X142818194Y-152834279D01*
X143083988Y-152944374D01*
X143366153Y-153000500D01*
X143653847Y-153000500D01*
X143936012Y-152944374D01*
X144201806Y-152834279D01*
X144441015Y-152674445D01*
X144644445Y-152471015D01*
X144804279Y-152231806D01*
X144914374Y-151966012D01*
X144970500Y-151683847D01*
X144970500Y-151396153D01*
X157289500Y-151396153D01*
X157289500Y-151683847D01*
X157345626Y-151966012D01*
X157455721Y-152231806D01*
X157615555Y-152471015D01*
X157818985Y-152674445D01*
X158058194Y-152834279D01*
X158323988Y-152944374D01*
X158606153Y-153000500D01*
X158893847Y-153000500D01*
X159176012Y-152944374D01*
X159441806Y-152834279D01*
X159681015Y-152674445D01*
X159884445Y-152471015D01*
X160044279Y-152231806D01*
X160154374Y-151966012D01*
X160210500Y-151683847D01*
X160210500Y-151396153D01*
X160154374Y-151113988D01*
X160044279Y-150848194D01*
X159884445Y-150608985D01*
X159681015Y-150405555D01*
X159441806Y-150245721D01*
X159176012Y-150135626D01*
X158893847Y-150079500D01*
X158606153Y-150079500D01*
X158323988Y-150135626D01*
X158058194Y-150245721D01*
X157818985Y-150405555D01*
X157615555Y-150608985D01*
X157455721Y-150848194D01*
X157345626Y-151113988D01*
X157289500Y-151396153D01*
X144970500Y-151396153D01*
X144914374Y-151113988D01*
X144804279Y-150848194D01*
X144644445Y-150608985D01*
X144441015Y-150405555D01*
X144201806Y-150245721D01*
X143936012Y-150135626D01*
X143653847Y-150079500D01*
X143366153Y-150079500D01*
X143083988Y-150135626D01*
X142818194Y-150245721D01*
X142578985Y-150405555D01*
X142375555Y-150608985D01*
X142215721Y-150848194D01*
X142105626Y-151113988D01*
X142049500Y-151396153D01*
X120777000Y-151396153D01*
X120777000Y-146470000D01*
X124241928Y-146470000D01*
X124241928Y-148170000D01*
X124254188Y-148294482D01*
X124290498Y-148414180D01*
X124349463Y-148524494D01*
X124428815Y-148621185D01*
X124525506Y-148700537D01*
X124635820Y-148759502D01*
X124708380Y-148781513D01*
X124576525Y-148913368D01*
X124414010Y-149156589D01*
X124302068Y-149426842D01*
X124245000Y-149713740D01*
X124245000Y-150006260D01*
X124302068Y-150293158D01*
X124414010Y-150563411D01*
X124576525Y-150806632D01*
X124783368Y-151013475D01*
X125026589Y-151175990D01*
X125296842Y-151287932D01*
X125583740Y-151345000D01*
X125876260Y-151345000D01*
X126163158Y-151287932D01*
X126433411Y-151175990D01*
X126676632Y-151013475D01*
X126883475Y-150806632D01*
X127005195Y-150624466D01*
X127074822Y-150741355D01*
X127269731Y-150957588D01*
X127503080Y-151131641D01*
X127765901Y-151256825D01*
X127913110Y-151301476D01*
X128143000Y-151180155D01*
X128143000Y-149987000D01*
X128123000Y-149987000D01*
X128123000Y-149733000D01*
X128143000Y-149733000D01*
X128143000Y-149713000D01*
X128397000Y-149713000D01*
X128397000Y-149733000D01*
X128417000Y-149733000D01*
X128417000Y-149987000D01*
X128397000Y-149987000D01*
X128397000Y-151180155D01*
X128626890Y-151301476D01*
X128774099Y-151256825D01*
X129036920Y-151131641D01*
X129270269Y-150957588D01*
X129465178Y-150741355D01*
X129534805Y-150624466D01*
X129656525Y-150806632D01*
X129863368Y-151013475D01*
X130106589Y-151175990D01*
X130376842Y-151287932D01*
X130663740Y-151345000D01*
X130956260Y-151345000D01*
X131243158Y-151287932D01*
X131513411Y-151175990D01*
X131756632Y-151013475D01*
X131963475Y-150806632D01*
X132080000Y-150632240D01*
X132196525Y-150806632D01*
X132403368Y-151013475D01*
X132646589Y-151175990D01*
X132916842Y-151287932D01*
X133203740Y-151345000D01*
X133496260Y-151345000D01*
X133783158Y-151287932D01*
X134053411Y-151175990D01*
X134296632Y-151013475D01*
X134503475Y-150806632D01*
X134620000Y-150632240D01*
X134736525Y-150806632D01*
X134943368Y-151013475D01*
X135186589Y-151175990D01*
X135456842Y-151287932D01*
X135743740Y-151345000D01*
X136036260Y-151345000D01*
X136323158Y-151287932D01*
X136593411Y-151175990D01*
X136836632Y-151013475D01*
X137043475Y-150806632D01*
X137205990Y-150563411D01*
X137317932Y-150293158D01*
X137375000Y-150006260D01*
X137375000Y-149713740D01*
X137317932Y-149426842D01*
X137205990Y-149156589D01*
X137043475Y-148913368D01*
X136836632Y-148706525D01*
X136662240Y-148590000D01*
X136836632Y-148473475D01*
X137043475Y-148266632D01*
X137205990Y-148023411D01*
X137317932Y-147753158D01*
X137375000Y-147466260D01*
X137375000Y-147173740D01*
X137317932Y-146886842D01*
X137205990Y-146616589D01*
X137043475Y-146373368D01*
X136836632Y-146166525D01*
X136593411Y-146004010D01*
X136323158Y-145892068D01*
X136036260Y-145835000D01*
X135743740Y-145835000D01*
X135456842Y-145892068D01*
X135186589Y-146004010D01*
X134943368Y-146166525D01*
X134736525Y-146373368D01*
X134620000Y-146547760D01*
X134503475Y-146373368D01*
X134296632Y-146166525D01*
X134053411Y-146004010D01*
X133783158Y-145892068D01*
X133496260Y-145835000D01*
X133203740Y-145835000D01*
X132916842Y-145892068D01*
X132646589Y-146004010D01*
X132403368Y-146166525D01*
X132196525Y-146373368D01*
X132080000Y-146547760D01*
X131963475Y-146373368D01*
X131756632Y-146166525D01*
X131513411Y-146004010D01*
X131243158Y-145892068D01*
X130956260Y-145835000D01*
X130663740Y-145835000D01*
X130376842Y-145892068D01*
X130106589Y-146004010D01*
X129863368Y-146166525D01*
X129656525Y-146373368D01*
X129540000Y-146547760D01*
X129423475Y-146373368D01*
X129216632Y-146166525D01*
X128973411Y-146004010D01*
X128703158Y-145892068D01*
X128416260Y-145835000D01*
X128123740Y-145835000D01*
X127836842Y-145892068D01*
X127566589Y-146004010D01*
X127323368Y-146166525D01*
X127191513Y-146298380D01*
X127169502Y-146225820D01*
X127110537Y-146115506D01*
X127031185Y-146018815D01*
X126934494Y-145939463D01*
X126824180Y-145880498D01*
X126704482Y-145844188D01*
X126580000Y-145831928D01*
X124880000Y-145831928D01*
X124755518Y-145844188D01*
X124635820Y-145880498D01*
X124525506Y-145939463D01*
X124428815Y-146018815D01*
X124349463Y-146115506D01*
X124290498Y-146225820D01*
X124254188Y-146345518D01*
X124241928Y-146470000D01*
X120777000Y-146470000D01*
X120777000Y-123460635D01*
X140615000Y-123460635D01*
X140615000Y-123739365D01*
X140669377Y-124012740D01*
X140776043Y-124270254D01*
X140930897Y-124502010D01*
X141127990Y-124699103D01*
X141359746Y-124853957D01*
X141398477Y-124870000D01*
X141359746Y-124886043D01*
X141127990Y-125040897D01*
X140930897Y-125237990D01*
X140776043Y-125469746D01*
X140669377Y-125727260D01*
X140615000Y-126000635D01*
X140615000Y-126279365D01*
X140669377Y-126552740D01*
X140776043Y-126810254D01*
X140930897Y-127042010D01*
X141127990Y-127239103D01*
X141359746Y-127393957D01*
X141398477Y-127410000D01*
X141359746Y-127426043D01*
X141127990Y-127580897D01*
X140930897Y-127777990D01*
X140776043Y-128009746D01*
X140669377Y-128267260D01*
X140615000Y-128540635D01*
X140615000Y-128819365D01*
X140669377Y-129092740D01*
X140776043Y-129350254D01*
X140930897Y-129582010D01*
X141127990Y-129779103D01*
X141359746Y-129933957D01*
X141398477Y-129950000D01*
X141359746Y-129966043D01*
X141127990Y-130120897D01*
X140930897Y-130317990D01*
X140776043Y-130549746D01*
X140669377Y-130807260D01*
X140615000Y-131080635D01*
X140615000Y-131359365D01*
X140669377Y-131632740D01*
X140776043Y-131890254D01*
X140930897Y-132122010D01*
X141127990Y-132319103D01*
X141359746Y-132473957D01*
X141398477Y-132490000D01*
X141359746Y-132506043D01*
X141127990Y-132660897D01*
X140930897Y-132857990D01*
X140776043Y-133089746D01*
X140669377Y-133347260D01*
X140615000Y-133620635D01*
X140615000Y-133899365D01*
X140669377Y-134172740D01*
X140776043Y-134430254D01*
X140930897Y-134662010D01*
X141127990Y-134859103D01*
X141359746Y-135013957D01*
X141398477Y-135030000D01*
X141359746Y-135046043D01*
X141127990Y-135200897D01*
X140930897Y-135397990D01*
X140776043Y-135629746D01*
X140669377Y-135887260D01*
X140615000Y-136160635D01*
X140615000Y-136439365D01*
X140669377Y-136712740D01*
X140776043Y-136970254D01*
X140930897Y-137202010D01*
X141127990Y-137399103D01*
X141359746Y-137553957D01*
X141398477Y-137570000D01*
X141359746Y-137586043D01*
X141127990Y-137740897D01*
X140930897Y-137937990D01*
X140776043Y-138169746D01*
X140669377Y-138427260D01*
X140615000Y-138700635D01*
X140615000Y-138979365D01*
X140669377Y-139252740D01*
X140776043Y-139510254D01*
X140930897Y-139742010D01*
X141127990Y-139939103D01*
X141359746Y-140093957D01*
X141398477Y-140110000D01*
X141359746Y-140126043D01*
X141127990Y-140280897D01*
X140930897Y-140477990D01*
X140776043Y-140709746D01*
X140669377Y-140967260D01*
X140615000Y-141240635D01*
X140615000Y-141519365D01*
X140669377Y-141792740D01*
X140776043Y-142050254D01*
X140930897Y-142282010D01*
X141127990Y-142479103D01*
X141359746Y-142633957D01*
X141398477Y-142650000D01*
X141359746Y-142666043D01*
X141127990Y-142820897D01*
X140930897Y-143017990D01*
X140776043Y-143249746D01*
X140669377Y-143507260D01*
X140615000Y-143780635D01*
X140615000Y-144059365D01*
X140669377Y-144332740D01*
X140776043Y-144590254D01*
X140930897Y-144822010D01*
X141127990Y-145019103D01*
X141359746Y-145173957D01*
X141398477Y-145190000D01*
X141359746Y-145206043D01*
X141127990Y-145360897D01*
X140930897Y-145557990D01*
X140776043Y-145789746D01*
X140669377Y-146047260D01*
X140615000Y-146320635D01*
X140615000Y-146599365D01*
X140669377Y-146872740D01*
X140776043Y-147130254D01*
X140930897Y-147362010D01*
X141127990Y-147559103D01*
X141359746Y-147713957D01*
X141398477Y-147730000D01*
X141359746Y-147746043D01*
X141127990Y-147900897D01*
X140930897Y-148097990D01*
X140776043Y-148329746D01*
X140669377Y-148587260D01*
X140615000Y-148860635D01*
X140615000Y-149139365D01*
X140669377Y-149412740D01*
X140776043Y-149670254D01*
X140930897Y-149902010D01*
X141127990Y-150099103D01*
X141359746Y-150253957D01*
X141617260Y-150360623D01*
X141890635Y-150415000D01*
X142169365Y-150415000D01*
X142442740Y-150360623D01*
X142700254Y-150253957D01*
X142932010Y-150099103D01*
X143129103Y-149902010D01*
X143283957Y-149670254D01*
X143390623Y-149412740D01*
X143445000Y-149139365D01*
X143445000Y-148860635D01*
X143390623Y-148587260D01*
X143283957Y-148329746D01*
X143129103Y-148097990D01*
X142932010Y-147900897D01*
X142700254Y-147746043D01*
X142661523Y-147730000D01*
X142700254Y-147713957D01*
X142932010Y-147559103D01*
X143129103Y-147362010D01*
X143283957Y-147130254D01*
X143390623Y-146872740D01*
X143445000Y-146599365D01*
X143445000Y-146320635D01*
X143390623Y-146047260D01*
X143283957Y-145789746D01*
X143129103Y-145557990D01*
X142932010Y-145360897D01*
X142700254Y-145206043D01*
X142661523Y-145190000D01*
X142700254Y-145173957D01*
X142932010Y-145019103D01*
X143129103Y-144822010D01*
X143283957Y-144590254D01*
X143390623Y-144332740D01*
X143445000Y-144059365D01*
X143445000Y-143780635D01*
X143390623Y-143507260D01*
X143283957Y-143249746D01*
X143129103Y-143017990D01*
X142932010Y-142820897D01*
X142700254Y-142666043D01*
X142661523Y-142650000D01*
X142700254Y-142633957D01*
X142932010Y-142479103D01*
X143129103Y-142282010D01*
X143283957Y-142050254D01*
X143390623Y-141792740D01*
X143445000Y-141519365D01*
X143445000Y-141240635D01*
X143390623Y-140967260D01*
X143283957Y-140709746D01*
X143129103Y-140477990D01*
X142932010Y-140280897D01*
X142700254Y-140126043D01*
X142661523Y-140110000D01*
X142700254Y-140093957D01*
X142932010Y-139939103D01*
X143129103Y-139742010D01*
X143283957Y-139510254D01*
X143390623Y-139252740D01*
X143445000Y-138979365D01*
X143445000Y-138700635D01*
X143390623Y-138427260D01*
X143283957Y-138169746D01*
X143129103Y-137937990D01*
X142932010Y-137740897D01*
X142700254Y-137586043D01*
X142661523Y-137570000D01*
X142700254Y-137553957D01*
X142932010Y-137399103D01*
X143129103Y-137202010D01*
X143283957Y-136970254D01*
X143390623Y-136712740D01*
X143445000Y-136439365D01*
X143445000Y-136160635D01*
X143390623Y-135887260D01*
X143283957Y-135629746D01*
X143129103Y-135397990D01*
X142932010Y-135200897D01*
X142700254Y-135046043D01*
X142661523Y-135030000D01*
X142700254Y-135013957D01*
X142932010Y-134859103D01*
X143129103Y-134662010D01*
X143283957Y-134430254D01*
X143390623Y-134172740D01*
X143445000Y-133899365D01*
X143445000Y-133620635D01*
X143390623Y-133347260D01*
X143283957Y-133089746D01*
X143129103Y-132857990D01*
X142932010Y-132660897D01*
X142700254Y-132506043D01*
X142661523Y-132490000D01*
X142700254Y-132473957D01*
X142932010Y-132319103D01*
X143129103Y-132122010D01*
X143283957Y-131890254D01*
X143390623Y-131632740D01*
X143445000Y-131359365D01*
X143445000Y-131080635D01*
X143390623Y-130807260D01*
X143283957Y-130549746D01*
X143129103Y-130317990D01*
X142932010Y-130120897D01*
X142700254Y-129966043D01*
X142661523Y-129950000D01*
X142700254Y-129933957D01*
X142932010Y-129779103D01*
X143129103Y-129582010D01*
X143283957Y-129350254D01*
X143390623Y-129092740D01*
X143445000Y-128819365D01*
X143445000Y-128540635D01*
X143390623Y-128267260D01*
X143283957Y-128009746D01*
X143129103Y-127777990D01*
X142932010Y-127580897D01*
X142700254Y-127426043D01*
X142661523Y-127410000D01*
X142700254Y-127393957D01*
X142932010Y-127239103D01*
X143129103Y-127042010D01*
X143283957Y-126810254D01*
X143390623Y-126552740D01*
X143445000Y-126279365D01*
X143445000Y-126000635D01*
X143390623Y-125727260D01*
X143283957Y-125469746D01*
X143129103Y-125237990D01*
X142932010Y-125040897D01*
X142700254Y-124886043D01*
X142661523Y-124870000D01*
X142700254Y-124853957D01*
X142932010Y-124699103D01*
X143129103Y-124502010D01*
X143283957Y-124270254D01*
X143390623Y-124012740D01*
X143445000Y-123739365D01*
X143445000Y-123460635D01*
X143390623Y-123187260D01*
X143283957Y-122929746D01*
X143129103Y-122697990D01*
X142932010Y-122500897D01*
X142700254Y-122346043D01*
X142664475Y-122331223D01*
X142759655Y-122280349D01*
X142828816Y-122038421D01*
X142030000Y-121239605D01*
X141231184Y-122038421D01*
X141300345Y-122280349D01*
X141402279Y-122328425D01*
X141359746Y-122346043D01*
X141127990Y-122500897D01*
X140930897Y-122697990D01*
X140776043Y-122929746D01*
X140669377Y-123187260D01*
X140615000Y-123460635D01*
X120777000Y-123460635D01*
X120777000Y-121131303D01*
X140609943Y-121131303D01*
X140651140Y-121406972D01*
X140745325Y-121669308D01*
X140809651Y-121789655D01*
X141051579Y-121858816D01*
X141850395Y-121060000D01*
X142209605Y-121060000D01*
X143008421Y-121858816D01*
X143250349Y-121789655D01*
X143369248Y-121537557D01*
X143436681Y-121267106D01*
X143450057Y-120988697D01*
X143408860Y-120713028D01*
X143314675Y-120450692D01*
X143250349Y-120330345D01*
X143008421Y-120261184D01*
X142209605Y-121060000D01*
X141850395Y-121060000D01*
X141051579Y-120261184D01*
X140809651Y-120330345D01*
X140690752Y-120582443D01*
X140623319Y-120852894D01*
X140609943Y-121131303D01*
X120777000Y-121131303D01*
X120777000Y-113300635D01*
X140615000Y-113300635D01*
X140615000Y-113579365D01*
X140669377Y-113852740D01*
X140776043Y-114110254D01*
X140930897Y-114342010D01*
X141127990Y-114539103D01*
X141359746Y-114693957D01*
X141398477Y-114710000D01*
X141359746Y-114726043D01*
X141127990Y-114880897D01*
X140930897Y-115077990D01*
X140776043Y-115309746D01*
X140669377Y-115567260D01*
X140615000Y-115840635D01*
X140615000Y-116119365D01*
X140669377Y-116392740D01*
X140776043Y-116650254D01*
X140930897Y-116882010D01*
X141127990Y-117079103D01*
X141359746Y-117233957D01*
X141398477Y-117250000D01*
X141359746Y-117266043D01*
X141127990Y-117420897D01*
X140930897Y-117617990D01*
X140776043Y-117849746D01*
X140669377Y-118107260D01*
X140615000Y-118380635D01*
X140615000Y-118659365D01*
X140669377Y-118932740D01*
X140776043Y-119190254D01*
X140930897Y-119422010D01*
X141127990Y-119619103D01*
X141359746Y-119773957D01*
X141395525Y-119788777D01*
X141300345Y-119839651D01*
X141231184Y-120081579D01*
X142030000Y-120880395D01*
X142828816Y-120081579D01*
X142759655Y-119839651D01*
X142657721Y-119791575D01*
X142700254Y-119773957D01*
X142932010Y-119619103D01*
X143129103Y-119422010D01*
X143283957Y-119190254D01*
X143390623Y-118932740D01*
X143445000Y-118659365D01*
X143445000Y-118380635D01*
X158815000Y-118380635D01*
X158815000Y-118659365D01*
X158869377Y-118932740D01*
X158976043Y-119190254D01*
X159130897Y-119422010D01*
X159327990Y-119619103D01*
X159559746Y-119773957D01*
X159598477Y-119790000D01*
X159559746Y-119806043D01*
X159327990Y-119960897D01*
X159130897Y-120157990D01*
X158976043Y-120389746D01*
X158869377Y-120647260D01*
X158815000Y-120920635D01*
X158815000Y-121199365D01*
X158869377Y-121472740D01*
X158976043Y-121730254D01*
X159130897Y-121962010D01*
X159327990Y-122159103D01*
X159559746Y-122313957D01*
X159598477Y-122330000D01*
X159559746Y-122346043D01*
X159327990Y-122500897D01*
X159130897Y-122697990D01*
X158976043Y-122929746D01*
X158869377Y-123187260D01*
X158815000Y-123460635D01*
X158815000Y-123739365D01*
X158869377Y-124012740D01*
X158976043Y-124270254D01*
X159130897Y-124502010D01*
X159327990Y-124699103D01*
X159559746Y-124853957D01*
X159598477Y-124870000D01*
X159559746Y-124886043D01*
X159327990Y-125040897D01*
X159130897Y-125237990D01*
X158976043Y-125469746D01*
X158869377Y-125727260D01*
X158815000Y-126000635D01*
X158815000Y-126279365D01*
X158869377Y-126552740D01*
X158976043Y-126810254D01*
X159130897Y-127042010D01*
X159327990Y-127239103D01*
X159559746Y-127393957D01*
X159598477Y-127410000D01*
X159559746Y-127426043D01*
X159327990Y-127580897D01*
X159130897Y-127777990D01*
X158976043Y-128009746D01*
X158869377Y-128267260D01*
X158815000Y-128540635D01*
X158815000Y-128819365D01*
X158869377Y-129092740D01*
X158976043Y-129350254D01*
X159130897Y-129582010D01*
X159327990Y-129779103D01*
X159559746Y-129933957D01*
X159598477Y-129950000D01*
X159559746Y-129966043D01*
X159327990Y-130120897D01*
X159130897Y-130317990D01*
X158976043Y-130549746D01*
X158869377Y-130807260D01*
X158815000Y-131080635D01*
X158815000Y-131359365D01*
X158869377Y-131632740D01*
X158976043Y-131890254D01*
X159130897Y-132122010D01*
X159327990Y-132319103D01*
X159559746Y-132473957D01*
X159598477Y-132490000D01*
X159559746Y-132506043D01*
X159327990Y-132660897D01*
X159130897Y-132857990D01*
X158976043Y-133089746D01*
X158869377Y-133347260D01*
X158815000Y-133620635D01*
X158815000Y-133899365D01*
X158869377Y-134172740D01*
X158976043Y-134430254D01*
X159130897Y-134662010D01*
X159327990Y-134859103D01*
X159559746Y-135013957D01*
X159598477Y-135030000D01*
X159559746Y-135046043D01*
X159327990Y-135200897D01*
X159130897Y-135397990D01*
X158976043Y-135629746D01*
X158869377Y-135887260D01*
X158815000Y-136160635D01*
X158815000Y-136439365D01*
X158869377Y-136712740D01*
X158976043Y-136970254D01*
X159130897Y-137202010D01*
X159327990Y-137399103D01*
X159559746Y-137553957D01*
X159598477Y-137570000D01*
X159559746Y-137586043D01*
X159327990Y-137740897D01*
X159130897Y-137937990D01*
X158976043Y-138169746D01*
X158869377Y-138427260D01*
X158815000Y-138700635D01*
X158815000Y-138979365D01*
X158869377Y-139252740D01*
X158976043Y-139510254D01*
X159130897Y-139742010D01*
X159327990Y-139939103D01*
X159559746Y-140093957D01*
X159598477Y-140110000D01*
X159559746Y-140126043D01*
X159327990Y-140280897D01*
X159130897Y-140477990D01*
X158976043Y-140709746D01*
X158869377Y-140967260D01*
X158815000Y-141240635D01*
X158815000Y-141519365D01*
X158869377Y-141792740D01*
X158976043Y-142050254D01*
X159130897Y-142282010D01*
X159327990Y-142479103D01*
X159559746Y-142633957D01*
X159598477Y-142650000D01*
X159559746Y-142666043D01*
X159327990Y-142820897D01*
X159130897Y-143017990D01*
X158976043Y-143249746D01*
X158869377Y-143507260D01*
X158815000Y-143780635D01*
X158815000Y-144059365D01*
X158869377Y-144332740D01*
X158976043Y-144590254D01*
X159130897Y-144822010D01*
X159327990Y-145019103D01*
X159559746Y-145173957D01*
X159598477Y-145190000D01*
X159559746Y-145206043D01*
X159327990Y-145360897D01*
X159130897Y-145557990D01*
X158976043Y-145789746D01*
X158869377Y-146047260D01*
X158815000Y-146320635D01*
X158815000Y-146599365D01*
X158869377Y-146872740D01*
X158976043Y-147130254D01*
X159130897Y-147362010D01*
X159327990Y-147559103D01*
X159559746Y-147713957D01*
X159598477Y-147730000D01*
X159559746Y-147746043D01*
X159327990Y-147900897D01*
X159130897Y-148097990D01*
X158976043Y-148329746D01*
X158869377Y-148587260D01*
X158815000Y-148860635D01*
X158815000Y-149139365D01*
X158869377Y-149412740D01*
X158976043Y-149670254D01*
X159130897Y-149902010D01*
X159327990Y-150099103D01*
X159559746Y-150253957D01*
X159817260Y-150360623D01*
X160090635Y-150415000D01*
X160369365Y-150415000D01*
X160642740Y-150360623D01*
X160900254Y-150253957D01*
X161132010Y-150099103D01*
X161329103Y-149902010D01*
X161483957Y-149670254D01*
X161590623Y-149412740D01*
X161645000Y-149139365D01*
X161645000Y-149010000D01*
X168691928Y-149010000D01*
X168691928Y-150710000D01*
X168704188Y-150834482D01*
X168740498Y-150954180D01*
X168799463Y-151064494D01*
X168878815Y-151161185D01*
X168975506Y-151240537D01*
X169085820Y-151299502D01*
X169205518Y-151335812D01*
X169330000Y-151348072D01*
X171030000Y-151348072D01*
X171154482Y-151335812D01*
X171274180Y-151299502D01*
X171384494Y-151240537D01*
X171481185Y-151161185D01*
X171560537Y-151064494D01*
X171619502Y-150954180D01*
X171642498Y-150878374D01*
X171838645Y-151055178D01*
X172088748Y-151204157D01*
X172363109Y-151301481D01*
X172593000Y-151180814D01*
X172593000Y-149987000D01*
X172847000Y-149987000D01*
X172847000Y-151180814D01*
X173076891Y-151301481D01*
X173351252Y-151204157D01*
X173601355Y-151055178D01*
X173817588Y-150860269D01*
X173991641Y-150626920D01*
X174116825Y-150364099D01*
X174161476Y-150216890D01*
X174040155Y-149987000D01*
X172847000Y-149987000D01*
X172593000Y-149987000D01*
X172573000Y-149987000D01*
X172573000Y-149733000D01*
X172593000Y-149733000D01*
X172593000Y-147447000D01*
X172847000Y-147447000D01*
X172847000Y-149733000D01*
X174040155Y-149733000D01*
X174161476Y-149503110D01*
X174116825Y-149355901D01*
X173991641Y-149093080D01*
X173817588Y-148859731D01*
X173601355Y-148664822D01*
X173475745Y-148590000D01*
X173601355Y-148515178D01*
X173817588Y-148320269D01*
X173991641Y-148086920D01*
X174116825Y-147824099D01*
X174161476Y-147676890D01*
X174040155Y-147447000D01*
X172847000Y-147447000D01*
X172593000Y-147447000D01*
X172573000Y-147447000D01*
X172573000Y-147193000D01*
X172593000Y-147193000D01*
X172593000Y-144907000D01*
X172847000Y-144907000D01*
X172847000Y-147193000D01*
X174040155Y-147193000D01*
X174161476Y-146963110D01*
X174116825Y-146815901D01*
X173991641Y-146553080D01*
X173817588Y-146319731D01*
X173601355Y-146124822D01*
X173475745Y-146050000D01*
X173601355Y-145975178D01*
X173817588Y-145780269D01*
X173991641Y-145546920D01*
X174116825Y-145284099D01*
X174161476Y-145136890D01*
X174040155Y-144907000D01*
X172847000Y-144907000D01*
X172593000Y-144907000D01*
X172573000Y-144907000D01*
X172573000Y-144653000D01*
X172593000Y-144653000D01*
X172593000Y-143459186D01*
X172847000Y-143459186D01*
X172847000Y-144653000D01*
X174040155Y-144653000D01*
X174161476Y-144423110D01*
X174116825Y-144275901D01*
X173991641Y-144013080D01*
X173817588Y-143779731D01*
X173601355Y-143584822D01*
X173351252Y-143435843D01*
X173076891Y-143338519D01*
X172847000Y-143459186D01*
X172593000Y-143459186D01*
X172363109Y-143338519D01*
X172088748Y-143435843D01*
X171838645Y-143584822D01*
X171622412Y-143779731D01*
X171451100Y-144009406D01*
X171333475Y-143833368D01*
X171126632Y-143626525D01*
X170883411Y-143464010D01*
X170613158Y-143352068D01*
X170326260Y-143295000D01*
X170033740Y-143295000D01*
X169746842Y-143352068D01*
X169476589Y-143464010D01*
X169233368Y-143626525D01*
X169026525Y-143833368D01*
X168864010Y-144076589D01*
X168752068Y-144346842D01*
X168695000Y-144633740D01*
X168695000Y-144926260D01*
X168752068Y-145213158D01*
X168864010Y-145483411D01*
X169026525Y-145726632D01*
X169233368Y-145933475D01*
X169407760Y-146050000D01*
X169233368Y-146166525D01*
X169026525Y-146373368D01*
X168864010Y-146616589D01*
X168752068Y-146886842D01*
X168695000Y-147173740D01*
X168695000Y-147466260D01*
X168752068Y-147753158D01*
X168864010Y-148023411D01*
X169026525Y-148266632D01*
X169158380Y-148398487D01*
X169085820Y-148420498D01*
X168975506Y-148479463D01*
X168878815Y-148558815D01*
X168799463Y-148655506D01*
X168740498Y-148765820D01*
X168704188Y-148885518D01*
X168691928Y-149010000D01*
X161645000Y-149010000D01*
X161645000Y-148860635D01*
X161590623Y-148587260D01*
X161483957Y-148329746D01*
X161329103Y-148097990D01*
X161132010Y-147900897D01*
X160900254Y-147746043D01*
X160861523Y-147730000D01*
X160900254Y-147713957D01*
X161132010Y-147559103D01*
X161329103Y-147362010D01*
X161483957Y-147130254D01*
X161590623Y-146872740D01*
X161645000Y-146599365D01*
X161645000Y-146320635D01*
X161590623Y-146047260D01*
X161483957Y-145789746D01*
X161329103Y-145557990D01*
X161132010Y-145360897D01*
X160900254Y-145206043D01*
X160861523Y-145190000D01*
X160900254Y-145173957D01*
X161132010Y-145019103D01*
X161329103Y-144822010D01*
X161483957Y-144590254D01*
X161590623Y-144332740D01*
X161645000Y-144059365D01*
X161645000Y-143780635D01*
X161590623Y-143507260D01*
X161483957Y-143249746D01*
X161329103Y-143017990D01*
X161132010Y-142820897D01*
X160900254Y-142666043D01*
X160861523Y-142650000D01*
X160900254Y-142633957D01*
X161132010Y-142479103D01*
X161329103Y-142282010D01*
X161483957Y-142050254D01*
X161590623Y-141792740D01*
X161645000Y-141519365D01*
X161645000Y-141240635D01*
X161590623Y-140967260D01*
X161483957Y-140709746D01*
X161329103Y-140477990D01*
X161132010Y-140280897D01*
X160900254Y-140126043D01*
X160861523Y-140110000D01*
X160900254Y-140093957D01*
X161132010Y-139939103D01*
X161329103Y-139742010D01*
X161483957Y-139510254D01*
X161590623Y-139252740D01*
X161645000Y-138979365D01*
X161645000Y-138700635D01*
X161590623Y-138427260D01*
X161483957Y-138169746D01*
X161329103Y-137937990D01*
X161132010Y-137740897D01*
X160900254Y-137586043D01*
X160861523Y-137570000D01*
X160900254Y-137553957D01*
X161132010Y-137399103D01*
X161329103Y-137202010D01*
X161483957Y-136970254D01*
X161590623Y-136712740D01*
X161645000Y-136439365D01*
X161645000Y-136160635D01*
X161590623Y-135887260D01*
X161483957Y-135629746D01*
X161329103Y-135397990D01*
X161132010Y-135200897D01*
X160900254Y-135046043D01*
X160861523Y-135030000D01*
X160900254Y-135013957D01*
X161132010Y-134859103D01*
X161329103Y-134662010D01*
X161483957Y-134430254D01*
X161590623Y-134172740D01*
X161645000Y-133899365D01*
X161645000Y-133620635D01*
X161590623Y-133347260D01*
X161483957Y-133089746D01*
X161329103Y-132857990D01*
X161132010Y-132660897D01*
X160900254Y-132506043D01*
X160861523Y-132490000D01*
X160900254Y-132473957D01*
X161132010Y-132319103D01*
X161329103Y-132122010D01*
X161483957Y-131890254D01*
X161590623Y-131632740D01*
X161645000Y-131359365D01*
X161645000Y-131080635D01*
X161590623Y-130807260D01*
X161483957Y-130549746D01*
X161329103Y-130317990D01*
X161132010Y-130120897D01*
X160900254Y-129966043D01*
X160861523Y-129950000D01*
X160900254Y-129933957D01*
X161132010Y-129779103D01*
X161329103Y-129582010D01*
X161483957Y-129350254D01*
X161590623Y-129092740D01*
X161645000Y-128819365D01*
X161645000Y-128540635D01*
X161590623Y-128267260D01*
X161483957Y-128009746D01*
X161329103Y-127777990D01*
X161132010Y-127580897D01*
X160900254Y-127426043D01*
X160861523Y-127410000D01*
X160900254Y-127393957D01*
X161132010Y-127239103D01*
X161329103Y-127042010D01*
X161483957Y-126810254D01*
X161590623Y-126552740D01*
X161645000Y-126279365D01*
X161645000Y-126000635D01*
X161590623Y-125727260D01*
X161483957Y-125469746D01*
X161329103Y-125237990D01*
X161132010Y-125040897D01*
X160900254Y-124886043D01*
X160861523Y-124870000D01*
X160900254Y-124853957D01*
X161132010Y-124699103D01*
X161329103Y-124502010D01*
X161483957Y-124270254D01*
X161590623Y-124012740D01*
X161645000Y-123739365D01*
X161645000Y-123460635D01*
X161590623Y-123187260D01*
X161483957Y-122929746D01*
X161329103Y-122697990D01*
X161132010Y-122500897D01*
X160900254Y-122346043D01*
X160861523Y-122330000D01*
X160900254Y-122313957D01*
X161132010Y-122159103D01*
X161329103Y-121962010D01*
X161483957Y-121730254D01*
X161590623Y-121472740D01*
X161645000Y-121199365D01*
X161645000Y-120920635D01*
X161590623Y-120647260D01*
X161483957Y-120389746D01*
X161329103Y-120157990D01*
X161132010Y-119960897D01*
X160900254Y-119806043D01*
X160861523Y-119790000D01*
X160900254Y-119773957D01*
X161132010Y-119619103D01*
X161329103Y-119422010D01*
X161483957Y-119190254D01*
X161590623Y-118932740D01*
X161645000Y-118659365D01*
X161645000Y-118380635D01*
X161590623Y-118107260D01*
X161483957Y-117849746D01*
X161329103Y-117617990D01*
X161132010Y-117420897D01*
X160900254Y-117266043D01*
X160864475Y-117251223D01*
X160959655Y-117200349D01*
X161028816Y-116958421D01*
X160230000Y-116159605D01*
X159431184Y-116958421D01*
X159500345Y-117200349D01*
X159602279Y-117248425D01*
X159559746Y-117266043D01*
X159327990Y-117420897D01*
X159130897Y-117617990D01*
X158976043Y-117849746D01*
X158869377Y-118107260D01*
X158815000Y-118380635D01*
X143445000Y-118380635D01*
X143390623Y-118107260D01*
X143283957Y-117849746D01*
X143129103Y-117617990D01*
X142932010Y-117420897D01*
X142700254Y-117266043D01*
X142661523Y-117250000D01*
X142700254Y-117233957D01*
X142932010Y-117079103D01*
X143129103Y-116882010D01*
X143283957Y-116650254D01*
X143390623Y-116392740D01*
X143445000Y-116119365D01*
X143445000Y-116051303D01*
X158809943Y-116051303D01*
X158851140Y-116326972D01*
X158945325Y-116589308D01*
X159009651Y-116709655D01*
X159251579Y-116778816D01*
X160050395Y-115980000D01*
X160409605Y-115980000D01*
X161208421Y-116778816D01*
X161450349Y-116709655D01*
X161569248Y-116457557D01*
X161636681Y-116187106D01*
X161650057Y-115908697D01*
X161608860Y-115633028D01*
X161514675Y-115370692D01*
X161450349Y-115250345D01*
X161208421Y-115181184D01*
X160409605Y-115980000D01*
X160050395Y-115980000D01*
X159251579Y-115181184D01*
X159009651Y-115250345D01*
X158890752Y-115502443D01*
X158823319Y-115772894D01*
X158809943Y-116051303D01*
X143445000Y-116051303D01*
X143445000Y-115840635D01*
X143390623Y-115567260D01*
X143283957Y-115309746D01*
X143129103Y-115077990D01*
X142932010Y-114880897D01*
X142700254Y-114726043D01*
X142661523Y-114710000D01*
X142700254Y-114693957D01*
X142932010Y-114539103D01*
X143129103Y-114342010D01*
X143283957Y-114110254D01*
X143390623Y-113852740D01*
X143445000Y-113579365D01*
X143445000Y-113300635D01*
X158815000Y-113300635D01*
X158815000Y-113579365D01*
X158869377Y-113852740D01*
X158976043Y-114110254D01*
X159130897Y-114342010D01*
X159327990Y-114539103D01*
X159559746Y-114693957D01*
X159595525Y-114708777D01*
X159500345Y-114759651D01*
X159431184Y-115001579D01*
X160230000Y-115800395D01*
X161028816Y-115001579D01*
X160959655Y-114759651D01*
X160857721Y-114711575D01*
X160900254Y-114693957D01*
X161132010Y-114539103D01*
X161329103Y-114342010D01*
X161483957Y-114110254D01*
X161590623Y-113852740D01*
X161645000Y-113579365D01*
X161645000Y-113300635D01*
X161590623Y-113027260D01*
X161483957Y-112769746D01*
X161329103Y-112537990D01*
X161132010Y-112340897D01*
X160900254Y-112186043D01*
X160642740Y-112079377D01*
X160369365Y-112025000D01*
X160090635Y-112025000D01*
X159817260Y-112079377D01*
X159559746Y-112186043D01*
X159327990Y-112340897D01*
X159130897Y-112537990D01*
X158976043Y-112769746D01*
X158869377Y-113027260D01*
X158815000Y-113300635D01*
X143445000Y-113300635D01*
X143390623Y-113027260D01*
X143283957Y-112769746D01*
X143129103Y-112537990D01*
X142932010Y-112340897D01*
X142700254Y-112186043D01*
X142442740Y-112079377D01*
X142169365Y-112025000D01*
X141890635Y-112025000D01*
X141617260Y-112079377D01*
X141359746Y-112186043D01*
X141127990Y-112340897D01*
X140930897Y-112537990D01*
X140776043Y-112769746D01*
X140669377Y-113027260D01*
X140615000Y-113300635D01*
X120777000Y-113300635D01*
X120777000Y-110756153D01*
X142049500Y-110756153D01*
X142049500Y-111043847D01*
X142105626Y-111326012D01*
X142215721Y-111591806D01*
X142375555Y-111831015D01*
X142578985Y-112034445D01*
X142818194Y-112194279D01*
X143083988Y-112304374D01*
X143366153Y-112360500D01*
X143653847Y-112360500D01*
X143936012Y-112304374D01*
X144201806Y-112194279D01*
X144441015Y-112034445D01*
X144644445Y-111831015D01*
X144804279Y-111591806D01*
X144914374Y-111326012D01*
X144970500Y-111043847D01*
X144970500Y-110756153D01*
X157289500Y-110756153D01*
X157289500Y-111043847D01*
X157345626Y-111326012D01*
X157455721Y-111591806D01*
X157615555Y-111831015D01*
X157818985Y-112034445D01*
X158058194Y-112194279D01*
X158323988Y-112304374D01*
X158606153Y-112360500D01*
X158893847Y-112360500D01*
X159176012Y-112304374D01*
X159441806Y-112194279D01*
X159681015Y-112034445D01*
X159884445Y-111831015D01*
X160044279Y-111591806D01*
X160154374Y-111326012D01*
X160210500Y-111043847D01*
X160210500Y-110756153D01*
X160154374Y-110473988D01*
X160044279Y-110208194D01*
X159884445Y-109968985D01*
X159681015Y-109765555D01*
X159441806Y-109605721D01*
X159176012Y-109495626D01*
X158893847Y-109439500D01*
X158606153Y-109439500D01*
X158323988Y-109495626D01*
X158058194Y-109605721D01*
X157818985Y-109765555D01*
X157615555Y-109968985D01*
X157455721Y-110208194D01*
X157345626Y-110473988D01*
X157289500Y-110756153D01*
X144970500Y-110756153D01*
X144914374Y-110473988D01*
X144804279Y-110208194D01*
X144644445Y-109968985D01*
X144441015Y-109765555D01*
X144201806Y-109605721D01*
X143936012Y-109495626D01*
X143653847Y-109439500D01*
X143366153Y-109439500D01*
X143083988Y-109495626D01*
X142818194Y-109605721D01*
X142578985Y-109765555D01*
X142375555Y-109968985D01*
X142215721Y-110208194D01*
X142105626Y-110473988D01*
X142049500Y-110756153D01*
X120777000Y-110756153D01*
X120777000Y-103742311D01*
X120805363Y-103784759D01*
X121005241Y-103984637D01*
X121240273Y-104141680D01*
X121501426Y-104249853D01*
X121778665Y-104305000D01*
X122061335Y-104305000D01*
X122338574Y-104249853D01*
X122599727Y-104141680D01*
X122834759Y-103984637D01*
X123034637Y-103784759D01*
X123190000Y-103552241D01*
X123345363Y-103784759D01*
X123545241Y-103984637D01*
X123780273Y-104141680D01*
X124041426Y-104249853D01*
X124318665Y-104305000D01*
X124601335Y-104305000D01*
X124878574Y-104249853D01*
X125139727Y-104141680D01*
X125374759Y-103984637D01*
X125574637Y-103784759D01*
X125730000Y-103552241D01*
X125885363Y-103784759D01*
X126085241Y-103984637D01*
X126320273Y-104141680D01*
X126581426Y-104249853D01*
X126858665Y-104305000D01*
X127141335Y-104305000D01*
X127418574Y-104249853D01*
X127679727Y-104141680D01*
X127914759Y-103984637D01*
X128114637Y-103784759D01*
X128270000Y-103552241D01*
X128425363Y-103784759D01*
X128625241Y-103984637D01*
X128860273Y-104141680D01*
X129121426Y-104249853D01*
X129398665Y-104305000D01*
X129681335Y-104305000D01*
X129958574Y-104249853D01*
X130219727Y-104141680D01*
X130454759Y-103984637D01*
X130654637Y-103784759D01*
X130810000Y-103552241D01*
X130965363Y-103784759D01*
X131165241Y-103984637D01*
X131400273Y-104141680D01*
X131661426Y-104249853D01*
X131938665Y-104305000D01*
X132221335Y-104305000D01*
X132498574Y-104249853D01*
X132759727Y-104141680D01*
X132994759Y-103984637D01*
X133194637Y-103784759D01*
X133350000Y-103552241D01*
X133505363Y-103784759D01*
X133705241Y-103984637D01*
X133940273Y-104141680D01*
X134201426Y-104249853D01*
X134478665Y-104305000D01*
X134761335Y-104305000D01*
X135038574Y-104249853D01*
X135299727Y-104141680D01*
X135534759Y-103984637D01*
X135734637Y-103784759D01*
X135890000Y-103552241D01*
X136045363Y-103784759D01*
X136245241Y-103984637D01*
X136480273Y-104141680D01*
X136741426Y-104249853D01*
X137018665Y-104305000D01*
X137301335Y-104305000D01*
X137578574Y-104249853D01*
X137839727Y-104141680D01*
X138074759Y-103984637D01*
X138274637Y-103784759D01*
X138430000Y-103552241D01*
X138585363Y-103784759D01*
X138785241Y-103984637D01*
X139020273Y-104141680D01*
X139281426Y-104249853D01*
X139558665Y-104305000D01*
X139841335Y-104305000D01*
X140118574Y-104249853D01*
X140379727Y-104141680D01*
X140614759Y-103984637D01*
X140814637Y-103784759D01*
X140971680Y-103549727D01*
X141079853Y-103288574D01*
X141135000Y-103011335D01*
X141135000Y-102728665D01*
X142325000Y-102728665D01*
X142325000Y-103011335D01*
X142380147Y-103288574D01*
X142488320Y-103549727D01*
X142645363Y-103784759D01*
X142845241Y-103984637D01*
X143080273Y-104141680D01*
X143341426Y-104249853D01*
X143618665Y-104305000D01*
X143901335Y-104305000D01*
X144178574Y-104249853D01*
X144439727Y-104141680D01*
X144674759Y-103984637D01*
X144874637Y-103784759D01*
X145030000Y-103552241D01*
X145185363Y-103784759D01*
X145385241Y-103984637D01*
X145620273Y-104141680D01*
X145881426Y-104249853D01*
X146158665Y-104305000D01*
X146441335Y-104305000D01*
X146718574Y-104249853D01*
X146979727Y-104141680D01*
X147214759Y-103984637D01*
X147414637Y-103784759D01*
X147570000Y-103552241D01*
X147725363Y-103784759D01*
X147925241Y-103984637D01*
X148160273Y-104141680D01*
X148421426Y-104249853D01*
X148698665Y-104305000D01*
X148981335Y-104305000D01*
X149258574Y-104249853D01*
X149519727Y-104141680D01*
X149754759Y-103984637D01*
X149954637Y-103784759D01*
X150110000Y-103552241D01*
X150265363Y-103784759D01*
X150465241Y-103984637D01*
X150700273Y-104141680D01*
X150961426Y-104249853D01*
X151238665Y-104305000D01*
X151521335Y-104305000D01*
X151798574Y-104249853D01*
X152059727Y-104141680D01*
X152294759Y-103984637D01*
X152494637Y-103784759D01*
X152650000Y-103552241D01*
X152805363Y-103784759D01*
X153005241Y-103984637D01*
X153240273Y-104141680D01*
X153501426Y-104249853D01*
X153778665Y-104305000D01*
X154061335Y-104305000D01*
X154338574Y-104249853D01*
X154599727Y-104141680D01*
X154834759Y-103984637D01*
X155034637Y-103784759D01*
X155190000Y-103552241D01*
X155345363Y-103784759D01*
X155545241Y-103984637D01*
X155780273Y-104141680D01*
X156041426Y-104249853D01*
X156318665Y-104305000D01*
X156601335Y-104305000D01*
X156878574Y-104249853D01*
X157139727Y-104141680D01*
X157374759Y-103984637D01*
X157574637Y-103784759D01*
X157731680Y-103549727D01*
X157736067Y-103539135D01*
X157847615Y-103725131D01*
X158036586Y-103933519D01*
X158262580Y-104101037D01*
X158516913Y-104221246D01*
X158650961Y-104261904D01*
X158873000Y-104139915D01*
X158873000Y-102997000D01*
X158853000Y-102997000D01*
X158853000Y-102743000D01*
X158873000Y-102743000D01*
X158873000Y-101600085D01*
X159127000Y-101600085D01*
X159127000Y-102743000D01*
X159147000Y-102743000D01*
X159147000Y-102997000D01*
X159127000Y-102997000D01*
X159127000Y-104139915D01*
X159349039Y-104261904D01*
X159483087Y-104221246D01*
X159737420Y-104101037D01*
X159963414Y-103933519D01*
X160152385Y-103725131D01*
X160263933Y-103539135D01*
X160268320Y-103549727D01*
X160425363Y-103784759D01*
X160625241Y-103984637D01*
X160860273Y-104141680D01*
X161121426Y-104249853D01*
X161398665Y-104305000D01*
X161681335Y-104305000D01*
X161958574Y-104249853D01*
X162219727Y-104141680D01*
X162454759Y-103984637D01*
X162654637Y-103784759D01*
X162810000Y-103552241D01*
X162965363Y-103784759D01*
X163165241Y-103984637D01*
X163400273Y-104141680D01*
X163661426Y-104249853D01*
X163938665Y-104305000D01*
X164221335Y-104305000D01*
X164498574Y-104249853D01*
X164759727Y-104141680D01*
X164994759Y-103984637D01*
X165194637Y-103784759D01*
X165350000Y-103552241D01*
X165505363Y-103784759D01*
X165705241Y-103984637D01*
X165940273Y-104141680D01*
X166201426Y-104249853D01*
X166478665Y-104305000D01*
X166761335Y-104305000D01*
X167038574Y-104249853D01*
X167299727Y-104141680D01*
X167534759Y-103984637D01*
X167734637Y-103784759D01*
X167891680Y-103549727D01*
X167999853Y-103288574D01*
X168055000Y-103011335D01*
X168055000Y-102728665D01*
X167999853Y-102451426D01*
X167891680Y-102190273D01*
X167734637Y-101955241D01*
X167534759Y-101755363D01*
X167299727Y-101598320D01*
X167038574Y-101490147D01*
X166761335Y-101435000D01*
X166478665Y-101435000D01*
X166201426Y-101490147D01*
X165940273Y-101598320D01*
X165705241Y-101755363D01*
X165505363Y-101955241D01*
X165350000Y-102187759D01*
X165194637Y-101955241D01*
X164994759Y-101755363D01*
X164759727Y-101598320D01*
X164498574Y-101490147D01*
X164221335Y-101435000D01*
X163938665Y-101435000D01*
X163661426Y-101490147D01*
X163400273Y-101598320D01*
X163165241Y-101755363D01*
X162965363Y-101955241D01*
X162810000Y-102187759D01*
X162654637Y-101955241D01*
X162454759Y-101755363D01*
X162219727Y-101598320D01*
X161958574Y-101490147D01*
X161681335Y-101435000D01*
X161398665Y-101435000D01*
X161121426Y-101490147D01*
X160860273Y-101598320D01*
X160625241Y-101755363D01*
X160425363Y-101955241D01*
X160268320Y-102190273D01*
X160263933Y-102200865D01*
X160152385Y-102014869D01*
X159963414Y-101806481D01*
X159737420Y-101638963D01*
X159483087Y-101518754D01*
X159349039Y-101478096D01*
X159127000Y-101600085D01*
X158873000Y-101600085D01*
X158650961Y-101478096D01*
X158516913Y-101518754D01*
X158262580Y-101638963D01*
X158036586Y-101806481D01*
X157847615Y-102014869D01*
X157736067Y-102200865D01*
X157731680Y-102190273D01*
X157574637Y-101955241D01*
X157374759Y-101755363D01*
X157139727Y-101598320D01*
X156878574Y-101490147D01*
X156601335Y-101435000D01*
X156318665Y-101435000D01*
X156041426Y-101490147D01*
X155780273Y-101598320D01*
X155545241Y-101755363D01*
X155345363Y-101955241D01*
X155190000Y-102187759D01*
X155034637Y-101955241D01*
X154834759Y-101755363D01*
X154599727Y-101598320D01*
X154338574Y-101490147D01*
X154061335Y-101435000D01*
X153778665Y-101435000D01*
X153501426Y-101490147D01*
X153240273Y-101598320D01*
X153005241Y-101755363D01*
X152805363Y-101955241D01*
X152650000Y-102187759D01*
X152494637Y-101955241D01*
X152294759Y-101755363D01*
X152059727Y-101598320D01*
X151798574Y-101490147D01*
X151521335Y-101435000D01*
X151238665Y-101435000D01*
X150961426Y-101490147D01*
X150700273Y-101598320D01*
X150465241Y-101755363D01*
X150265363Y-101955241D01*
X150110000Y-102187759D01*
X149954637Y-101955241D01*
X149754759Y-101755363D01*
X149519727Y-101598320D01*
X149258574Y-101490147D01*
X148981335Y-101435000D01*
X148698665Y-101435000D01*
X148421426Y-101490147D01*
X148160273Y-101598320D01*
X147925241Y-101755363D01*
X147725363Y-101955241D01*
X147570000Y-102187759D01*
X147414637Y-101955241D01*
X147214759Y-101755363D01*
X146979727Y-101598320D01*
X146718574Y-101490147D01*
X146441335Y-101435000D01*
X146158665Y-101435000D01*
X145881426Y-101490147D01*
X145620273Y-101598320D01*
X145385241Y-101755363D01*
X145185363Y-101955241D01*
X145030000Y-102187759D01*
X144874637Y-101955241D01*
X144674759Y-101755363D01*
X144439727Y-101598320D01*
X144178574Y-101490147D01*
X143901335Y-101435000D01*
X143618665Y-101435000D01*
X143341426Y-101490147D01*
X143080273Y-101598320D01*
X142845241Y-101755363D01*
X142645363Y-101955241D01*
X142488320Y-102190273D01*
X142380147Y-102451426D01*
X142325000Y-102728665D01*
X141135000Y-102728665D01*
X141079853Y-102451426D01*
X140971680Y-102190273D01*
X140814637Y-101955241D01*
X140614759Y-101755363D01*
X140379727Y-101598320D01*
X140118574Y-101490147D01*
X139841335Y-101435000D01*
X139558665Y-101435000D01*
X139281426Y-101490147D01*
X139020273Y-101598320D01*
X138785241Y-101755363D01*
X138585363Y-101955241D01*
X138430000Y-102187759D01*
X138274637Y-101955241D01*
X138074759Y-101755363D01*
X137839727Y-101598320D01*
X137578574Y-101490147D01*
X137301335Y-101435000D01*
X137018665Y-101435000D01*
X136741426Y-101490147D01*
X136480273Y-101598320D01*
X136245241Y-101755363D01*
X136045363Y-101955241D01*
X135890000Y-102187759D01*
X135734637Y-101955241D01*
X135534759Y-101755363D01*
X135299727Y-101598320D01*
X135038574Y-101490147D01*
X134761335Y-101435000D01*
X134478665Y-101435000D01*
X134201426Y-101490147D01*
X133940273Y-101598320D01*
X133705241Y-101755363D01*
X133505363Y-101955241D01*
X133350000Y-102187759D01*
X133194637Y-101955241D01*
X132994759Y-101755363D01*
X132759727Y-101598320D01*
X132498574Y-101490147D01*
X132221335Y-101435000D01*
X131938665Y-101435000D01*
X131661426Y-101490147D01*
X131400273Y-101598320D01*
X131165241Y-101755363D01*
X130965363Y-101955241D01*
X130810000Y-102187759D01*
X130654637Y-101955241D01*
X130454759Y-101755363D01*
X130219727Y-101598320D01*
X129958574Y-101490147D01*
X129681335Y-101435000D01*
X129398665Y-101435000D01*
X129121426Y-101490147D01*
X128860273Y-101598320D01*
X128625241Y-101755363D01*
X128425363Y-101955241D01*
X128270000Y-102187759D01*
X128114637Y-101955241D01*
X127914759Y-101755363D01*
X127679727Y-101598320D01*
X127418574Y-101490147D01*
X127141335Y-101435000D01*
X126858665Y-101435000D01*
X126581426Y-101490147D01*
X126320273Y-101598320D01*
X126085241Y-101755363D01*
X125885363Y-101955241D01*
X125730000Y-102187759D01*
X125574637Y-101955241D01*
X125374759Y-101755363D01*
X125139727Y-101598320D01*
X124878574Y-101490147D01*
X124601335Y-101435000D01*
X124318665Y-101435000D01*
X124041426Y-101490147D01*
X123780273Y-101598320D01*
X123545241Y-101755363D01*
X123345363Y-101955241D01*
X123190000Y-102187759D01*
X123034637Y-101955241D01*
X122834759Y-101755363D01*
X122599727Y-101598320D01*
X122338574Y-101490147D01*
X122061335Y-101435000D01*
X121778665Y-101435000D01*
X121501426Y-101490147D01*
X121240273Y-101598320D01*
X121005241Y-101755363D01*
X120805363Y-101955241D01*
X120777000Y-101997689D01*
X120777000Y-55482311D01*
X120805363Y-55524759D01*
X121005241Y-55724637D01*
X121240273Y-55881680D01*
X121501426Y-55989853D01*
X121778665Y-56045000D01*
X122061335Y-56045000D01*
X122338574Y-55989853D01*
X122599727Y-55881680D01*
X122834759Y-55724637D01*
X123034637Y-55524759D01*
X123190000Y-55292241D01*
X123345363Y-55524759D01*
X123545241Y-55724637D01*
X123780273Y-55881680D01*
X124041426Y-55989853D01*
X124318665Y-56045000D01*
X124601335Y-56045000D01*
X124878574Y-55989853D01*
X125139727Y-55881680D01*
X125374759Y-55724637D01*
X125574637Y-55524759D01*
X125730000Y-55292241D01*
X125885363Y-55524759D01*
X126085241Y-55724637D01*
X126320273Y-55881680D01*
X126581426Y-55989853D01*
X126858665Y-56045000D01*
X127141335Y-56045000D01*
X127418574Y-55989853D01*
X127679727Y-55881680D01*
X127914759Y-55724637D01*
X128114637Y-55524759D01*
X128270000Y-55292241D01*
X128425363Y-55524759D01*
X128625241Y-55724637D01*
X128860273Y-55881680D01*
X129121426Y-55989853D01*
X129398665Y-56045000D01*
X129681335Y-56045000D01*
X129958574Y-55989853D01*
X130219727Y-55881680D01*
X130454759Y-55724637D01*
X130654637Y-55524759D01*
X130810000Y-55292241D01*
X130965363Y-55524759D01*
X131165241Y-55724637D01*
X131400273Y-55881680D01*
X131661426Y-55989853D01*
X131938665Y-56045000D01*
X132221335Y-56045000D01*
X132498574Y-55989853D01*
X132759727Y-55881680D01*
X132994759Y-55724637D01*
X133194637Y-55524759D01*
X133350000Y-55292241D01*
X133505363Y-55524759D01*
X133705241Y-55724637D01*
X133940273Y-55881680D01*
X134201426Y-55989853D01*
X134478665Y-56045000D01*
X134761335Y-56045000D01*
X135038574Y-55989853D01*
X135299727Y-55881680D01*
X135534759Y-55724637D01*
X135734637Y-55524759D01*
X135891680Y-55289727D01*
X135999853Y-55028574D01*
X136055000Y-54751335D01*
X136055000Y-54468665D01*
X135999853Y-54191426D01*
X135891680Y-53930273D01*
X135734637Y-53695241D01*
X135534759Y-53495363D01*
X135492311Y-53467000D01*
X138827689Y-53467000D01*
X138785241Y-53495363D01*
G37*
X138785241Y-53495363D02*
X138585363Y-53695241D01*
X138428320Y-53930273D01*
X138320147Y-54191426D01*
X138265000Y-54468665D01*
X138265000Y-54751335D01*
X138320147Y-55028574D01*
X138428320Y-55289727D01*
X138585363Y-55524759D01*
X138785241Y-55724637D01*
X139020273Y-55881680D01*
X139281426Y-55989853D01*
X139558665Y-56045000D01*
X139841335Y-56045000D01*
X140118574Y-55989853D01*
X140379727Y-55881680D01*
X140614759Y-55724637D01*
X140814637Y-55524759D01*
X140971680Y-55289727D01*
X140976067Y-55279135D01*
X141087615Y-55465131D01*
X141276586Y-55673519D01*
X141502580Y-55841037D01*
X141756913Y-55961246D01*
X141890961Y-56001904D01*
X142113000Y-55879915D01*
X142113000Y-54737000D01*
X142367000Y-54737000D01*
X142367000Y-55879915D01*
X142589039Y-56001904D01*
X142723087Y-55961246D01*
X142977420Y-55841037D01*
X143203414Y-55673519D01*
X143392385Y-55465131D01*
X143510000Y-55269018D01*
X143627615Y-55465131D01*
X143816586Y-55673519D01*
X144042580Y-55841037D01*
X144296913Y-55961246D01*
X144430961Y-56001904D01*
X144653000Y-55879915D01*
X144653000Y-54737000D01*
X142367000Y-54737000D01*
X142113000Y-54737000D01*
X142093000Y-54737000D01*
X142093000Y-54483000D01*
X142113000Y-54483000D01*
X142113000Y-54463000D01*
X142367000Y-54463000D01*
X142367000Y-54483000D01*
X144653000Y-54483000D01*
X144653000Y-54463000D01*
X144907000Y-54463000D01*
X144907000Y-54483000D01*
X144927000Y-54483000D01*
X144927000Y-54737000D01*
X144907000Y-54737000D01*
X144907000Y-55879915D01*
X145129039Y-56001904D01*
X145263087Y-55961246D01*
X145517420Y-55841037D01*
X145743414Y-55673519D01*
X145932385Y-55465131D01*
X146043933Y-55279135D01*
X146048320Y-55289727D01*
X146205363Y-55524759D01*
X146405241Y-55724637D01*
X146640273Y-55881680D01*
X146901426Y-55989853D01*
X147178665Y-56045000D01*
X147461335Y-56045000D01*
X147738574Y-55989853D01*
X147999727Y-55881680D01*
X148234759Y-55724637D01*
X148434637Y-55524759D01*
X148590000Y-55292241D01*
X148745363Y-55524759D01*
X148945241Y-55724637D01*
X149180273Y-55881680D01*
X149441426Y-55989853D01*
X149718665Y-56045000D01*
X150001335Y-56045000D01*
X150278574Y-55989853D01*
X150539727Y-55881680D01*
X150774759Y-55724637D01*
X150974637Y-55524759D01*
X151130000Y-55292241D01*
X151285363Y-55524759D01*
X151485241Y-55724637D01*
X151720273Y-55881680D01*
X151981426Y-55989853D01*
X152258665Y-56045000D01*
X152541335Y-56045000D01*
X152818574Y-55989853D01*
X153079727Y-55881680D01*
X153314759Y-55724637D01*
X153514637Y-55524759D01*
X153670000Y-55292241D01*
X153825363Y-55524759D01*
X154025241Y-55724637D01*
X154260273Y-55881680D01*
X154521426Y-55989853D01*
X154798665Y-56045000D01*
X155081335Y-56045000D01*
X155358574Y-55989853D01*
X155619727Y-55881680D01*
X155854759Y-55724637D01*
X156053357Y-55526039D01*
X156054188Y-55534482D01*
X156090498Y-55654180D01*
X156149463Y-55764494D01*
X156228815Y-55861185D01*
X156325506Y-55940537D01*
X156435820Y-55999502D01*
X156555518Y-56035812D01*
X156680000Y-56048072D01*
X158280000Y-56048072D01*
X158404482Y-56035812D01*
X158524180Y-55999502D01*
X158634494Y-55940537D01*
X158731185Y-55861185D01*
X158810537Y-55764494D01*
X158869502Y-55654180D01*
X158905812Y-55534482D01*
X158918072Y-55410000D01*
X158918072Y-53810000D01*
X158905812Y-53685518D01*
X158869502Y-53565820D01*
X158816681Y-53467000D01*
X175133000Y-53467000D01*
X175133000Y-153543000D01*
X120777000Y-153543000D01*
X120777000Y-151396153D01*
X142049500Y-151396153D01*
X142049500Y-151683847D01*
X142105626Y-151966012D01*
X142215721Y-152231806D01*
X142375555Y-152471015D01*
X142578985Y-152674445D01*
X142818194Y-152834279D01*
X143083988Y-152944374D01*
X143366153Y-153000500D01*
X143653847Y-153000500D01*
X143936012Y-152944374D01*
X144201806Y-152834279D01*
X144441015Y-152674445D01*
X144644445Y-152471015D01*
X144804279Y-152231806D01*
X144914374Y-151966012D01*
X144970500Y-151683847D01*
X144970500Y-151396153D01*
X157289500Y-151396153D01*
X157289500Y-151683847D01*
X157345626Y-151966012D01*
X157455721Y-152231806D01*
X157615555Y-152471015D01*
X157818985Y-152674445D01*
X158058194Y-152834279D01*
X158323988Y-152944374D01*
X158606153Y-153000500D01*
X158893847Y-153000500D01*
X159176012Y-152944374D01*
X159441806Y-152834279D01*
X159681015Y-152674445D01*
X159884445Y-152471015D01*
X160044279Y-152231806D01*
X160154374Y-151966012D01*
X160210500Y-151683847D01*
X160210500Y-151396153D01*
X160154374Y-151113988D01*
X160044279Y-150848194D01*
X159884445Y-150608985D01*
X159681015Y-150405555D01*
X159441806Y-150245721D01*
X159176012Y-150135626D01*
X158893847Y-150079500D01*
X158606153Y-150079500D01*
X158323988Y-150135626D01*
X158058194Y-150245721D01*
X157818985Y-150405555D01*
X157615555Y-150608985D01*
X157455721Y-150848194D01*
X157345626Y-151113988D01*
X157289500Y-151396153D01*
X144970500Y-151396153D01*
X144914374Y-151113988D01*
X144804279Y-150848194D01*
X144644445Y-150608985D01*
X144441015Y-150405555D01*
X144201806Y-150245721D01*
X143936012Y-150135626D01*
X143653847Y-150079500D01*
X143366153Y-150079500D01*
X143083988Y-150135626D01*
X142818194Y-150245721D01*
X142578985Y-150405555D01*
X142375555Y-150608985D01*
X142215721Y-150848194D01*
X142105626Y-151113988D01*
X142049500Y-151396153D01*
X120777000Y-151396153D01*
X120777000Y-146470000D01*
X124241928Y-146470000D01*
X124241928Y-148170000D01*
X124254188Y-148294482D01*
X124290498Y-148414180D01*
X124349463Y-148524494D01*
X124428815Y-148621185D01*
X124525506Y-148700537D01*
X124635820Y-148759502D01*
X124708380Y-148781513D01*
X124576525Y-148913368D01*
X124414010Y-149156589D01*
X124302068Y-149426842D01*
X124245000Y-149713740D01*
X124245000Y-150006260D01*
X124302068Y-150293158D01*
X124414010Y-150563411D01*
X124576525Y-150806632D01*
X124783368Y-151013475D01*
X125026589Y-151175990D01*
X125296842Y-151287932D01*
X125583740Y-151345000D01*
X125876260Y-151345000D01*
X126163158Y-151287932D01*
X126433411Y-151175990D01*
X126676632Y-151013475D01*
X126883475Y-150806632D01*
X127005195Y-150624466D01*
X127074822Y-150741355D01*
X127269731Y-150957588D01*
X127503080Y-151131641D01*
X127765901Y-151256825D01*
X127913110Y-151301476D01*
X128143000Y-151180155D01*
X128143000Y-149987000D01*
X128123000Y-149987000D01*
X128123000Y-149733000D01*
X128143000Y-149733000D01*
X128143000Y-149713000D01*
X128397000Y-149713000D01*
X128397000Y-149733000D01*
X128417000Y-149733000D01*
X128417000Y-149987000D01*
X128397000Y-149987000D01*
X128397000Y-151180155D01*
X128626890Y-151301476D01*
X128774099Y-151256825D01*
X129036920Y-151131641D01*
X129270269Y-150957588D01*
X129465178Y-150741355D01*
X129534805Y-150624466D01*
X129656525Y-150806632D01*
X129863368Y-151013475D01*
X130106589Y-151175990D01*
X130376842Y-151287932D01*
X130663740Y-151345000D01*
X130956260Y-151345000D01*
X131243158Y-151287932D01*
X131513411Y-151175990D01*
X131756632Y-151013475D01*
X131963475Y-150806632D01*
X132080000Y-150632240D01*
X132196525Y-150806632D01*
X132403368Y-151013475D01*
X132646589Y-151175990D01*
X132916842Y-151287932D01*
X133203740Y-151345000D01*
X133496260Y-151345000D01*
X133783158Y-151287932D01*
X134053411Y-151175990D01*
X134296632Y-151013475D01*
X134503475Y-150806632D01*
X134620000Y-150632240D01*
X134736525Y-150806632D01*
X134943368Y-151013475D01*
X135186589Y-151175990D01*
X135456842Y-151287932D01*
X135743740Y-151345000D01*
X136036260Y-151345000D01*
X136323158Y-151287932D01*
X136593411Y-151175990D01*
X136836632Y-151013475D01*
X137043475Y-150806632D01*
X137205990Y-150563411D01*
X137317932Y-150293158D01*
X137375000Y-150006260D01*
X137375000Y-149713740D01*
X137317932Y-149426842D01*
X137205990Y-149156589D01*
X137043475Y-148913368D01*
X136836632Y-148706525D01*
X136662240Y-148590000D01*
X136836632Y-148473475D01*
X137043475Y-148266632D01*
X137205990Y-148023411D01*
X137317932Y-147753158D01*
X137375000Y-147466260D01*
X137375000Y-147173740D01*
X137317932Y-146886842D01*
X137205990Y-146616589D01*
X137043475Y-146373368D01*
X136836632Y-146166525D01*
X136593411Y-146004010D01*
X136323158Y-145892068D01*
X136036260Y-145835000D01*
X135743740Y-145835000D01*
X135456842Y-145892068D01*
X135186589Y-146004010D01*
X134943368Y-146166525D01*
X134736525Y-146373368D01*
X134620000Y-146547760D01*
X134503475Y-146373368D01*
X134296632Y-146166525D01*
X134053411Y-146004010D01*
X133783158Y-145892068D01*
X133496260Y-145835000D01*
X133203740Y-145835000D01*
X132916842Y-145892068D01*
X132646589Y-146004010D01*
X132403368Y-146166525D01*
X132196525Y-146373368D01*
X132080000Y-146547760D01*
X131963475Y-146373368D01*
X131756632Y-146166525D01*
X131513411Y-146004010D01*
X131243158Y-145892068D01*
X130956260Y-145835000D01*
X130663740Y-145835000D01*
X130376842Y-145892068D01*
X130106589Y-146004010D01*
X129863368Y-146166525D01*
X129656525Y-146373368D01*
X129540000Y-146547760D01*
X129423475Y-146373368D01*
X129216632Y-146166525D01*
X128973411Y-146004010D01*
X128703158Y-145892068D01*
X128416260Y-145835000D01*
X128123740Y-145835000D01*
X127836842Y-145892068D01*
X127566589Y-146004010D01*
X127323368Y-146166525D01*
X127191513Y-146298380D01*
X127169502Y-146225820D01*
X127110537Y-146115506D01*
X127031185Y-146018815D01*
X126934494Y-145939463D01*
X126824180Y-145880498D01*
X126704482Y-145844188D01*
X126580000Y-145831928D01*
X124880000Y-145831928D01*
X124755518Y-145844188D01*
X124635820Y-145880498D01*
X124525506Y-145939463D01*
X124428815Y-146018815D01*
X124349463Y-146115506D01*
X124290498Y-146225820D01*
X124254188Y-146345518D01*
X124241928Y-146470000D01*
X120777000Y-146470000D01*
X120777000Y-123460635D01*
X140615000Y-123460635D01*
X140615000Y-123739365D01*
X140669377Y-124012740D01*
X140776043Y-124270254D01*
X140930897Y-124502010D01*
X141127990Y-124699103D01*
X141359746Y-124853957D01*
X141398477Y-124870000D01*
X141359746Y-124886043D01*
X141127990Y-125040897D01*
X140930897Y-125237990D01*
X140776043Y-125469746D01*
X140669377Y-125727260D01*
X140615000Y-126000635D01*
X140615000Y-126279365D01*
X140669377Y-126552740D01*
X140776043Y-126810254D01*
X140930897Y-127042010D01*
X141127990Y-127239103D01*
X141359746Y-127393957D01*
X141398477Y-127410000D01*
X141359746Y-127426043D01*
X141127990Y-127580897D01*
X140930897Y-127777990D01*
X140776043Y-128009746D01*
X140669377Y-128267260D01*
X140615000Y-128540635D01*
X140615000Y-128819365D01*
X140669377Y-129092740D01*
X140776043Y-129350254D01*
X140930897Y-129582010D01*
X141127990Y-129779103D01*
X141359746Y-129933957D01*
X141398477Y-129950000D01*
X141359746Y-129966043D01*
X141127990Y-130120897D01*
X140930897Y-130317990D01*
X140776043Y-130549746D01*
X140669377Y-130807260D01*
X140615000Y-131080635D01*
X140615000Y-131359365D01*
X140669377Y-131632740D01*
X140776043Y-131890254D01*
X140930897Y-132122010D01*
X141127990Y-132319103D01*
X141359746Y-132473957D01*
X141398477Y-132490000D01*
X141359746Y-132506043D01*
X141127990Y-132660897D01*
X140930897Y-132857990D01*
X140776043Y-133089746D01*
X140669377Y-133347260D01*
X140615000Y-133620635D01*
X140615000Y-133899365D01*
X140669377Y-134172740D01*
X140776043Y-134430254D01*
X140930897Y-134662010D01*
X141127990Y-134859103D01*
X141359746Y-135013957D01*
X141398477Y-135030000D01*
X141359746Y-135046043D01*
X141127990Y-135200897D01*
X140930897Y-135397990D01*
X140776043Y-135629746D01*
X140669377Y-135887260D01*
X140615000Y-136160635D01*
X140615000Y-136439365D01*
X140669377Y-136712740D01*
X140776043Y-136970254D01*
X140930897Y-137202010D01*
X141127990Y-137399103D01*
X141359746Y-137553957D01*
X141398477Y-137570000D01*
X141359746Y-137586043D01*
X141127990Y-137740897D01*
X140930897Y-137937990D01*
X140776043Y-138169746D01*
X140669377Y-138427260D01*
X140615000Y-138700635D01*
X140615000Y-138979365D01*
X140669377Y-139252740D01*
X140776043Y-139510254D01*
X140930897Y-139742010D01*
X141127990Y-139939103D01*
X141359746Y-140093957D01*
X141398477Y-140110000D01*
X141359746Y-140126043D01*
X141127990Y-140280897D01*
X140930897Y-140477990D01*
X140776043Y-140709746D01*
X140669377Y-140967260D01*
X140615000Y-141240635D01*
X140615000Y-141519365D01*
X140669377Y-141792740D01*
X140776043Y-142050254D01*
X140930897Y-142282010D01*
X141127990Y-142479103D01*
X141359746Y-142633957D01*
X141398477Y-142650000D01*
X141359746Y-142666043D01*
X141127990Y-142820897D01*
X140930897Y-143017990D01*
X140776043Y-143249746D01*
X140669377Y-143507260D01*
X140615000Y-143780635D01*
X140615000Y-144059365D01*
X140669377Y-144332740D01*
X140776043Y-144590254D01*
X140930897Y-144822010D01*
X141127990Y-145019103D01*
X141359746Y-145173957D01*
X141398477Y-145190000D01*
X141359746Y-145206043D01*
X141127990Y-145360897D01*
X140930897Y-145557990D01*
X140776043Y-145789746D01*
X140669377Y-146047260D01*
X140615000Y-146320635D01*
X140615000Y-146599365D01*
X140669377Y-146872740D01*
X140776043Y-147130254D01*
X140930897Y-147362010D01*
X141127990Y-147559103D01*
X141359746Y-147713957D01*
X141398477Y-147730000D01*
X141359746Y-147746043D01*
X141127990Y-147900897D01*
X140930897Y-148097990D01*
X140776043Y-148329746D01*
X140669377Y-148587260D01*
X140615000Y-148860635D01*
X140615000Y-149139365D01*
X140669377Y-149412740D01*
X140776043Y-149670254D01*
X140930897Y-149902010D01*
X141127990Y-150099103D01*
X141359746Y-150253957D01*
X141617260Y-150360623D01*
X141890635Y-150415000D01*
X142169365Y-150415000D01*
X142442740Y-150360623D01*
X142700254Y-150253957D01*
X142932010Y-150099103D01*
X143129103Y-149902010D01*
X143283957Y-149670254D01*
X143390623Y-149412740D01*
X143445000Y-149139365D01*
X143445000Y-148860635D01*
X143390623Y-148587260D01*
X143283957Y-148329746D01*
X143129103Y-148097990D01*
X142932010Y-147900897D01*
X142700254Y-147746043D01*
X142661523Y-147730000D01*
X142700254Y-147713957D01*
X142932010Y-147559103D01*
X143129103Y-147362010D01*
X143283957Y-147130254D01*
X143390623Y-146872740D01*
X143445000Y-146599365D01*
X143445000Y-146320635D01*
X143390623Y-146047260D01*
X143283957Y-145789746D01*
X143129103Y-145557990D01*
X142932010Y-145360897D01*
X142700254Y-145206043D01*
X142661523Y-145190000D01*
X142700254Y-145173957D01*
X142932010Y-145019103D01*
X143129103Y-144822010D01*
X143283957Y-144590254D01*
X143390623Y-144332740D01*
X143445000Y-144059365D01*
X143445000Y-143780635D01*
X143390623Y-143507260D01*
X143283957Y-143249746D01*
X143129103Y-143017990D01*
X142932010Y-142820897D01*
X142700254Y-142666043D01*
X142661523Y-142650000D01*
X142700254Y-142633957D01*
X142932010Y-142479103D01*
X143129103Y-142282010D01*
X143283957Y-142050254D01*
X143390623Y-141792740D01*
X143445000Y-141519365D01*
X143445000Y-141240635D01*
X143390623Y-140967260D01*
X143283957Y-140709746D01*
X143129103Y-140477990D01*
X142932010Y-140280897D01*
X142700254Y-140126043D01*
X142661523Y-140110000D01*
X142700254Y-140093957D01*
X142932010Y-139939103D01*
X143129103Y-139742010D01*
X143283957Y-139510254D01*
X143390623Y-139252740D01*
X143445000Y-138979365D01*
X143445000Y-138700635D01*
X143390623Y-138427260D01*
X143283957Y-138169746D01*
X143129103Y-137937990D01*
X142932010Y-137740897D01*
X142700254Y-137586043D01*
X142661523Y-137570000D01*
X142700254Y-137553957D01*
X142932010Y-137399103D01*
X143129103Y-137202010D01*
X143283957Y-136970254D01*
X143390623Y-136712740D01*
X143445000Y-136439365D01*
X143445000Y-136160635D01*
X143390623Y-135887260D01*
X143283957Y-135629746D01*
X143129103Y-135397990D01*
X142932010Y-135200897D01*
X142700254Y-135046043D01*
X142661523Y-135030000D01*
X142700254Y-135013957D01*
X142932010Y-134859103D01*
X143129103Y-134662010D01*
X143283957Y-134430254D01*
X143390623Y-134172740D01*
X143445000Y-133899365D01*
X143445000Y-133620635D01*
X143390623Y-133347260D01*
X143283957Y-133089746D01*
X143129103Y-132857990D01*
X142932010Y-132660897D01*
X142700254Y-132506043D01*
X142661523Y-132490000D01*
X142700254Y-132473957D01*
X142932010Y-132319103D01*
X143129103Y-132122010D01*
X143283957Y-131890254D01*
X143390623Y-131632740D01*
X143445000Y-131359365D01*
X143445000Y-131080635D01*
X143390623Y-130807260D01*
X143283957Y-130549746D01*
X143129103Y-130317990D01*
X142932010Y-130120897D01*
X142700254Y-129966043D01*
X142661523Y-129950000D01*
X142700254Y-129933957D01*
X142932010Y-129779103D01*
X143129103Y-129582010D01*
X143283957Y-129350254D01*
X143390623Y-129092740D01*
X143445000Y-128819365D01*
X143445000Y-128540635D01*
X143390623Y-128267260D01*
X143283957Y-128009746D01*
X143129103Y-127777990D01*
X142932010Y-127580897D01*
X142700254Y-127426043D01*
X142661523Y-127410000D01*
X142700254Y-127393957D01*
X142932010Y-127239103D01*
X143129103Y-127042010D01*
X143283957Y-126810254D01*
X143390623Y-126552740D01*
X143445000Y-126279365D01*
X143445000Y-126000635D01*
X143390623Y-125727260D01*
X143283957Y-125469746D01*
X143129103Y-125237990D01*
X142932010Y-125040897D01*
X142700254Y-124886043D01*
X142661523Y-124870000D01*
X142700254Y-124853957D01*
X142932010Y-124699103D01*
X143129103Y-124502010D01*
X143283957Y-124270254D01*
X143390623Y-124012740D01*
X143445000Y-123739365D01*
X143445000Y-123460635D01*
X143390623Y-123187260D01*
X143283957Y-122929746D01*
X143129103Y-122697990D01*
X142932010Y-122500897D01*
X142700254Y-122346043D01*
X142664475Y-122331223D01*
X142759655Y-122280349D01*
X142828816Y-122038421D01*
X142030000Y-121239605D01*
X141231184Y-122038421D01*
X141300345Y-122280349D01*
X141402279Y-122328425D01*
X141359746Y-122346043D01*
X141127990Y-122500897D01*
X140930897Y-122697990D01*
X140776043Y-122929746D01*
X140669377Y-123187260D01*
X140615000Y-123460635D01*
X120777000Y-123460635D01*
X120777000Y-121131303D01*
X140609943Y-121131303D01*
X140651140Y-121406972D01*
X140745325Y-121669308D01*
X140809651Y-121789655D01*
X141051579Y-121858816D01*
X141850395Y-121060000D01*
X142209605Y-121060000D01*
X143008421Y-121858816D01*
X143250349Y-121789655D01*
X143369248Y-121537557D01*
X143436681Y-121267106D01*
X143450057Y-120988697D01*
X143408860Y-120713028D01*
X143314675Y-120450692D01*
X143250349Y-120330345D01*
X143008421Y-120261184D01*
X142209605Y-121060000D01*
X141850395Y-121060000D01*
X141051579Y-120261184D01*
X140809651Y-120330345D01*
X140690752Y-120582443D01*
X140623319Y-120852894D01*
X140609943Y-121131303D01*
X120777000Y-121131303D01*
X120777000Y-113300635D01*
X140615000Y-113300635D01*
X140615000Y-113579365D01*
X140669377Y-113852740D01*
X140776043Y-114110254D01*
X140930897Y-114342010D01*
X141127990Y-114539103D01*
X141359746Y-114693957D01*
X141398477Y-114710000D01*
X141359746Y-114726043D01*
X141127990Y-114880897D01*
X140930897Y-115077990D01*
X140776043Y-115309746D01*
X140669377Y-115567260D01*
X140615000Y-115840635D01*
X140615000Y-116119365D01*
X140669377Y-116392740D01*
X140776043Y-116650254D01*
X140930897Y-116882010D01*
X141127990Y-117079103D01*
X141359746Y-117233957D01*
X141398477Y-117250000D01*
X141359746Y-117266043D01*
X141127990Y-117420897D01*
X140930897Y-117617990D01*
X140776043Y-117849746D01*
X140669377Y-118107260D01*
X140615000Y-118380635D01*
X140615000Y-118659365D01*
X140669377Y-118932740D01*
X140776043Y-119190254D01*
X140930897Y-119422010D01*
X141127990Y-119619103D01*
X141359746Y-119773957D01*
X141395525Y-119788777D01*
X141300345Y-119839651D01*
X141231184Y-120081579D01*
X142030000Y-120880395D01*
X142828816Y-120081579D01*
X142759655Y-119839651D01*
X142657721Y-119791575D01*
X142700254Y-119773957D01*
X142932010Y-119619103D01*
X143129103Y-119422010D01*
X143283957Y-119190254D01*
X143390623Y-118932740D01*
X143445000Y-118659365D01*
X143445000Y-118380635D01*
X158815000Y-118380635D01*
X158815000Y-118659365D01*
X158869377Y-118932740D01*
X158976043Y-119190254D01*
X159130897Y-119422010D01*
X159327990Y-119619103D01*
X159559746Y-119773957D01*
X159598477Y-119790000D01*
X159559746Y-119806043D01*
X159327990Y-119960897D01*
X159130897Y-120157990D01*
X158976043Y-120389746D01*
X158869377Y-120647260D01*
X158815000Y-120920635D01*
X158815000Y-121199365D01*
X158869377Y-121472740D01*
X158976043Y-121730254D01*
X159130897Y-121962010D01*
X159327990Y-122159103D01*
X159559746Y-122313957D01*
X159598477Y-122330000D01*
X159559746Y-122346043D01*
X159327990Y-122500897D01*
X159130897Y-122697990D01*
X158976043Y-122929746D01*
X158869377Y-123187260D01*
X158815000Y-123460635D01*
X158815000Y-123739365D01*
X158869377Y-124012740D01*
X158976043Y-124270254D01*
X159130897Y-124502010D01*
X159327990Y-124699103D01*
X159559746Y-124853957D01*
X159598477Y-124870000D01*
X159559746Y-124886043D01*
X159327990Y-125040897D01*
X159130897Y-125237990D01*
X158976043Y-125469746D01*
X158869377Y-125727260D01*
X158815000Y-126000635D01*
X158815000Y-126279365D01*
X158869377Y-126552740D01*
X158976043Y-126810254D01*
X159130897Y-127042010D01*
X159327990Y-127239103D01*
X159559746Y-127393957D01*
X159598477Y-127410000D01*
X159559746Y-127426043D01*
X159327990Y-127580897D01*
X159130897Y-127777990D01*
X158976043Y-128009746D01*
X158869377Y-128267260D01*
X158815000Y-128540635D01*
X158815000Y-128819365D01*
X158869377Y-129092740D01*
X158976043Y-129350254D01*
X159130897Y-129582010D01*
X159327990Y-129779103D01*
X159559746Y-129933957D01*
X159598477Y-129950000D01*
X159559746Y-129966043D01*
X159327990Y-130120897D01*
X159130897Y-130317990D01*
X158976043Y-130549746D01*
X158869377Y-130807260D01*
X158815000Y-131080635D01*
X158815000Y-131359365D01*
X158869377Y-131632740D01*
X158976043Y-131890254D01*
X159130897Y-132122010D01*
X159327990Y-132319103D01*
X159559746Y-132473957D01*
X159598477Y-132490000D01*
X159559746Y-132506043D01*
X159327990Y-132660897D01*
X159130897Y-132857990D01*
X158976043Y-133089746D01*
X158869377Y-133347260D01*
X158815000Y-133620635D01*
X158815000Y-133899365D01*
X158869377Y-134172740D01*
X158976043Y-134430254D01*
X159130897Y-134662010D01*
X159327990Y-134859103D01*
X159559746Y-135013957D01*
X159598477Y-135030000D01*
X159559746Y-135046043D01*
X159327990Y-135200897D01*
X159130897Y-135397990D01*
X158976043Y-135629746D01*
X158869377Y-135887260D01*
X158815000Y-136160635D01*
X158815000Y-136439365D01*
X158869377Y-136712740D01*
X158976043Y-136970254D01*
X159130897Y-137202010D01*
X159327990Y-137399103D01*
X159559746Y-137553957D01*
X159598477Y-137570000D01*
X159559746Y-137586043D01*
X159327990Y-137740897D01*
X159130897Y-137937990D01*
X158976043Y-138169746D01*
X158869377Y-138427260D01*
X158815000Y-138700635D01*
X158815000Y-138979365D01*
X158869377Y-139252740D01*
X158976043Y-139510254D01*
X159130897Y-139742010D01*
X159327990Y-139939103D01*
X159559746Y-140093957D01*
X159598477Y-140110000D01*
X159559746Y-140126043D01*
X159327990Y-140280897D01*
X159130897Y-140477990D01*
X158976043Y-140709746D01*
X158869377Y-140967260D01*
X158815000Y-141240635D01*
X158815000Y-141519365D01*
X158869377Y-141792740D01*
X158976043Y-142050254D01*
X159130897Y-142282010D01*
X159327990Y-142479103D01*
X159559746Y-142633957D01*
X159598477Y-142650000D01*
X159559746Y-142666043D01*
X159327990Y-142820897D01*
X159130897Y-143017990D01*
X158976043Y-143249746D01*
X158869377Y-143507260D01*
X158815000Y-143780635D01*
X158815000Y-144059365D01*
X158869377Y-144332740D01*
X158976043Y-144590254D01*
X159130897Y-144822010D01*
X159327990Y-145019103D01*
X159559746Y-145173957D01*
X159598477Y-145190000D01*
X159559746Y-145206043D01*
X159327990Y-145360897D01*
X159130897Y-145557990D01*
X158976043Y-145789746D01*
X158869377Y-146047260D01*
X158815000Y-146320635D01*
X158815000Y-146599365D01*
X158869377Y-146872740D01*
X158976043Y-147130254D01*
X159130897Y-147362010D01*
X159327990Y-147559103D01*
X159559746Y-147713957D01*
X159598477Y-147730000D01*
X159559746Y-147746043D01*
X159327990Y-147900897D01*
X159130897Y-148097990D01*
X158976043Y-148329746D01*
X158869377Y-148587260D01*
X158815000Y-148860635D01*
X158815000Y-149139365D01*
X158869377Y-149412740D01*
X158976043Y-149670254D01*
X159130897Y-149902010D01*
X159327990Y-150099103D01*
X159559746Y-150253957D01*
X159817260Y-150360623D01*
X160090635Y-150415000D01*
X160369365Y-150415000D01*
X160642740Y-150360623D01*
X160900254Y-150253957D01*
X161132010Y-150099103D01*
X161329103Y-149902010D01*
X161483957Y-149670254D01*
X161590623Y-149412740D01*
X161645000Y-149139365D01*
X161645000Y-149010000D01*
X168691928Y-149010000D01*
X168691928Y-150710000D01*
X168704188Y-150834482D01*
X168740498Y-150954180D01*
X168799463Y-151064494D01*
X168878815Y-151161185D01*
X168975506Y-151240537D01*
X169085820Y-151299502D01*
X169205518Y-151335812D01*
X169330000Y-151348072D01*
X171030000Y-151348072D01*
X171154482Y-151335812D01*
X171274180Y-151299502D01*
X171384494Y-151240537D01*
X171481185Y-151161185D01*
X171560537Y-151064494D01*
X171619502Y-150954180D01*
X171642498Y-150878374D01*
X171838645Y-151055178D01*
X172088748Y-151204157D01*
X172363109Y-151301481D01*
X172593000Y-151180814D01*
X172593000Y-149987000D01*
X172847000Y-149987000D01*
X172847000Y-151180814D01*
X173076891Y-151301481D01*
X173351252Y-151204157D01*
X173601355Y-151055178D01*
X173817588Y-150860269D01*
X173991641Y-150626920D01*
X174116825Y-150364099D01*
X174161476Y-150216890D01*
X174040155Y-149987000D01*
X172847000Y-149987000D01*
X172593000Y-149987000D01*
X172573000Y-149987000D01*
X172573000Y-149733000D01*
X172593000Y-149733000D01*
X172593000Y-147447000D01*
X172847000Y-147447000D01*
X172847000Y-149733000D01*
X174040155Y-149733000D01*
X174161476Y-149503110D01*
X174116825Y-149355901D01*
X173991641Y-149093080D01*
X173817588Y-148859731D01*
X173601355Y-148664822D01*
X173475745Y-148590000D01*
X173601355Y-148515178D01*
X173817588Y-148320269D01*
X173991641Y-148086920D01*
X174116825Y-147824099D01*
X174161476Y-147676890D01*
X174040155Y-147447000D01*
X172847000Y-147447000D01*
X172593000Y-147447000D01*
X172573000Y-147447000D01*
X172573000Y-147193000D01*
X172593000Y-147193000D01*
X172593000Y-144907000D01*
X172847000Y-144907000D01*
X172847000Y-147193000D01*
X174040155Y-147193000D01*
X174161476Y-146963110D01*
X174116825Y-146815901D01*
X173991641Y-146553080D01*
X173817588Y-146319731D01*
X173601355Y-146124822D01*
X173475745Y-146050000D01*
X173601355Y-145975178D01*
X173817588Y-145780269D01*
X173991641Y-145546920D01*
X174116825Y-145284099D01*
X174161476Y-145136890D01*
X174040155Y-144907000D01*
X172847000Y-144907000D01*
X172593000Y-144907000D01*
X172573000Y-144907000D01*
X172573000Y-144653000D01*
X172593000Y-144653000D01*
X172593000Y-143459186D01*
X172847000Y-143459186D01*
X172847000Y-144653000D01*
X174040155Y-144653000D01*
X174161476Y-144423110D01*
X174116825Y-144275901D01*
X173991641Y-144013080D01*
X173817588Y-143779731D01*
X173601355Y-143584822D01*
X173351252Y-143435843D01*
X173076891Y-143338519D01*
X172847000Y-143459186D01*
X172593000Y-143459186D01*
X172363109Y-143338519D01*
X172088748Y-143435843D01*
X171838645Y-143584822D01*
X171622412Y-143779731D01*
X171451100Y-144009406D01*
X171333475Y-143833368D01*
X171126632Y-143626525D01*
X170883411Y-143464010D01*
X170613158Y-143352068D01*
X170326260Y-143295000D01*
X170033740Y-143295000D01*
X169746842Y-143352068D01*
X169476589Y-143464010D01*
X169233368Y-143626525D01*
X169026525Y-143833368D01*
X168864010Y-144076589D01*
X168752068Y-144346842D01*
X168695000Y-144633740D01*
X168695000Y-144926260D01*
X168752068Y-145213158D01*
X168864010Y-145483411D01*
X169026525Y-145726632D01*
X169233368Y-145933475D01*
X169407760Y-146050000D01*
X169233368Y-146166525D01*
X169026525Y-146373368D01*
X168864010Y-146616589D01*
X168752068Y-146886842D01*
X168695000Y-147173740D01*
X168695000Y-147466260D01*
X168752068Y-147753158D01*
X168864010Y-148023411D01*
X169026525Y-148266632D01*
X169158380Y-148398487D01*
X169085820Y-148420498D01*
X168975506Y-148479463D01*
X168878815Y-148558815D01*
X168799463Y-148655506D01*
X168740498Y-148765820D01*
X168704188Y-148885518D01*
X168691928Y-149010000D01*
X161645000Y-149010000D01*
X161645000Y-148860635D01*
X161590623Y-148587260D01*
X161483957Y-148329746D01*
X161329103Y-148097990D01*
X161132010Y-147900897D01*
X160900254Y-147746043D01*
X160861523Y-147730000D01*
X160900254Y-147713957D01*
X161132010Y-147559103D01*
X161329103Y-147362010D01*
X161483957Y-147130254D01*
X161590623Y-146872740D01*
X161645000Y-146599365D01*
X161645000Y-146320635D01*
X161590623Y-146047260D01*
X161483957Y-145789746D01*
X161329103Y-145557990D01*
X161132010Y-145360897D01*
X160900254Y-145206043D01*
X160861523Y-145190000D01*
X160900254Y-145173957D01*
X161132010Y-145019103D01*
X161329103Y-144822010D01*
X161483957Y-144590254D01*
X161590623Y-144332740D01*
X161645000Y-144059365D01*
X161645000Y-143780635D01*
X161590623Y-143507260D01*
X161483957Y-143249746D01*
X161329103Y-143017990D01*
X161132010Y-142820897D01*
X160900254Y-142666043D01*
X160861523Y-142650000D01*
X160900254Y-142633957D01*
X161132010Y-142479103D01*
X161329103Y-142282010D01*
X161483957Y-142050254D01*
X161590623Y-141792740D01*
X161645000Y-141519365D01*
X161645000Y-141240635D01*
X161590623Y-140967260D01*
X161483957Y-140709746D01*
X161329103Y-140477990D01*
X161132010Y-140280897D01*
X160900254Y-140126043D01*
X160861523Y-140110000D01*
X160900254Y-140093957D01*
X161132010Y-139939103D01*
X161329103Y-139742010D01*
X161483957Y-139510254D01*
X161590623Y-139252740D01*
X161645000Y-138979365D01*
X161645000Y-138700635D01*
X161590623Y-138427260D01*
X161483957Y-138169746D01*
X161329103Y-137937990D01*
X161132010Y-137740897D01*
X160900254Y-137586043D01*
X160861523Y-137570000D01*
X160900254Y-137553957D01*
X161132010Y-137399103D01*
X161329103Y-137202010D01*
X161483957Y-136970254D01*
X161590623Y-136712740D01*
X161645000Y-136439365D01*
X161645000Y-136160635D01*
X161590623Y-135887260D01*
X161483957Y-135629746D01*
X161329103Y-135397990D01*
X161132010Y-135200897D01*
X160900254Y-135046043D01*
X160861523Y-135030000D01*
X160900254Y-135013957D01*
X161132010Y-134859103D01*
X161329103Y-134662010D01*
X161483957Y-134430254D01*
X161590623Y-134172740D01*
X161645000Y-133899365D01*
X161645000Y-133620635D01*
X161590623Y-133347260D01*
X161483957Y-133089746D01*
X161329103Y-132857990D01*
X161132010Y-132660897D01*
X160900254Y-132506043D01*
X160861523Y-132490000D01*
X160900254Y-132473957D01*
X161132010Y-132319103D01*
X161329103Y-132122010D01*
X161483957Y-131890254D01*
X161590623Y-131632740D01*
X161645000Y-131359365D01*
X161645000Y-131080635D01*
X161590623Y-130807260D01*
X161483957Y-130549746D01*
X161329103Y-130317990D01*
X161132010Y-130120897D01*
X160900254Y-129966043D01*
X160861523Y-129950000D01*
X160900254Y-129933957D01*
X161132010Y-129779103D01*
X161329103Y-129582010D01*
X161483957Y-129350254D01*
X161590623Y-129092740D01*
X161645000Y-128819365D01*
X161645000Y-128540635D01*
X161590623Y-128267260D01*
X161483957Y-128009746D01*
X161329103Y-127777990D01*
X161132010Y-127580897D01*
X160900254Y-127426043D01*
X160861523Y-127410000D01*
X160900254Y-127393957D01*
X161132010Y-127239103D01*
X161329103Y-127042010D01*
X161483957Y-126810254D01*
X161590623Y-126552740D01*
X161645000Y-126279365D01*
X161645000Y-126000635D01*
X161590623Y-125727260D01*
X161483957Y-125469746D01*
X161329103Y-125237990D01*
X161132010Y-125040897D01*
X160900254Y-124886043D01*
X160861523Y-124870000D01*
X160900254Y-124853957D01*
X161132010Y-124699103D01*
X161329103Y-124502010D01*
X161483957Y-124270254D01*
X161590623Y-124012740D01*
X161645000Y-123739365D01*
X161645000Y-123460635D01*
X161590623Y-123187260D01*
X161483957Y-122929746D01*
X161329103Y-122697990D01*
X161132010Y-122500897D01*
X160900254Y-122346043D01*
X160861523Y-122330000D01*
X160900254Y-122313957D01*
X161132010Y-122159103D01*
X161329103Y-121962010D01*
X161483957Y-121730254D01*
X161590623Y-121472740D01*
X161645000Y-121199365D01*
X161645000Y-120920635D01*
X161590623Y-120647260D01*
X161483957Y-120389746D01*
X161329103Y-120157990D01*
X161132010Y-119960897D01*
X160900254Y-119806043D01*
X160861523Y-119790000D01*
X160900254Y-119773957D01*
X161132010Y-119619103D01*
X161329103Y-119422010D01*
X161483957Y-119190254D01*
X161590623Y-118932740D01*
X161645000Y-118659365D01*
X161645000Y-118380635D01*
X161590623Y-118107260D01*
X161483957Y-117849746D01*
X161329103Y-117617990D01*
X161132010Y-117420897D01*
X160900254Y-117266043D01*
X160864475Y-117251223D01*
X160959655Y-117200349D01*
X161028816Y-116958421D01*
X160230000Y-116159605D01*
X159431184Y-116958421D01*
X159500345Y-117200349D01*
X159602279Y-117248425D01*
X159559746Y-117266043D01*
X159327990Y-117420897D01*
X159130897Y-117617990D01*
X158976043Y-117849746D01*
X158869377Y-118107260D01*
X158815000Y-118380635D01*
X143445000Y-118380635D01*
X143390623Y-118107260D01*
X143283957Y-117849746D01*
X143129103Y-117617990D01*
X142932010Y-117420897D01*
X142700254Y-117266043D01*
X142661523Y-117250000D01*
X142700254Y-117233957D01*
X142932010Y-117079103D01*
X143129103Y-116882010D01*
X143283957Y-116650254D01*
X143390623Y-116392740D01*
X143445000Y-116119365D01*
X143445000Y-116051303D01*
X158809943Y-116051303D01*
X158851140Y-116326972D01*
X158945325Y-116589308D01*
X159009651Y-116709655D01*
X159251579Y-116778816D01*
X160050395Y-115980000D01*
X160409605Y-115980000D01*
X161208421Y-116778816D01*
X161450349Y-116709655D01*
X161569248Y-116457557D01*
X161636681Y-116187106D01*
X161650057Y-115908697D01*
X161608860Y-115633028D01*
X161514675Y-115370692D01*
X161450349Y-115250345D01*
X161208421Y-115181184D01*
X160409605Y-115980000D01*
X160050395Y-115980000D01*
X159251579Y-115181184D01*
X159009651Y-115250345D01*
X158890752Y-115502443D01*
X158823319Y-115772894D01*
X158809943Y-116051303D01*
X143445000Y-116051303D01*
X143445000Y-115840635D01*
X143390623Y-115567260D01*
X143283957Y-115309746D01*
X143129103Y-115077990D01*
X142932010Y-114880897D01*
X142700254Y-114726043D01*
X142661523Y-114710000D01*
X142700254Y-114693957D01*
X142932010Y-114539103D01*
X143129103Y-114342010D01*
X143283957Y-114110254D01*
X143390623Y-113852740D01*
X143445000Y-113579365D01*
X143445000Y-113300635D01*
X158815000Y-113300635D01*
X158815000Y-113579365D01*
X158869377Y-113852740D01*
X158976043Y-114110254D01*
X159130897Y-114342010D01*
X159327990Y-114539103D01*
X159559746Y-114693957D01*
X159595525Y-114708777D01*
X159500345Y-114759651D01*
X159431184Y-115001579D01*
X160230000Y-115800395D01*
X161028816Y-115001579D01*
X160959655Y-114759651D01*
X160857721Y-114711575D01*
X160900254Y-114693957D01*
X161132010Y-114539103D01*
X161329103Y-114342010D01*
X161483957Y-114110254D01*
X161590623Y-113852740D01*
X161645000Y-113579365D01*
X161645000Y-113300635D01*
X161590623Y-113027260D01*
X161483957Y-112769746D01*
X161329103Y-112537990D01*
X161132010Y-112340897D01*
X160900254Y-112186043D01*
X160642740Y-112079377D01*
X160369365Y-112025000D01*
X160090635Y-112025000D01*
X159817260Y-112079377D01*
X159559746Y-112186043D01*
X159327990Y-112340897D01*
X159130897Y-112537990D01*
X158976043Y-112769746D01*
X158869377Y-113027260D01*
X158815000Y-113300635D01*
X143445000Y-113300635D01*
X143390623Y-113027260D01*
X143283957Y-112769746D01*
X143129103Y-112537990D01*
X142932010Y-112340897D01*
X142700254Y-112186043D01*
X142442740Y-112079377D01*
X142169365Y-112025000D01*
X141890635Y-112025000D01*
X141617260Y-112079377D01*
X141359746Y-112186043D01*
X141127990Y-112340897D01*
X140930897Y-112537990D01*
X140776043Y-112769746D01*
X140669377Y-113027260D01*
X140615000Y-113300635D01*
X120777000Y-113300635D01*
X120777000Y-110756153D01*
X142049500Y-110756153D01*
X142049500Y-111043847D01*
X142105626Y-111326012D01*
X142215721Y-111591806D01*
X142375555Y-111831015D01*
X142578985Y-112034445D01*
X142818194Y-112194279D01*
X143083988Y-112304374D01*
X143366153Y-112360500D01*
X143653847Y-112360500D01*
X143936012Y-112304374D01*
X144201806Y-112194279D01*
X144441015Y-112034445D01*
X144644445Y-111831015D01*
X144804279Y-111591806D01*
X144914374Y-111326012D01*
X144970500Y-111043847D01*
X144970500Y-110756153D01*
X157289500Y-110756153D01*
X157289500Y-111043847D01*
X157345626Y-111326012D01*
X157455721Y-111591806D01*
X157615555Y-111831015D01*
X157818985Y-112034445D01*
X158058194Y-112194279D01*
X158323988Y-112304374D01*
X158606153Y-112360500D01*
X158893847Y-112360500D01*
X159176012Y-112304374D01*
X159441806Y-112194279D01*
X159681015Y-112034445D01*
X159884445Y-111831015D01*
X160044279Y-111591806D01*
X160154374Y-111326012D01*
X160210500Y-111043847D01*
X160210500Y-110756153D01*
X160154374Y-110473988D01*
X160044279Y-110208194D01*
X159884445Y-109968985D01*
X159681015Y-109765555D01*
X159441806Y-109605721D01*
X159176012Y-109495626D01*
X158893847Y-109439500D01*
X158606153Y-109439500D01*
X158323988Y-109495626D01*
X158058194Y-109605721D01*
X157818985Y-109765555D01*
X157615555Y-109968985D01*
X157455721Y-110208194D01*
X157345626Y-110473988D01*
X157289500Y-110756153D01*
X144970500Y-110756153D01*
X144914374Y-110473988D01*
X144804279Y-110208194D01*
X144644445Y-109968985D01*
X144441015Y-109765555D01*
X144201806Y-109605721D01*
X143936012Y-109495626D01*
X143653847Y-109439500D01*
X143366153Y-109439500D01*
X143083988Y-109495626D01*
X142818194Y-109605721D01*
X142578985Y-109765555D01*
X142375555Y-109968985D01*
X142215721Y-110208194D01*
X142105626Y-110473988D01*
X142049500Y-110756153D01*
X120777000Y-110756153D01*
X120777000Y-103742311D01*
X120805363Y-103784759D01*
X121005241Y-103984637D01*
X121240273Y-104141680D01*
X121501426Y-104249853D01*
X121778665Y-104305000D01*
X122061335Y-104305000D01*
X122338574Y-104249853D01*
X122599727Y-104141680D01*
X122834759Y-103984637D01*
X123034637Y-103784759D01*
X123190000Y-103552241D01*
X123345363Y-103784759D01*
X123545241Y-103984637D01*
X123780273Y-104141680D01*
X124041426Y-104249853D01*
X124318665Y-104305000D01*
X124601335Y-104305000D01*
X124878574Y-104249853D01*
X125139727Y-104141680D01*
X125374759Y-103984637D01*
X125574637Y-103784759D01*
X125730000Y-103552241D01*
X125885363Y-103784759D01*
X126085241Y-103984637D01*
X126320273Y-104141680D01*
X126581426Y-104249853D01*
X126858665Y-104305000D01*
X127141335Y-104305000D01*
X127418574Y-104249853D01*
X127679727Y-104141680D01*
X127914759Y-103984637D01*
X128114637Y-103784759D01*
X128270000Y-103552241D01*
X128425363Y-103784759D01*
X128625241Y-103984637D01*
X128860273Y-104141680D01*
X129121426Y-104249853D01*
X129398665Y-104305000D01*
X129681335Y-104305000D01*
X129958574Y-104249853D01*
X130219727Y-104141680D01*
X130454759Y-103984637D01*
X130654637Y-103784759D01*
X130810000Y-103552241D01*
X130965363Y-103784759D01*
X131165241Y-103984637D01*
X131400273Y-104141680D01*
X131661426Y-104249853D01*
X131938665Y-104305000D01*
X132221335Y-104305000D01*
X132498574Y-104249853D01*
X132759727Y-104141680D01*
X132994759Y-103984637D01*
X133194637Y-103784759D01*
X133350000Y-103552241D01*
X133505363Y-103784759D01*
X133705241Y-103984637D01*
X133940273Y-104141680D01*
X134201426Y-104249853D01*
X134478665Y-104305000D01*
X134761335Y-104305000D01*
X135038574Y-104249853D01*
X135299727Y-104141680D01*
X135534759Y-103984637D01*
X135734637Y-103784759D01*
X135890000Y-103552241D01*
X136045363Y-103784759D01*
X136245241Y-103984637D01*
X136480273Y-104141680D01*
X136741426Y-104249853D01*
X137018665Y-104305000D01*
X137301335Y-104305000D01*
X137578574Y-104249853D01*
X137839727Y-104141680D01*
X138074759Y-103984637D01*
X138274637Y-103784759D01*
X138430000Y-103552241D01*
X138585363Y-103784759D01*
X138785241Y-103984637D01*
X139020273Y-104141680D01*
X139281426Y-104249853D01*
X139558665Y-104305000D01*
X139841335Y-104305000D01*
X140118574Y-104249853D01*
X140379727Y-104141680D01*
X140614759Y-103984637D01*
X140814637Y-103784759D01*
X140971680Y-103549727D01*
X141079853Y-103288574D01*
X141135000Y-103011335D01*
X141135000Y-102728665D01*
X142325000Y-102728665D01*
X142325000Y-103011335D01*
X142380147Y-103288574D01*
X142488320Y-103549727D01*
X142645363Y-103784759D01*
X142845241Y-103984637D01*
X143080273Y-104141680D01*
X143341426Y-104249853D01*
X143618665Y-104305000D01*
X143901335Y-104305000D01*
X144178574Y-104249853D01*
X144439727Y-104141680D01*
X144674759Y-103984637D01*
X144874637Y-103784759D01*
X145030000Y-103552241D01*
X145185363Y-103784759D01*
X145385241Y-103984637D01*
X145620273Y-104141680D01*
X145881426Y-104249853D01*
X146158665Y-104305000D01*
X146441335Y-104305000D01*
X146718574Y-104249853D01*
X146979727Y-104141680D01*
X147214759Y-103984637D01*
X147414637Y-103784759D01*
X147570000Y-103552241D01*
X147725363Y-103784759D01*
X147925241Y-103984637D01*
X148160273Y-104141680D01*
X148421426Y-104249853D01*
X148698665Y-104305000D01*
X148981335Y-104305000D01*
X149258574Y-104249853D01*
X149519727Y-104141680D01*
X149754759Y-103984637D01*
X149954637Y-103784759D01*
X150110000Y-103552241D01*
X150265363Y-103784759D01*
X150465241Y-103984637D01*
X150700273Y-104141680D01*
X150961426Y-104249853D01*
X151238665Y-104305000D01*
X151521335Y-104305000D01*
X151798574Y-104249853D01*
X152059727Y-104141680D01*
X152294759Y-103984637D01*
X152494637Y-103784759D01*
X152650000Y-103552241D01*
X152805363Y-103784759D01*
X153005241Y-103984637D01*
X153240273Y-104141680D01*
X153501426Y-104249853D01*
X153778665Y-104305000D01*
X154061335Y-104305000D01*
X154338574Y-104249853D01*
X154599727Y-104141680D01*
X154834759Y-103984637D01*
X155034637Y-103784759D01*
X155190000Y-103552241D01*
X155345363Y-103784759D01*
X155545241Y-103984637D01*
X155780273Y-104141680D01*
X156041426Y-104249853D01*
X156318665Y-104305000D01*
X156601335Y-104305000D01*
X156878574Y-104249853D01*
X157139727Y-104141680D01*
X157374759Y-103984637D01*
X157574637Y-103784759D01*
X157731680Y-103549727D01*
X157736067Y-103539135D01*
X157847615Y-103725131D01*
X158036586Y-103933519D01*
X158262580Y-104101037D01*
X158516913Y-104221246D01*
X158650961Y-104261904D01*
X158873000Y-104139915D01*
X158873000Y-102997000D01*
X158853000Y-102997000D01*
X158853000Y-102743000D01*
X158873000Y-102743000D01*
X158873000Y-101600085D01*
X159127000Y-101600085D01*
X159127000Y-102743000D01*
X159147000Y-102743000D01*
X159147000Y-102997000D01*
X159127000Y-102997000D01*
X159127000Y-104139915D01*
X159349039Y-104261904D01*
X159483087Y-104221246D01*
X159737420Y-104101037D01*
X159963414Y-103933519D01*
X160152385Y-103725131D01*
X160263933Y-103539135D01*
X160268320Y-103549727D01*
X160425363Y-103784759D01*
X160625241Y-103984637D01*
X160860273Y-104141680D01*
X161121426Y-104249853D01*
X161398665Y-104305000D01*
X161681335Y-104305000D01*
X161958574Y-104249853D01*
X162219727Y-104141680D01*
X162454759Y-103984637D01*
X162654637Y-103784759D01*
X162810000Y-103552241D01*
X162965363Y-103784759D01*
X163165241Y-103984637D01*
X163400273Y-104141680D01*
X163661426Y-104249853D01*
X163938665Y-104305000D01*
X164221335Y-104305000D01*
X164498574Y-104249853D01*
X164759727Y-104141680D01*
X164994759Y-103984637D01*
X165194637Y-103784759D01*
X165350000Y-103552241D01*
X165505363Y-103784759D01*
X165705241Y-103984637D01*
X165940273Y-104141680D01*
X166201426Y-104249853D01*
X166478665Y-104305000D01*
X166761335Y-104305000D01*
X167038574Y-104249853D01*
X167299727Y-104141680D01*
X167534759Y-103984637D01*
X167734637Y-103784759D01*
X167891680Y-103549727D01*
X167999853Y-103288574D01*
X168055000Y-103011335D01*
X168055000Y-102728665D01*
X167999853Y-102451426D01*
X167891680Y-102190273D01*
X167734637Y-101955241D01*
X167534759Y-101755363D01*
X167299727Y-101598320D01*
X167038574Y-101490147D01*
X166761335Y-101435000D01*
X166478665Y-101435000D01*
X166201426Y-101490147D01*
X165940273Y-101598320D01*
X165705241Y-101755363D01*
X165505363Y-101955241D01*
X165350000Y-102187759D01*
X165194637Y-101955241D01*
X164994759Y-101755363D01*
X164759727Y-101598320D01*
X164498574Y-101490147D01*
X164221335Y-101435000D01*
X163938665Y-101435000D01*
X163661426Y-101490147D01*
X163400273Y-101598320D01*
X163165241Y-101755363D01*
X162965363Y-101955241D01*
X162810000Y-102187759D01*
X162654637Y-101955241D01*
X162454759Y-101755363D01*
X162219727Y-101598320D01*
X161958574Y-101490147D01*
X161681335Y-101435000D01*
X161398665Y-101435000D01*
X161121426Y-101490147D01*
X160860273Y-101598320D01*
X160625241Y-101755363D01*
X160425363Y-101955241D01*
X160268320Y-102190273D01*
X160263933Y-102200865D01*
X160152385Y-102014869D01*
X159963414Y-101806481D01*
X159737420Y-101638963D01*
X159483087Y-101518754D01*
X159349039Y-101478096D01*
X159127000Y-101600085D01*
X158873000Y-101600085D01*
X158650961Y-101478096D01*
X158516913Y-101518754D01*
X158262580Y-101638963D01*
X158036586Y-101806481D01*
X157847615Y-102014869D01*
X157736067Y-102200865D01*
X157731680Y-102190273D01*
X157574637Y-101955241D01*
X157374759Y-101755363D01*
X157139727Y-101598320D01*
X156878574Y-101490147D01*
X156601335Y-101435000D01*
X156318665Y-101435000D01*
X156041426Y-101490147D01*
X155780273Y-101598320D01*
X155545241Y-101755363D01*
X155345363Y-101955241D01*
X155190000Y-102187759D01*
X155034637Y-101955241D01*
X154834759Y-101755363D01*
X154599727Y-101598320D01*
X154338574Y-101490147D01*
X154061335Y-101435000D01*
X153778665Y-101435000D01*
X153501426Y-101490147D01*
X153240273Y-101598320D01*
X153005241Y-101755363D01*
X152805363Y-101955241D01*
X152650000Y-102187759D01*
X152494637Y-101955241D01*
X152294759Y-101755363D01*
X152059727Y-101598320D01*
X151798574Y-101490147D01*
X151521335Y-101435000D01*
X151238665Y-101435000D01*
X150961426Y-101490147D01*
X150700273Y-101598320D01*
X150465241Y-101755363D01*
X150265363Y-101955241D01*
X150110000Y-102187759D01*
X149954637Y-101955241D01*
X149754759Y-101755363D01*
X149519727Y-101598320D01*
X149258574Y-101490147D01*
X148981335Y-101435000D01*
X148698665Y-101435000D01*
X148421426Y-101490147D01*
X148160273Y-101598320D01*
X147925241Y-101755363D01*
X147725363Y-101955241D01*
X147570000Y-102187759D01*
X147414637Y-101955241D01*
X147214759Y-101755363D01*
X146979727Y-101598320D01*
X146718574Y-101490147D01*
X146441335Y-101435000D01*
X146158665Y-101435000D01*
X145881426Y-101490147D01*
X145620273Y-101598320D01*
X145385241Y-101755363D01*
X145185363Y-101955241D01*
X145030000Y-102187759D01*
X144874637Y-101955241D01*
X144674759Y-101755363D01*
X144439727Y-101598320D01*
X144178574Y-101490147D01*
X143901335Y-101435000D01*
X143618665Y-101435000D01*
X143341426Y-101490147D01*
X143080273Y-101598320D01*
X142845241Y-101755363D01*
X142645363Y-101955241D01*
X142488320Y-102190273D01*
X142380147Y-102451426D01*
X142325000Y-102728665D01*
X141135000Y-102728665D01*
X141079853Y-102451426D01*
X140971680Y-102190273D01*
X140814637Y-101955241D01*
X140614759Y-101755363D01*
X140379727Y-101598320D01*
X140118574Y-101490147D01*
X139841335Y-101435000D01*
X139558665Y-101435000D01*
X139281426Y-101490147D01*
X139020273Y-101598320D01*
X138785241Y-101755363D01*
X138585363Y-101955241D01*
X138430000Y-102187759D01*
X138274637Y-101955241D01*
X138074759Y-101755363D01*
X137839727Y-101598320D01*
X137578574Y-101490147D01*
X137301335Y-101435000D01*
X137018665Y-101435000D01*
X136741426Y-101490147D01*
X136480273Y-101598320D01*
X136245241Y-101755363D01*
X136045363Y-101955241D01*
X135890000Y-102187759D01*
X135734637Y-101955241D01*
X135534759Y-101755363D01*
X135299727Y-101598320D01*
X135038574Y-101490147D01*
X134761335Y-101435000D01*
X134478665Y-101435000D01*
X134201426Y-101490147D01*
X133940273Y-101598320D01*
X133705241Y-101755363D01*
X133505363Y-101955241D01*
X133350000Y-102187759D01*
X133194637Y-101955241D01*
X132994759Y-101755363D01*
X132759727Y-101598320D01*
X132498574Y-101490147D01*
X132221335Y-101435000D01*
X131938665Y-101435000D01*
X131661426Y-101490147D01*
X131400273Y-101598320D01*
X131165241Y-101755363D01*
X130965363Y-101955241D01*
X130810000Y-102187759D01*
X130654637Y-101955241D01*
X130454759Y-101755363D01*
X130219727Y-101598320D01*
X129958574Y-101490147D01*
X129681335Y-101435000D01*
X129398665Y-101435000D01*
X129121426Y-101490147D01*
X128860273Y-101598320D01*
X128625241Y-101755363D01*
X128425363Y-101955241D01*
X128270000Y-102187759D01*
X128114637Y-101955241D01*
X127914759Y-101755363D01*
X127679727Y-101598320D01*
X127418574Y-101490147D01*
X127141335Y-101435000D01*
X126858665Y-101435000D01*
X126581426Y-101490147D01*
X126320273Y-101598320D01*
X126085241Y-101755363D01*
X125885363Y-101955241D01*
X125730000Y-102187759D01*
X125574637Y-101955241D01*
X125374759Y-101755363D01*
X125139727Y-101598320D01*
X124878574Y-101490147D01*
X124601335Y-101435000D01*
X124318665Y-101435000D01*
X124041426Y-101490147D01*
X123780273Y-101598320D01*
X123545241Y-101755363D01*
X123345363Y-101955241D01*
X123190000Y-102187759D01*
X123034637Y-101955241D01*
X122834759Y-101755363D01*
X122599727Y-101598320D01*
X122338574Y-101490147D01*
X122061335Y-101435000D01*
X121778665Y-101435000D01*
X121501426Y-101490147D01*
X121240273Y-101598320D01*
X121005241Y-101755363D01*
X120805363Y-101955241D01*
X120777000Y-101997689D01*
X120777000Y-55482311D01*
X120805363Y-55524759D01*
X121005241Y-55724637D01*
X121240273Y-55881680D01*
X121501426Y-55989853D01*
X121778665Y-56045000D01*
X122061335Y-56045000D01*
X122338574Y-55989853D01*
X122599727Y-55881680D01*
X122834759Y-55724637D01*
X123034637Y-55524759D01*
X123190000Y-55292241D01*
X123345363Y-55524759D01*
X123545241Y-55724637D01*
X123780273Y-55881680D01*
X124041426Y-55989853D01*
X124318665Y-56045000D01*
X124601335Y-56045000D01*
X124878574Y-55989853D01*
X125139727Y-55881680D01*
X125374759Y-55724637D01*
X125574637Y-55524759D01*
X125730000Y-55292241D01*
X125885363Y-55524759D01*
X126085241Y-55724637D01*
X126320273Y-55881680D01*
X126581426Y-55989853D01*
X126858665Y-56045000D01*
X127141335Y-56045000D01*
X127418574Y-55989853D01*
X127679727Y-55881680D01*
X127914759Y-55724637D01*
X128114637Y-55524759D01*
X128270000Y-55292241D01*
X128425363Y-55524759D01*
X128625241Y-55724637D01*
X128860273Y-55881680D01*
X129121426Y-55989853D01*
X129398665Y-56045000D01*
X129681335Y-56045000D01*
X129958574Y-55989853D01*
X130219727Y-55881680D01*
X130454759Y-55724637D01*
X130654637Y-55524759D01*
X130810000Y-55292241D01*
X130965363Y-55524759D01*
X131165241Y-55724637D01*
X131400273Y-55881680D01*
X131661426Y-55989853D01*
X131938665Y-56045000D01*
X132221335Y-56045000D01*
X132498574Y-55989853D01*
X132759727Y-55881680D01*
X132994759Y-55724637D01*
X133194637Y-55524759D01*
X133350000Y-55292241D01*
X133505363Y-55524759D01*
X133705241Y-55724637D01*
X133940273Y-55881680D01*
X134201426Y-55989853D01*
X134478665Y-56045000D01*
X134761335Y-56045000D01*
X135038574Y-55989853D01*
X135299727Y-55881680D01*
X135534759Y-55724637D01*
X135734637Y-55524759D01*
X135891680Y-55289727D01*
X135999853Y-55028574D01*
X136055000Y-54751335D01*
X136055000Y-54468665D01*
X135999853Y-54191426D01*
X135891680Y-53930273D01*
X135734637Y-53695241D01*
X135534759Y-53495363D01*
X135492311Y-53467000D01*
X138827689Y-53467000D01*
X138785241Y-53495363D01*
M02*
